{"glyphs":{"0":{"ha":851,"x_min":47,"x_max":806,"o":"m 425 -17 q 217 44 301 -17 q 90 214 133 104 q 47 471 47 324 q 91 731 47 621 q 221 901 135 840 q 431 961 307 961 q 637 901 553 961 q 763 731 721 840 q 806 474 806 622 q 762 213 806 324 q 633 43 718 103 q 425 -17 549 -17 m 425 107 q 552 152 500 107 q 631 279 604 197 q 658 472 658 361 q 633 663 658 581 q 556 791 607 744 q 428 838 504 838 q 300 792 353 838 q 220 665 247 747 q 193 472 193 583 q 219 282 193 364 q 297 153 246 200 q 425 107 349 107 z "},"1":{"ha":554,"x_min":19,"x_max":415,"o":"m 274 0 l 274 857 l 415 944 l 415 0 l 274 0 m 147 724 q 99 704 122 708 q 58 706 76 700 q 30 728 40 713 q 19 765 19 743 q 35 809 19 790 q 83 844 50 828 l 285 944 l 415 944 l 365 857 l 147 724 z "},"2":{"ha":851,"x_min":72,"x_max":778,"o":"m 193 0 q 121 13 147 0 q 83 53 94 26 q 72 118 72 81 q 102 263 72 204 q 181 363 132 322 q 288 431 229 403 q 405 482 346 458 q 512 531 464 506 q 590 591 560 556 q 619 679 619 626 q 599 758 619 721 q 538 819 579 794 q 431 843 497 843 q 329 824 369 843 q 261 779 289 804 q 210 735 233 754 q 160 715 188 715 q 118 732 135 715 q 101 774 101 749 q 115 817 101 796 q 149 857 129 839 q 256 928 188 896 q 431 961 325 961 q 676 885 588 961 q 764 681 764 810 q 734 551 764 603 q 656 466 704 500 q 548 408 607 432 q 431 360 489 383 q 325 309 374 338 q 248 238 276 281 q 221 129 219 194 l 778 129 l 778 0 l 193 0 z "},"3":{"ha":851,"x_min":75,"x_max":768,"o":"m 388 -17 q 224 1 299 -17 q 93 49 150 19 l 93 171 q 234 122 163 142 q 386 101 306 101 q 559 143 497 101 q 621 258 621 185 q 579 357 621 321 q 469 409 538 393 q 318 425 401 425 l 232 425 l 232 542 l 318 542 q 459 555 396 542 q 560 601 522 568 q 597 690 597 633 q 544 801 597 758 q 403 843 492 843 q 301 824 340 843 q 233 781 261 806 q 183 737 206 756 q 133 718 161 718 q 92 734 108 718 q 75 776 75 750 q 87 819 75 799 q 118 857 99 840 q 226 929 157 897 q 403 961 296 961 q 585 928 510 961 q 701 834 661 894 q 742 696 742 774 q 683 551 742 601 q 522 479 625 500 l 521 504 q 649 462 594 492 q 736 382 704 432 q 768 257 768 332 q 718 102 768 163 q 582 13 668 42 q 388 -17 496 -17 z "},"4":{"ha":851,"x_min":21,"x_max":811,"o":"m 133 236 q 49 261 76 236 q 21 328 21 286 q 31 375 21 350 q 67 428 42 400 l 518 944 l 660 944 l 626 894 l 128 324 l 93 363 l 811 363 l 811 236 l 133 236 m 518 0 l 518 944 l 660 944 l 660 0 l 518 0 z "},"5":{"ha":851,"x_min":86,"x_max":769,"o":"m 379 -17 q 218 1 293 -17 q 86 49 143 19 l 86 172 q 228 124 156 143 q 376 104 300 104 q 556 151 490 104 q 622 279 622 199 q 564 397 622 353 q 376 440 506 440 q 280 436 326 440 q 204 432 233 432 q 118 461 140 432 q 103 553 96 490 l 149 944 l 275 944 l 225 499 l 197 544 q 469 564 358 574 q 645 515 579 554 q 740 415 711 475 q 769 283 769 354 q 719 115 769 182 q 581 16 669 49 q 379 -17 493 -17 m 149 821 l 149 944 l 729 944 l 729 821 l 149 821 z "},"6":{"ha":851,"x_min":68,"x_max":806,"o":"m 447 -17 q 164 106 260 -17 q 68 456 68 229 q 90 653 68 561 q 161 813 113 744 q 288 922 210 882 q 475 961 365 961 q 631 935 568 961 q 724 876 693 908 q 748 844 740 860 q 756 811 756 828 q 739 768 756 783 q 697 753 722 753 q 655 767 675 753 q 611 797 635 781 q 554 827 588 814 q 469 840 521 840 q 321 791 378 840 q 238 655 264 742 q 211 457 211 568 q 239 258 211 338 q 320 138 267 178 q 449 97 374 97 q 560 124 513 97 q 635 194 608 150 q 661 296 661 239 q 610 419 661 374 q 467 464 560 464 q 333 440 401 464 q 194 360 264 415 l 186 468 q 335 551 253 522 q 501 581 418 581 q 660 547 592 581 q 767 452 729 514 q 806 301 806 390 q 761 136 806 208 q 637 24 717 64 q 447 -17 557 -17 z "},"7":{"ha":851,"x_min":69,"x_max":792,"o":"m 300 0 q 322 269 300 149 q 388 490 343 389 q 503 681 432 592 q 674 854 575 769 l 701 818 l 69 818 l 69 944 l 692 944 q 743 936 721 944 q 778 910 765 928 q 792 867 792 893 q 765 797 792 832 q 698 719 739 761 q 612 617 657 676 q 527 474 567 558 q 465 274 488 390 q 446 0 442 158 l 300 0 z "},"8":{"ha":851,"x_min":51,"x_max":800,"o":"m 51 251 q 151 451 51 379 q 429 524 251 524 q 626 493 543 524 q 755 404 710 463 q 800 260 800 346 q 700 58 800 132 q 422 -17 600 -17 q 151 53 251 -17 q 51 251 51 124 m 196 258 q 256 141 196 182 q 422 100 317 100 q 593 142 531 100 q 656 264 656 185 q 595 387 656 342 q 429 432 535 432 q 259 385 322 432 q 196 258 196 339 m 78 699 q 170 890 78 818 q 429 961 263 961 q 683 894 590 961 q 775 707 775 828 q 682 519 775 588 q 422 451 589 451 q 171 515 264 451 q 78 699 78 578 m 218 694 q 273 587 218 626 q 422 547 328 547 q 576 588 519 547 q 633 700 633 629 q 578 806 633 768 q 429 844 524 844 q 275 806 332 844 q 218 694 218 767 z "},"9":{"ha":851,"x_min":47,"x_max":783,"o":"m 404 964 q 688 840 592 964 q 783 490 783 717 q 761 294 783 386 q 691 133 739 203 q 565 25 643 64 q 376 -14 488 -14 q 222 12 283 -14 q 128 69 160 38 q 104 102 113 86 q 96 136 96 118 q 113 178 96 163 q 154 194 129 194 q 197 181 176 194 q 241 150 218 167 q 298 119 264 133 q 382 106 332 106 q 531 156 474 106 q 615 292 589 206 q 640 489 640 379 q 613 688 640 608 q 532 808 585 768 q 403 849 479 849 q 291 823 339 849 q 217 752 243 797 q 190 650 190 707 q 241 528 190 574 q 386 482 292 482 q 519 507 451 482 q 657 586 588 532 l 665 479 q 517 394 599 424 q 350 365 435 365 q 192 399 260 365 q 85 496 124 433 q 47 644 47 558 q 92 812 47 740 q 216 924 136 883 q 404 964 296 964 z "},"A":{"ha":951,"x_min":22,"x_max":929,"o":"m 22 0 l 367 867 q 412 938 385 914 q 476 961 439 961 q 542 938 515 961 q 588 867 569 914 l 929 0 l 779 0 l 453 858 l 500 858 l 172 0 l 22 0 m 231 242 l 231 363 l 725 363 l 725 242 l 231 242 z "},"Á":{"ha":951,"x_min":22,"x_max":929,"o":"m 22 0 l 367 867 q 412 938 385 914 q 476 961 439 961 q 542 938 515 961 q 588 867 569 914 l 929 0 l 779 0 l 453 858 l 500 858 l 172 0 l 22 0 m 231 242 l 231 363 l 725 363 l 725 242 l 231 242 m 525 1013 l 426 1013 l 492 1142 q 529 1194 510 1176 q 576 1211 549 1211 q 623 1196 607 1211 q 637 1158 639 1181 q 611 1111 635 1135 l 525 1013 z "},"Ă":{"ha":951,"x_min":22,"x_max":929,"o":"m 22 0 l 367 867 q 412 938 385 914 q 476 961 439 961 q 542 938 515 961 q 588 867 569 914 l 929 0 l 779 0 l 453 858 l 500 858 l 172 0 l 22 0 m 231 242 l 231 363 l 725 363 l 725 242 l 231 242 m 386 1194 q 406 1111 385 1139 q 476 1083 428 1083 q 547 1111 525 1083 q 565 1194 568 1139 l 649 1194 q 613 1049 660 1101 q 476 996 565 996 q 340 1049 386 996 q 303 1194 293 1101 l 386 1194 z "},"Â":{"ha":951,"x_min":22,"x_max":929,"o":"m 22 0 l 367 867 q 412 938 385 914 q 476 961 439 961 q 542 938 515 961 q 588 867 569 914 l 929 0 l 779 0 l 453 858 l 500 858 l 172 0 l 22 0 m 231 242 l 231 363 l 725 363 l 725 242 l 231 242 m 292 1013 l 390 1158 q 429 1199 410 1186 q 475 1211 449 1211 q 522 1199 503 1211 q 560 1157 540 1186 l 660 1013 l 569 1013 l 475 1115 l 382 1013 l 292 1013 z "},"Ä":{"ha":951,"x_min":22,"x_max":929,"o":"m 22 0 l 367 867 q 412 938 385 914 q 476 961 439 961 q 542 938 515 961 q 588 867 569 914 l 929 0 l 779 0 l 453 858 l 500 858 l 172 0 l 22 0 m 231 242 l 231 363 l 725 363 l 725 242 l 231 242 m 351 1063 q 295 1083 314 1063 q 276 1131 276 1103 q 295 1178 276 1158 q 351 1199 314 1199 q 406 1178 388 1199 q 425 1131 425 1158 q 406 1083 425 1103 q 351 1063 388 1063 m 600 1063 q 544 1083 563 1063 q 525 1131 525 1103 q 544 1178 525 1158 q 600 1199 563 1199 q 655 1178 636 1199 q 674 1131 674 1158 q 655 1083 674 1103 q 600 1063 636 1063 z "},"À":{"ha":951,"x_min":22,"x_max":929,"o":"m 22 0 l 367 867 q 412 938 385 914 q 476 961 439 961 q 542 938 515 961 q 588 867 569 914 l 929 0 l 779 0 l 453 858 l 500 858 l 172 0 l 22 0 m 231 242 l 231 363 l 725 363 l 725 242 l 231 242 m 426 1013 l 339 1111 q 314 1158 315 1135 q 328 1196 313 1181 q 374 1211 343 1211 q 422 1194 403 1211 q 460 1142 442 1176 l 525 1013 l 426 1013 z "},"Ā":{"ha":951,"x_min":22,"x_max":929,"o":"m 22 0 l 367 867 q 412 938 385 914 q 476 961 439 961 q 542 938 515 961 q 588 867 569 914 l 929 0 l 779 0 l 453 858 l 500 858 l 172 0 l 22 0 m 231 242 l 231 363 l 725 363 l 725 242 l 231 242 m 293 1169 l 658 1169 l 658 1079 l 293 1079 l 293 1169 z "},"Ą":{"ha":951,"x_min":22,"x_max":950,"o":"m 22 0 l 367 867 q 412 938 385 914 q 476 961 439 961 q 542 938 515 961 q 588 867 569 914 l 929 0 l 779 0 l 453 858 l 500 858 l 172 0 l 22 0 m 231 242 l 231 363 l 725 363 l 725 242 l 231 242 m 903 24 q 810 -62 839 -21 q 781 -142 781 -104 q 801 -192 781 -175 q 857 -210 822 -210 q 903 -203 881 -210 q 949 -186 926 -197 l 949 -267 q 894 -287 925 -279 q 829 -294 864 -294 q 715 -261 757 -294 q 672 -168 672 -228 q 712 -64 672 -110 q 818 22 751 -18 l 903 24 z "},"Å":{"ha":951,"x_min":22,"x_max":929,"o":"m 22 0 l 367 867 q 412 938 385 914 q 476 961 439 961 q 542 938 515 961 q 588 867 569 914 l 929 0 l 779 0 l 453 858 l 500 858 l 172 0 l 22 0 m 231 242 l 231 363 l 725 363 l 725 242 l 231 242 m 476 901 q 338 946 386 901 q 289 1057 289 990 q 338 1167 289 1124 q 476 1211 386 1211 q 615 1167 567 1211 q 664 1057 664 1124 q 615 946 664 990 q 476 901 567 901 m 476 979 q 544 999 518 979 q 571 1057 571 1019 q 544 1113 571 1093 q 476 1133 518 1133 q 408 1113 435 1133 q 382 1057 382 1093 q 408 999 382 1019 q 476 979 435 979 z "},"Ã":{"ha":951,"x_min":22,"x_max":929,"o":"m 22 0 l 367 867 q 412 938 385 914 q 476 961 439 961 q 542 938 515 961 q 588 867 569 914 l 929 0 l 779 0 l 453 858 l 500 858 l 172 0 l 22 0 m 231 242 l 231 363 l 725 363 l 725 242 l 231 242 m 572 1021 q 510 1036 536 1021 q 463 1072 483 1051 q 424 1109 443 1093 q 382 1125 404 1125 q 349 1103 360 1125 q 340 1029 339 1081 l 258 1029 q 284 1166 250 1117 q 378 1215 318 1215 q 440 1199 414 1215 q 486 1163 465 1183 q 526 1126 507 1142 q 568 1110 544 1110 q 597 1126 588 1110 q 607 1175 607 1143 q 617 1215 607 1200 q 647 1229 626 1229 q 683 1210 671 1229 q 696 1157 696 1190 q 663 1059 696 1097 q 572 1021 631 1021 z "},"Æ":{"ha":1419,"x_min":22,"x_max":1371,"o":"m 22 0 l 567 865 q 621 927 592 910 q 686 944 650 944 l 713 861 l 182 0 l 22 0 m 283 257 l 283 382 l 744 382 l 744 257 l 283 257 m 686 0 l 686 944 l 828 944 l 828 0 l 686 0 m 781 0 l 781 122 l 1371 122 l 1371 0 l 781 0 m 750 446 l 750 568 l 1246 568 q 1296 553 1276 568 q 1315 507 1315 538 q 1296 462 1315 478 q 1246 446 1276 446 l 750 446 m 781 822 l 781 944 l 1371 944 l 1371 822 l 781 822 z "},"B":{"ha":992,"x_min":126,"x_max":919,"o":"m 251 0 l 251 118 l 544 118 q 716 158 663 118 q 769 274 769 197 q 716 383 769 350 q 544 417 663 417 l 251 417 l 251 499 l 575 499 q 714 488 651 499 q 822 449 776 476 q 894 378 868 422 q 919 267 919 333 q 876 120 919 179 q 749 31 833 61 q 542 0 664 0 l 251 0 m 126 0 l 126 944 l 267 944 l 267 0 l 126 0 m 201 454 l 201 533 l 508 533 q 679 572 625 533 q 733 686 733 610 q 679 794 733 763 q 508 826 625 826 l 201 826 l 201 944 l 503 944 q 783 884 688 944 q 879 694 879 824 q 862 600 879 640 q 813 532 844 560 q 740 487 782 504 q 646 462 697 469 q 538 454 594 454 l 201 454 z "},"C":{"ha":928,"x_min":69,"x_max":883,"o":"m 553 -17 q 290 42 399 -17 q 126 209 182 101 q 69 461 69 317 q 125 717 69 604 q 288 896 181 831 q 546 961 394 961 q 727 931 653 961 q 842 858 801 900 q 873 819 863 839 q 883 776 883 799 q 866 731 883 747 q 822 714 849 714 q 774 733 796 714 q 724 776 751 751 q 656 819 697 800 q 543 838 614 838 q 365 790 438 838 q 256 660 293 743 q 218 469 218 576 q 258 281 218 363 q 376 153 297 199 q 571 107 454 107 q 722 127 649 107 q 863 183 794 147 l 863 61 q 731 6 808 29 q 553 -17 654 -17 z "},"Ć":{"ha":928,"x_min":69,"x_max":883,"o":"m 553 -17 q 290 42 399 -17 q 126 209 182 101 q 69 461 69 317 q 125 717 69 604 q 288 896 181 831 q 546 961 394 961 q 727 931 653 961 q 842 858 801 900 q 873 819 863 839 q 883 776 883 799 q 866 731 883 747 q 822 714 849 714 q 774 733 796 714 q 724 776 751 751 q 656 819 697 800 q 543 838 614 838 q 365 790 438 838 q 256 660 293 743 q 218 469 218 576 q 258 281 218 363 q 376 153 297 199 q 571 107 454 107 q 722 127 649 107 q 863 183 794 147 l 863 61 q 731 6 808 29 q 553 -17 654 -17 m 590 1013 l 492 1013 l 557 1142 q 594 1194 575 1176 q 642 1211 614 1211 q 688 1196 672 1211 q 702 1158 704 1181 q 676 1111 700 1135 l 590 1013 z "},"Č":{"ha":928,"x_min":69,"x_max":883,"o":"m 553 -17 q 290 42 399 -17 q 126 209 182 101 q 69 461 69 317 q 125 717 69 604 q 288 896 181 831 q 546 961 394 961 q 727 931 653 961 q 842 858 801 900 q 873 819 863 839 q 883 776 883 799 q 866 731 883 747 q 822 714 849 714 q 774 733 796 714 q 724 776 751 751 q 656 819 697 800 q 543 838 614 838 q 365 790 438 838 q 256 660 293 743 q 218 469 218 576 q 258 281 218 363 q 376 153 297 199 q 571 107 454 107 q 722 127 649 107 q 863 183 794 147 l 863 61 q 731 6 808 29 q 553 -17 654 -17 m 725 1194 l 625 1049 q 588 1008 607 1021 q 540 996 568 996 q 495 1008 514 996 q 456 1050 476 1021 l 357 1194 l 447 1194 l 540 1093 l 635 1194 l 725 1194 z "},"Ç":{"ha":928,"x_min":69,"x_max":883,"o":"m 553 -17 q 290 42 399 -17 q 126 209 182 101 q 69 461 69 317 q 125 717 69 604 q 288 896 181 831 q 546 961 394 961 q 727 931 653 961 q 842 858 801 900 q 873 819 863 839 q 883 776 883 799 q 866 731 883 747 q 822 714 849 714 q 774 733 796 714 q 724 776 751 751 q 656 819 697 800 q 543 838 614 838 q 365 790 438 838 q 256 660 293 743 q 218 469 218 576 q 258 281 218 363 q 376 153 297 199 q 571 107 454 107 q 722 127 649 107 q 863 183 794 147 l 863 61 q 731 6 808 29 q 553 -17 654 -17 m 601 -178 q 583 -147 601 -157 q 528 -136 564 -136 q 515 -136 522 -136 q 501 -136 508 -136 q 457 -124 468 -136 q 450 -81 446 -111 l 465 25 l 544 25 l 526 -106 l 490 -74 q 599 -72 556 -65 q 666 -94 642 -78 q 700 -131 690 -110 q 710 -176 710 -153 q 661 -267 710 -240 q 544 -294 613 -294 q 478 -287 510 -294 q 421 -269 446 -281 l 421 -199 q 474 -215 447 -208 q 529 -221 501 -221 q 582 -211 563 -221 q 601 -178 601 -201 z "},"Ĉ":{"ha":928,"x_min":69,"x_max":883,"o":"m 553 -17 q 290 42 399 -17 q 126 209 182 101 q 69 461 69 317 q 125 717 69 604 q 288 896 181 831 q 546 961 394 961 q 727 931 653 961 q 842 858 801 900 q 873 819 863 839 q 883 776 883 799 q 866 731 883 747 q 822 714 849 714 q 774 733 796 714 q 724 776 751 751 q 656 819 697 800 q 543 838 614 838 q 365 790 438 838 q 256 660 293 743 q 218 469 218 576 q 258 281 218 363 q 376 153 297 199 q 571 107 454 107 q 722 127 649 107 q 863 183 794 147 l 863 61 q 731 6 808 29 q 553 -17 654 -17 m 357 1013 l 456 1158 q 494 1199 475 1186 q 540 1211 514 1211 q 587 1199 568 1211 q 625 1157 606 1186 l 725 1013 l 635 1013 l 540 1115 l 447 1013 l 357 1013 z "},"Ċ":{"ha":928,"x_min":69,"x_max":883,"o":"m 553 -17 q 290 42 399 -17 q 126 209 182 101 q 69 461 69 317 q 125 717 69 604 q 288 896 181 831 q 546 961 394 961 q 727 931 653 961 q 842 858 801 900 q 873 819 863 839 q 883 776 883 799 q 866 731 883 747 q 822 714 849 714 q 774 733 796 714 q 724 776 751 751 q 656 819 697 800 q 543 838 614 838 q 365 790 438 838 q 256 660 293 743 q 218 469 218 576 q 258 281 218 363 q 376 153 297 199 q 571 107 454 107 q 722 127 649 107 q 863 183 794 147 l 863 61 q 731 6 808 29 q 553 -17 654 -17 m 542 1054 q 477 1075 499 1054 q 456 1126 456 1096 q 477 1177 456 1156 q 542 1199 499 1199 q 605 1177 583 1199 q 626 1126 626 1156 q 605 1075 626 1096 q 542 1054 583 1054 z "},"D":{"ha":1039,"x_min":126,"x_max":969,"o":"m 268 944 l 268 0 l 126 0 l 126 944 l 268 944 m 203 0 l 203 125 l 431 125 q 650 168 564 125 q 778 292 736 211 q 819 483 819 372 q 722 738 819 656 q 431 819 625 819 l 203 819 l 203 944 l 439 944 q 838 822 707 944 q 969 483 969 699 q 913 231 969 340 q 740 61 856 122 q 443 0 624 0 l 203 0 z "},"Ď":{"ha":1039,"x_min":126,"x_max":969,"o":"m 268 944 l 268 0 l 126 0 l 126 944 l 268 944 m 203 0 l 203 125 l 431 125 q 650 168 564 125 q 778 292 736 211 q 819 483 819 372 q 722 738 819 656 q 431 819 625 819 l 203 819 l 203 944 l 439 944 q 838 822 707 944 q 969 483 969 699 q 913 231 969 340 q 740 61 856 122 q 443 0 624 0 l 203 0 m 660 1194 l 560 1049 q 522 1008 542 1021 q 475 996 503 996 q 430 1008 449 996 q 390 1050 411 1021 l 292 1194 l 382 1194 l 475 1093 l 569 1194 l 660 1194 z "},"Đ":{"ha":1046,"x_min":7,"x_max":976,"o":"m 7 532 l 569 532 l 569 439 l 7 439 l 7 532 m 275 944 l 275 0 l 133 0 l 133 944 l 275 944 m 210 0 l 210 125 l 438 125 q 658 168 572 125 q 785 292 743 211 q 828 483 828 372 q 731 738 828 656 q 438 819 633 819 l 210 819 l 210 944 l 447 944 q 845 822 714 944 q 976 483 976 699 q 919 231 976 340 q 747 61 863 122 q 450 0 631 0 l 210 0 z "},"Ð":{"ha":1046,"x_min":7,"x_max":976,"o":"m 7 532 l 569 532 l 569 439 l 7 439 l 7 532 m 275 944 l 275 0 l 133 0 l 133 944 l 275 944 m 210 0 l 210 125 l 438 125 q 658 168 572 125 q 785 292 743 211 q 828 483 828 372 q 731 738 828 656 q 438 819 633 819 l 210 819 l 210 944 l 447 944 q 845 822 714 944 q 976 483 976 699 q 919 231 976 340 q 747 61 863 122 q 450 0 631 0 l 210 0 z "},"E":{"ha":860,"x_min":126,"x_max":811,"o":"m 126 0 l 126 944 l 268 944 l 268 0 l 126 0 m 221 0 l 221 122 l 811 122 l 811 0 l 221 0 m 190 446 l 190 568 l 685 568 q 736 553 717 568 q 756 507 756 538 q 736 462 756 478 q 685 446 717 446 l 190 446 m 221 822 l 221 944 l 811 944 l 811 822 l 221 822 z "},"É":{"ha":860,"x_min":126,"x_max":811,"o":"m 126 0 l 126 944 l 268 944 l 268 0 l 126 0 m 221 0 l 221 122 l 811 122 l 811 0 l 221 0 m 190 446 l 190 568 l 685 568 q 736 553 717 568 q 756 507 756 538 q 736 462 756 478 q 685 446 717 446 l 190 446 m 221 822 l 221 944 l 811 944 l 811 822 l 221 822 m 526 1013 l 428 1013 l 493 1142 q 531 1194 511 1176 q 578 1211 550 1211 q 624 1196 608 1211 q 638 1158 640 1181 q 613 1111 636 1135 l 526 1013 z "},"Ě":{"ha":860,"x_min":126,"x_max":811,"o":"m 126 0 l 126 944 l 268 944 l 268 0 l 126 0 m 221 0 l 221 122 l 811 122 l 811 0 l 221 0 m 190 446 l 190 568 l 685 568 q 736 553 717 568 q 756 507 756 538 q 736 462 756 478 q 685 446 717 446 l 190 446 m 221 822 l 221 944 l 811 944 l 811 822 l 221 822 m 661 1194 l 561 1049 q 524 1008 543 1021 q 476 996 504 996 q 431 1008 450 996 q 392 1050 413 1021 l 293 1194 l 383 1194 l 476 1093 l 571 1194 l 661 1194 z "},"Ê":{"ha":860,"x_min":126,"x_max":811,"o":"m 126 0 l 126 944 l 268 944 l 268 0 l 126 0 m 221 0 l 221 122 l 811 122 l 811 0 l 221 0 m 190 446 l 190 568 l 685 568 q 736 553 717 568 q 756 507 756 538 q 736 462 756 478 q 685 446 717 446 l 190 446 m 221 822 l 221 944 l 811 944 l 811 822 l 221 822 m 293 1013 l 392 1158 q 431 1199 411 1186 q 476 1211 450 1211 q 523 1199 504 1211 q 561 1157 542 1186 l 661 1013 l 571 1013 l 476 1115 l 383 1013 l 293 1013 z "},"Ë":{"ha":860,"x_min":126,"x_max":811,"o":"m 126 0 l 126 944 l 268 944 l 268 0 l 126 0 m 221 0 l 221 122 l 811 122 l 811 0 l 221 0 m 190 446 l 190 568 l 685 568 q 736 553 717 568 q 756 507 756 538 q 736 462 756 478 q 685 446 717 446 l 190 446 m 221 822 l 221 944 l 811 944 l 811 822 l 221 822 m 353 1063 q 297 1083 315 1063 q 278 1131 278 1103 q 297 1178 278 1158 q 353 1199 315 1199 q 408 1178 389 1199 q 426 1131 426 1158 q 408 1083 426 1103 q 353 1063 389 1063 m 601 1063 q 545 1083 564 1063 q 526 1131 526 1103 q 545 1178 526 1158 q 601 1199 564 1199 q 656 1178 638 1199 q 675 1131 675 1158 q 656 1083 675 1103 q 601 1063 638 1063 z "},"Ė":{"ha":860,"x_min":126,"x_max":811,"o":"m 126 0 l 126 944 l 268 944 l 268 0 l 126 0 m 221 0 l 221 122 l 811 122 l 811 0 l 221 0 m 190 446 l 190 568 l 685 568 q 736 553 717 568 q 756 507 756 538 q 736 462 756 478 q 685 446 717 446 l 190 446 m 221 822 l 221 944 l 811 944 l 811 822 l 221 822 m 478 1054 q 413 1075 435 1054 q 392 1126 392 1096 q 413 1177 392 1156 q 478 1199 435 1199 q 541 1177 519 1199 q 563 1126 563 1156 q 541 1075 563 1096 q 478 1054 519 1054 z "},"È":{"ha":860,"x_min":126,"x_max":811,"o":"m 126 0 l 126 944 l 268 944 l 268 0 l 126 0 m 221 0 l 221 122 l 811 122 l 811 0 l 221 0 m 190 446 l 190 568 l 685 568 q 736 553 717 568 q 756 507 756 538 q 736 462 756 478 q 685 446 717 446 l 190 446 m 221 822 l 221 944 l 811 944 l 811 822 l 221 822 m 428 1013 l 340 1111 q 315 1158 317 1135 q 329 1196 314 1181 q 375 1211 344 1211 q 424 1194 404 1211 q 461 1142 443 1176 l 526 1013 l 428 1013 z "},"Ē":{"ha":860,"x_min":126,"x_max":811,"o":"m 126 0 l 126 944 l 268 944 l 268 0 l 126 0 m 221 0 l 221 122 l 811 122 l 811 0 l 221 0 m 190 446 l 190 568 l 685 568 q 736 553 717 568 q 756 507 756 538 q 736 462 756 478 q 685 446 717 446 l 190 446 m 221 822 l 221 944 l 811 944 l 811 822 l 221 822 m 294 1169 l 660 1169 l 660 1079 l 294 1079 l 294 1169 z "},"Ę":{"ha":860,"x_min":126,"x_max":811,"o":"m 126 0 l 126 944 l 268 944 l 268 0 l 126 0 m 221 0 l 221 122 l 811 122 l 811 0 l 221 0 m 190 446 l 190 568 l 685 568 q 736 553 717 568 q 756 507 756 538 q 736 462 756 478 q 685 446 717 446 l 190 446 m 221 822 l 221 944 l 811 944 l 811 822 l 221 822 m 764 24 q 671 -62 700 -21 q 642 -142 642 -104 q 663 -192 642 -175 q 718 -210 683 -210 q 765 -203 742 -210 q 810 -186 788 -197 l 810 -267 q 756 -287 786 -279 q 690 -294 725 -294 q 576 -261 618 -294 q 533 -168 533 -228 q 573 -64 533 -110 q 679 22 613 -18 l 764 24 z "},"Ẽ":{"ha":860,"x_min":126,"x_max":811,"o":"m 126 0 l 126 944 l 268 944 l 268 0 l 126 0 m 221 0 l 221 122 l 811 122 l 811 0 l 221 0 m 190 446 l 190 568 l 685 568 q 736 553 717 568 q 756 507 756 538 q 736 462 756 478 q 685 446 717 446 l 190 446 m 221 822 l 221 944 l 811 944 l 811 822 l 221 822 m 572 1021 q 510 1036 536 1021 q 463 1072 483 1051 q 424 1109 443 1093 q 382 1125 404 1125 q 349 1103 360 1125 q 340 1029 339 1081 l 258 1029 q 284 1166 250 1117 q 378 1215 318 1215 q 440 1199 414 1215 q 486 1163 465 1183 q 526 1126 507 1142 q 568 1110 544 1110 q 597 1126 588 1110 q 607 1175 607 1143 q 617 1215 607 1200 q 647 1229 626 1229 q 683 1210 671 1229 q 696 1157 696 1190 q 663 1059 696 1097 q 572 1021 631 1021 z "},"F":{"ha":843,"x_min":126,"x_max":807,"o":"m 126 0 l 126 944 l 268 944 l 268 0 l 126 0 m 193 432 l 193 554 l 685 554 q 736 539 717 554 q 756 493 756 524 q 736 448 756 464 q 685 432 717 432 l 193 432 m 181 822 l 181 944 l 807 944 l 807 822 l 181 822 z "},"G":{"ha":1042,"x_min":69,"x_max":996,"o":"m 554 -17 q 291 42 399 -17 q 126 209 183 101 q 69 461 69 317 q 127 717 69 604 q 297 896 185 831 q 569 961 408 961 q 701 947 642 961 q 807 910 761 933 q 881 858 853 888 q 911 819 900 839 q 922 776 922 799 q 906 733 922 749 q 863 717 889 717 q 813 735 835 717 q 762 778 790 754 q 687 820 733 801 q 564 839 640 839 q 372 792 449 839 q 256 660 294 744 q 218 467 218 576 q 256 275 218 357 q 369 148 294 193 q 554 103 443 103 q 761 176 690 103 q 835 388 832 250 l 539 388 l 539 501 l 982 501 q 886 113 996 242 q 554 -17 776 -17 z "},"Ğ":{"ha":1042,"x_min":69,"x_max":996,"o":"m 554 -17 q 291 42 399 -17 q 126 209 183 101 q 69 461 69 317 q 127 717 69 604 q 297 896 185 831 q 569 961 408 961 q 701 947 642 961 q 807 910 761 933 q 881 858 853 888 q 911 819 900 839 q 922 776 922 799 q 906 733 922 749 q 863 717 889 717 q 813 735 835 717 q 762 778 790 754 q 687 820 733 801 q 564 839 640 839 q 372 792 449 839 q 256 660 294 744 q 218 467 218 576 q 256 275 218 357 q 369 148 294 193 q 554 103 443 103 q 761 176 690 103 q 835 388 832 250 l 539 388 l 539 501 l 982 501 q 886 113 996 242 q 554 -17 776 -17 m 469 1194 q 490 1111 468 1139 q 560 1083 511 1083 q 630 1111 608 1083 q 649 1194 651 1139 l 732 1194 q 696 1049 743 1101 q 560 996 649 996 q 423 1049 469 996 q 386 1194 376 1101 l 469 1194 z "},"Ĝ":{"ha":1042,"x_min":69,"x_max":996,"o":"m 554 -17 q 291 42 399 -17 q 126 209 183 101 q 69 461 69 317 q 127 717 69 604 q 297 896 185 831 q 569 961 408 961 q 701 947 642 961 q 807 910 761 933 q 881 858 853 888 q 911 819 900 839 q 922 776 922 799 q 906 733 922 749 q 863 717 889 717 q 813 735 835 717 q 762 778 790 754 q 687 820 733 801 q 564 839 640 839 q 372 792 449 839 q 256 660 294 744 q 218 467 218 576 q 256 275 218 357 q 369 148 294 193 q 554 103 443 103 q 761 176 690 103 q 835 388 832 250 l 539 388 l 539 501 l 982 501 q 886 113 996 242 q 554 -17 776 -17 m 375 1013 l 474 1158 q 513 1199 493 1186 q 558 1211 532 1211 q 605 1199 586 1211 q 643 1157 624 1186 l 743 1013 l 653 1013 l 558 1115 l 465 1013 l 375 1013 z "},"Ģ":{"ha":1042,"x_min":69,"x_max":996,"o":"m 554 -17 q 291 42 399 -17 q 126 209 183 101 q 69 461 69 317 q 127 717 69 604 q 297 896 185 831 q 569 961 408 961 q 701 947 642 961 q 807 910 761 933 q 881 858 853 888 q 911 819 900 839 q 922 776 922 799 q 906 733 922 749 q 863 717 889 717 q 813 735 835 717 q 762 778 790 754 q 687 820 733 801 q 564 839 640 839 q 372 792 449 839 q 256 660 294 744 q 218 467 218 576 q 256 275 218 357 q 369 148 294 193 q 554 103 443 103 q 761 176 690 103 q 835 388 832 250 l 539 388 l 539 501 l 982 501 q 886 113 996 242 q 554 -17 776 -17 m 515 -278 q 547 -204 539 -240 q 547 -131 554 -168 l 614 -168 q 550 -173 576 -176 q 510 -155 524 -169 q 496 -119 496 -140 q 517 -75 496 -93 q 581 -57 539 -57 q 642 -74 617 -57 q 667 -128 667 -92 q 647 -201 667 -164 q 596 -278 628 -239 l 515 -278 z "},"Ġ":{"ha":1042,"x_min":69,"x_max":996,"o":"m 554 -17 q 291 42 399 -17 q 126 209 183 101 q 69 461 69 317 q 127 717 69 604 q 297 896 185 831 q 569 961 408 961 q 701 947 642 961 q 807 910 761 933 q 881 858 853 888 q 911 819 900 839 q 922 776 922 799 q 906 733 922 749 q 863 717 889 717 q 813 735 835 717 q 762 778 790 754 q 687 820 733 801 q 564 839 640 839 q 372 792 449 839 q 256 660 294 744 q 218 467 218 576 q 256 275 218 357 q 369 148 294 193 q 554 103 443 103 q 761 176 690 103 q 835 388 832 250 l 539 388 l 539 501 l 982 501 q 886 113 996 242 q 554 -17 776 -17 m 560 1054 q 495 1075 517 1054 q 474 1126 474 1096 q 495 1177 474 1156 q 560 1199 517 1199 q 623 1177 601 1199 q 644 1126 644 1156 q 623 1075 644 1096 q 560 1054 601 1054 z "},"Ḡ":{"ha":1042,"x_min":69,"x_max":996,"o":"m 554 -17 q 291 42 399 -17 q 126 209 183 101 q 69 461 69 317 q 127 717 69 604 q 297 896 185 831 q 569 961 408 961 q 701 947 642 961 q 807 910 761 933 q 881 858 853 888 q 911 819 900 839 q 922 776 922 799 q 906 733 922 749 q 863 717 889 717 q 813 735 835 717 q 762 778 790 754 q 687 820 733 801 q 564 839 640 839 q 372 792 449 839 q 256 660 294 744 q 218 467 218 576 q 256 275 218 357 q 369 148 294 193 q 554 103 443 103 q 761 176 690 103 q 835 388 832 250 l 539 388 l 539 501 l 982 501 q 886 113 996 242 q 554 -17 776 -17 m 376 1169 l 742 1169 l 742 1079 l 376 1079 l 376 1169 z "},"H":{"ha":1036,"x_min":126,"x_max":910,"o":"m 768 0 l 768 944 l 910 944 l 910 0 l 768 0 m 126 0 l 126 944 l 268 944 l 268 0 l 126 0 m 181 447 l 181 572 l 835 572 l 835 447 l 181 447 z "},"Ħ":{"ha":1054,"x_min":7,"x_max":1047,"o":"m 7 821 l 1047 821 l 1047 728 l 7 728 l 7 821 m 775 0 l 775 944 l 917 944 l 917 0 l 775 0 m 133 0 l 133 944 l 275 944 l 275 0 l 133 0 m 189 447 l 189 572 l 843 572 l 843 447 l 189 447 z "},"Ĥ":{"ha":1036,"x_min":126,"x_max":910,"o":"m 768 0 l 768 944 l 910 944 l 910 0 l 768 0 m 126 0 l 126 944 l 268 944 l 268 0 l 126 0 m 181 447 l 181 572 l 835 572 l 835 447 l 181 447 m 333 1013 l 432 1158 q 471 1199 451 1186 q 517 1211 490 1211 q 563 1199 544 1211 q 601 1157 582 1186 l 701 1013 l 611 1013 l 517 1115 l 424 1013 l 333 1013 z "},"I":{"ha":393,"x_min":126,"x_max":267,"o":"m 126 0 l 126 944 l 267 944 l 267 0 l 126 0 z "},"Ĳ":{"ha":1061,"x_min":126,"x_max":949,"o":"m 126 0 l 126 944 l 267 944 l 267 0 l 126 0 m 667 -17 q 574 -7 617 -17 q 500 18 532 3 q 422 106 422 51 q 438 146 422 131 q 476 161 453 161 q 524 148 500 161 q 581 122 549 135 q 660 108 613 108 q 735 124 701 108 q 790 176 769 139 q 810 281 810 214 l 810 944 l 949 944 l 949 268 q 910 103 949 167 q 808 12 872 40 q 667 -17 744 -17 m 450 819 l 450 944 l 949 944 l 949 819 l 450 819 z "},"Í":{"ha":393,"x_min":126,"x_max":361,"o":"m 126 0 l 126 944 l 267 944 l 267 0 l 126 0 m 247 1013 l 149 1013 l 214 1142 q 251 1194 232 1176 q 299 1211 271 1211 q 345 1196 329 1211 q 359 1158 361 1181 q 333 1111 357 1135 l 247 1013 z "},"Î":{"ha":393,"x_min":13,"x_max":382,"o":"m 126 0 l 126 944 l 267 944 l 267 0 l 126 0 m 14 1013 l 113 1158 q 151 1199 132 1186 q 197 1211 171 1211 q 244 1199 225 1211 q 282 1157 263 1186 l 382 1013 l 292 1013 l 197 1115 l 104 1013 l 14 1013 z "},"Ï":{"ha":393,"x_min":-3,"x_max":394,"o":"m 126 0 l 126 944 l 267 944 l 267 0 l 126 0 m 72 1063 q 16 1083 35 1063 q -3 1131 -3 1103 q 16 1178 -3 1158 q 72 1199 35 1199 q 127 1178 108 1199 q 146 1131 146 1158 q 127 1083 146 1103 q 72 1063 108 1063 m 321 1063 q 265 1083 283 1063 q 246 1131 246 1103 q 265 1178 246 1158 q 321 1199 283 1199 q 376 1178 357 1199 q 394 1131 394 1158 q 376 1083 394 1103 q 321 1063 357 1063 z "},"İ":{"ha":393,"x_min":113,"x_max":282,"o":"m 126 0 l 126 944 l 267 944 l 267 0 l 126 0 m 197 1054 q 133 1075 154 1054 q 111 1126 111 1096 q 133 1177 111 1156 q 197 1199 154 1199 q 260 1177 239 1199 q 282 1126 282 1156 q 260 1075 282 1096 q 197 1054 239 1054 z "},"Ì":{"ha":393,"x_min":33,"x_max":267,"o":"m 126 0 l 126 944 l 267 944 l 267 0 l 126 0 m 149 1013 l 61 1111 q 36 1158 38 1135 q 50 1196 35 1181 q 96 1211 65 1211 q 144 1194 125 1211 q 182 1142 164 1176 l 247 1013 l 149 1013 z "},"Ī":{"ha":393,"x_min":14,"x_max":379,"o":"m 126 0 l 126 944 l 267 944 l 267 0 l 126 0 m 14 1169 l 379 1169 l 379 1079 l 14 1079 l 14 1169 z "},"Į":{"ha":393,"x_min":31,"x_max":307,"o":"m 126 0 l 126 944 l 267 944 l 267 0 l 126 0 m 261 24 q 168 -62 197 -21 q 139 -142 139 -104 q 160 -192 139 -175 q 215 -210 181 -210 q 262 -203 239 -210 q 307 -186 285 -197 l 307 -267 q 253 -287 283 -279 q 188 -294 222 -294 q 73 -261 115 -294 q 31 -168 31 -228 q 70 -64 31 -110 q 176 22 110 -18 l 261 24 z "},"Ĩ":{"ha":393,"x_min":-29,"x_max":417,"o":"m 126 0 l 126 944 l 267 944 l 267 0 l 126 0 m 293 1021 q 231 1036 257 1021 q 184 1072 204 1051 q 144 1109 164 1093 q 103 1125 125 1125 q 70 1103 81 1125 q 61 1029 60 1081 l -21 1029 q 5 1166 -29 1117 q 99 1215 39 1215 q 160 1199 135 1215 q 207 1163 186 1183 q 247 1126 228 1142 q 289 1110 265 1110 q 318 1126 308 1110 q 328 1175 328 1143 q 338 1215 328 1200 q 368 1229 347 1229 q 404 1210 392 1229 q 417 1157 417 1190 q 384 1059 417 1097 q 293 1021 351 1021 z "},"J":{"ha":696,"x_min":57,"x_max":583,"o":"m 301 -17 q 209 -7 251 -17 q 135 18 167 3 q 57 106 57 51 q 72 146 57 131 q 111 161 88 161 q 159 148 135 161 q 215 122 183 135 q 294 108 247 108 q 370 124 336 108 q 424 176 404 139 q 444 281 444 214 l 444 944 l 583 944 l 583 268 q 545 103 583 167 q 443 12 507 40 q 301 -17 379 -17 m 85 819 l 85 944 l 583 944 l 583 819 l 85 819 z "},"Ĵ":{"ha":696,"x_min":57,"x_max":583,"o":"m 301 -17 q 209 -7 251 -17 q 135 18 167 3 q 57 106 57 51 q 72 146 57 131 q 111 161 88 161 q 159 148 135 161 q 215 122 183 135 q 294 108 247 108 q 370 124 336 108 q 424 176 404 139 q 444 281 444 214 l 444 944 l 583 944 l 583 268 q 545 103 583 167 q 443 12 507 40 q 301 -17 379 -17 m 85 819 l 85 944 l 583 944 l 583 819 l 85 819 m 149 1013 l 247 1158 q 286 1199 267 1186 q 332 1211 306 1211 q 378 1199 360 1211 q 417 1157 397 1186 l 517 1013 l 426 1013 l 332 1115 l 239 1013 l 149 1013 z "},"K":{"ha":896,"x_min":126,"x_max":858,"o":"m 268 944 l 268 0 l 126 0 l 126 944 l 268 944 m 221 485 l 665 911 q 705 944 686 933 q 746 954 724 954 q 791 938 774 954 q 808 893 808 921 q 799 858 808 875 q 771 822 789 840 l 353 436 l 369 526 l 858 0 l 671 0 l 221 485 z "},"Ķ":{"ha":896,"x_min":126,"x_max":858,"o":"m 268 944 l 268 0 l 126 0 l 126 944 l 268 944 m 221 485 l 665 911 q 705 944 686 933 q 746 954 724 954 q 791 938 774 954 q 808 893 808 921 q 799 858 808 875 q 771 822 789 840 l 353 436 l 369 526 l 858 0 l 671 0 l 221 485 m 432 -278 q 463 -204 456 -240 q 464 -131 471 -168 l 531 -168 q 467 -173 493 -176 q 426 -155 440 -169 q 413 -119 413 -140 q 434 -75 413 -93 q 497 -57 456 -57 q 558 -74 533 -57 q 583 -128 583 -92 q 564 -201 583 -164 q 513 -278 544 -239 l 432 -278 z "},"L":{"ha":839,"x_min":126,"x_max":811,"o":"m 126 0 l 126 944 l 268 944 l 268 0 l 126 0 m 183 0 l 183 125 l 811 125 l 811 0 l 183 0 z "},"Ĺ":{"ha":839,"x_min":126,"x_max":811,"o":"m 126 0 l 126 944 l 268 944 l 268 0 l 126 0 m 183 0 l 183 125 l 811 125 l 811 0 l 183 0 m 249 1013 l 150 1013 l 215 1142 q 253 1194 233 1176 q 300 1211 272 1211 q 347 1196 331 1211 q 360 1158 363 1181 q 335 1111 358 1135 l 249 1013 z "},"Ľ":{"ha":839,"x_min":126,"x_max":811,"o":"m 126 0 l 126 944 l 268 944 l 268 0 l 126 0 m 183 0 l 183 125 l 811 125 l 811 0 l 183 0 m 354 753 l 369 908 q 396 979 375 961 q 443 997 417 997 q 486 982 472 997 q 501 940 500 967 q 488 882 501 914 l 442 753 l 354 753 z "},"Ļ":{"ha":839,"x_min":126,"x_max":811,"o":"m 126 0 l 126 944 l 268 944 l 268 0 l 126 0 m 183 0 l 183 125 l 811 125 l 811 0 l 183 0 m 414 -278 q 445 -204 438 -240 q 446 -131 453 -168 l 513 -168 q 449 -173 475 -176 q 408 -155 422 -169 q 394 -119 394 -140 q 416 -75 394 -93 q 479 -57 438 -57 q 540 -74 515 -57 q 565 -128 565 -92 q 546 -201 565 -164 q 494 -278 526 -239 l 414 -278 z "},"Ł":{"ha":839,"x_min":15,"x_max":811,"o":"m 126 0 l 126 944 l 268 944 l 268 0 l 126 0 m 183 0 l 183 125 l 811 125 l 811 0 l 183 0 m 15 469 l 421 608 l 421 510 l 15 371 l 15 469 z "},"M":{"ha":1240,"x_min":126,"x_max":1114,"o":"m 921 893 q 969 944 946 928 q 1024 961 993 961 q 1090 931 1065 961 q 1114 843 1114 901 l 1114 0 l 979 0 l 979 814 l 1021 813 l 619 228 l 219 813 l 261 814 l 261 0 l 126 0 l 126 843 q 151 932 126 903 q 221 961 176 961 q 275 944 251 961 q 324 893 299 928 l 654 411 l 589 411 l 921 893 z "},"N":{"ha":1040,"x_min":126,"x_max":914,"o":"m 126 0 l 126 849 q 151 928 126 901 q 215 954 175 954 q 273 937 247 954 q 324 882 299 919 l 844 139 l 782 132 l 782 944 l 914 944 l 914 0 l 775 0 l 208 807 l 258 815 l 258 0 l 126 0 z "},"Ń":{"ha":1040,"x_min":126,"x_max":914,"o":"m 126 0 l 126 849 q 151 928 126 901 q 215 954 175 954 q 273 937 247 954 q 324 882 299 919 l 844 139 l 782 132 l 782 944 l 914 944 l 914 0 l 775 0 l 208 807 l 258 815 l 258 0 l 126 0 m 585 1013 l 486 1013 l 551 1142 q 589 1194 569 1176 q 636 1211 608 1211 q 683 1196 667 1211 q 697 1158 699 1181 q 671 1111 694 1135 l 585 1013 z "},"Ň":{"ha":1040,"x_min":126,"x_max":914,"o":"m 126 0 l 126 849 q 151 928 126 901 q 215 954 175 954 q 273 937 247 954 q 324 882 299 919 l 844 139 l 782 132 l 782 944 l 914 944 l 914 0 l 775 0 l 208 807 l 258 815 l 258 0 l 126 0 m 719 1194 l 619 1049 q 582 1008 601 1021 q 535 996 563 996 q 490 1008 508 996 q 450 1050 471 1021 l 351 1194 l 442 1194 l 535 1093 l 629 1194 l 719 1194 z "},"Ņ":{"ha":1040,"x_min":126,"x_max":914,"o":"m 126 0 l 126 849 q 151 928 126 901 q 215 954 175 954 q 273 937 247 954 q 324 882 299 919 l 844 139 l 782 132 l 782 944 l 914 944 l 914 0 l 775 0 l 208 807 l 258 815 l 258 0 l 126 0 m 456 -278 q 487 -204 479 -240 q 488 -131 494 -168 l 554 -168 q 490 -173 517 -176 q 450 -155 464 -169 q 436 -119 436 -140 q 458 -75 436 -93 q 521 -57 479 -57 q 582 -74 557 -57 q 607 -128 607 -92 q 588 -201 607 -164 q 536 -278 568 -239 l 456 -278 z "},"Ñ":{"ha":1040,"x_min":126,"x_max":914,"o":"m 126 0 l 126 849 q 151 928 126 901 q 215 954 175 954 q 273 937 247 954 q 324 882 299 919 l 844 139 l 782 132 l 782 944 l 914 944 l 914 0 l 775 0 l 208 807 l 258 815 l 258 0 l 126 0 m 631 1021 q 568 1036 594 1021 q 522 1072 542 1051 q 482 1109 501 1093 q 440 1125 463 1125 q 408 1103 418 1125 q 399 1029 397 1081 l 317 1029 q 342 1166 308 1117 q 436 1215 376 1215 q 498 1199 472 1215 q 544 1163 524 1183 q 584 1126 565 1142 q 626 1110 603 1110 q 656 1126 646 1110 q 665 1175 665 1143 q 675 1215 665 1200 q 706 1229 685 1229 q 742 1210 729 1229 q 754 1157 754 1190 q 722 1059 754 1097 q 631 1021 689 1021 z "},"Ŋ":{"ha":1040,"x_min":126,"x_max":914,"o":"m 707 -294 q 615 -274 651 -294 q 579 -217 579 -254 q 591 -183 579 -197 q 626 -168 603 -168 q 660 -176 644 -168 q 700 -183 676 -183 q 758 -158 733 -183 q 783 -75 783 -133 l 783 47 l 815 -58 l 257 735 l 914 42 l 914 -78 q 888 -198 914 -150 q 815 -270 861 -246 q 707 -294 768 -294 m 126 0 l 126 849 q 151 928 126 901 q 215 954 175 954 q 273 937 247 954 q 324 882 299 919 l 844 139 l 782 132 l 782 944 l 914 944 l 914 0 l 775 0 l 208 807 l 258 815 l 258 0 l 126 0 z "},"O":{"ha":1086,"x_min":69,"x_max":1015,"o":"m 69 460 q 127 719 69 606 q 292 897 185 832 q 547 961 399 961 q 799 901 694 961 q 960 733 904 840 q 1015 485 1015 626 q 958 226 1015 339 q 794 48 901 113 q 538 -17 688 -17 q 288 43 393 -17 q 126 210 182 103 q 69 460 69 318 m 218 464 q 258 275 218 356 q 370 151 299 194 q 540 107 442 107 q 716 154 643 107 q 828 286 789 201 q 867 481 867 371 q 827 668 867 588 q 715 793 788 749 q 546 838 643 838 q 370 790 443 838 q 258 658 297 743 q 218 464 218 574 z "},"Ó":{"ha":1086,"x_min":69,"x_max":1015,"o":"m 69 460 q 127 719 69 606 q 292 897 185 832 q 547 961 399 961 q 799 901 694 961 q 960 733 904 840 q 1015 485 1015 626 q 958 226 1015 339 q 794 48 901 113 q 538 -17 688 -17 q 288 43 393 -17 q 126 210 182 103 q 69 460 69 318 m 218 464 q 258 275 218 356 q 370 151 299 194 q 540 107 442 107 q 716 154 643 107 q 828 286 789 201 q 867 481 867 371 q 827 668 867 588 q 715 793 788 749 q 546 838 643 838 q 370 790 443 838 q 258 658 297 743 q 218 464 218 574 m 594 1013 l 496 1013 l 561 1142 q 599 1194 579 1176 q 646 1211 618 1211 q 692 1196 676 1211 q 706 1158 708 1181 q 681 1111 704 1135 l 594 1013 z "},"Ô":{"ha":1086,"x_min":69,"x_max":1015,"o":"m 69 460 q 127 719 69 606 q 292 897 185 832 q 547 961 399 961 q 799 901 694 961 q 960 733 904 840 q 1015 485 1015 626 q 958 226 1015 339 q 794 48 901 113 q 538 -17 688 -17 q 288 43 393 -17 q 126 210 182 103 q 69 460 69 318 m 218 464 q 258 275 218 356 q 370 151 299 194 q 540 107 442 107 q 716 154 643 107 q 828 286 789 201 q 867 481 867 371 q 827 668 867 588 q 715 793 788 749 q 546 838 643 838 q 370 790 443 838 q 258 658 297 743 q 218 464 218 574 m 361 1013 l 460 1158 q 499 1199 479 1186 q 544 1211 518 1211 q 591 1199 572 1211 q 629 1157 610 1186 l 729 1013 l 639 1013 l 544 1115 l 451 1013 l 361 1013 z "},"Ö":{"ha":1086,"x_min":69,"x_max":1015,"o":"m 69 460 q 127 719 69 606 q 292 897 185 832 q 547 961 399 961 q 799 901 694 961 q 960 733 904 840 q 1015 485 1015 626 q 958 226 1015 339 q 794 48 901 113 q 538 -17 688 -17 q 288 43 393 -17 q 126 210 182 103 q 69 460 69 318 m 218 464 q 258 275 218 356 q 370 151 299 194 q 540 107 442 107 q 716 154 643 107 q 828 286 789 201 q 867 481 867 371 q 827 668 867 588 q 715 793 788 749 q 546 838 643 838 q 370 790 443 838 q 258 658 297 743 q 218 464 218 574 m 421 1063 q 365 1083 383 1063 q 346 1131 346 1103 q 365 1178 346 1158 q 421 1199 383 1199 q 476 1178 457 1199 q 494 1131 494 1158 q 476 1083 494 1103 q 421 1063 457 1063 m 669 1063 q 613 1083 632 1063 q 594 1131 594 1103 q 613 1178 594 1158 q 669 1199 632 1199 q 724 1178 706 1199 q 743 1131 743 1158 q 724 1083 743 1103 q 669 1063 706 1063 z "},"Ò":{"ha":1086,"x_min":69,"x_max":1015,"o":"m 69 460 q 127 719 69 606 q 292 897 185 832 q 547 961 399 961 q 799 901 694 961 q 960 733 904 840 q 1015 485 1015 626 q 958 226 1015 339 q 794 48 901 113 q 538 -17 688 -17 q 288 43 393 -17 q 126 210 182 103 q 69 460 69 318 m 218 464 q 258 275 218 356 q 370 151 299 194 q 540 107 442 107 q 716 154 643 107 q 828 286 789 201 q 867 481 867 371 q 827 668 867 588 q 715 793 788 749 q 546 838 643 838 q 370 790 443 838 q 258 658 297 743 q 218 464 218 574 m 496 1013 l 408 1111 q 383 1158 385 1135 q 397 1196 382 1181 q 443 1211 413 1211 q 492 1194 472 1211 q 529 1142 511 1176 l 594 1013 l 496 1013 z "},"Ő":{"ha":1086,"x_min":69,"x_max":1015,"o":"m 69 460 q 127 719 69 606 q 292 897 185 832 q 547 961 399 961 q 799 901 694 961 q 960 733 904 840 q 1015 485 1015 626 q 958 226 1015 339 q 794 48 901 113 q 538 -17 688 -17 q 288 43 393 -17 q 126 210 182 103 q 69 460 69 318 m 218 464 q 258 275 218 356 q 370 151 299 194 q 540 107 442 107 q 716 154 643 107 q 828 286 789 201 q 867 481 867 371 q 827 668 867 588 q 715 793 788 749 q 546 838 643 838 q 370 790 443 838 q 258 658 297 743 q 218 464 218 574 m 597 1013 l 664 1144 q 701 1197 682 1182 q 744 1211 719 1211 q 792 1185 781 1211 q 774 1119 804 1160 l 692 1013 l 597 1013 m 393 1013 l 461 1144 q 498 1197 479 1182 q 542 1211 517 1211 q 590 1185 578 1211 q 571 1119 601 1160 l 489 1013 l 393 1013 z "},"Ō":{"ha":1086,"x_min":69,"x_max":1015,"o":"m 69 460 q 127 719 69 606 q 292 897 185 832 q 547 961 399 961 q 799 901 694 961 q 960 733 904 840 q 1015 485 1015 626 q 958 226 1015 339 q 794 48 901 113 q 538 -17 688 -17 q 288 43 393 -17 q 126 210 182 103 q 69 460 69 318 m 218 464 q 258 275 218 356 q 370 151 299 194 q 540 107 442 107 q 716 154 643 107 q 828 286 789 201 q 867 481 867 371 q 827 668 867 588 q 715 793 788 749 q 546 838 643 838 q 370 790 443 838 q 258 658 297 743 q 218 464 218 574 m 363 1169 l 728 1169 l 728 1079 l 363 1079 l 363 1169 z "},"Ø":{"ha":1090,"x_min":69,"x_max":1021,"o":"m 69 0 l 889 944 l 1015 944 l 197 0 l 69 0 m 75 460 q 132 719 75 606 q 297 897 189 832 q 553 961 404 961 q 803 901 699 961 q 965 733 908 840 q 1021 485 1021 626 q 964 226 1021 339 q 800 48 907 113 q 543 -17 693 -17 q 292 43 397 -17 q 131 210 188 103 q 75 460 75 318 m 224 464 q 263 275 224 356 q 375 151 303 194 q 546 107 447 107 q 721 154 647 107 q 833 286 794 201 q 872 481 872 371 q 833 668 872 588 q 721 793 793 749 q 550 838 649 838 q 375 790 447 838 q 263 658 303 743 q 224 464 224 574 z "},"Õ":{"ha":1086,"x_min":69,"x_max":1015,"o":"m 69 460 q 127 719 69 606 q 292 897 185 832 q 547 961 399 961 q 799 901 694 961 q 960 733 904 840 q 1015 485 1015 626 q 958 226 1015 339 q 794 48 901 113 q 538 -17 688 -17 q 288 43 393 -17 q 126 210 182 103 q 69 460 69 318 m 218 464 q 258 275 218 356 q 370 151 299 194 q 540 107 442 107 q 716 154 643 107 q 828 286 789 201 q 867 481 867 371 q 827 668 867 588 q 715 793 788 749 q 546 838 643 838 q 370 790 443 838 q 258 658 297 743 q 218 464 218 574 m 640 1021 q 578 1036 604 1021 q 531 1072 551 1051 q 492 1109 511 1093 q 450 1125 472 1125 q 417 1103 428 1125 q 408 1029 407 1081 l 326 1029 q 352 1166 318 1117 q 446 1215 386 1215 q 508 1199 482 1215 q 554 1163 533 1183 q 594 1126 575 1142 q 636 1110 613 1110 q 665 1126 656 1110 q 675 1175 675 1143 q 685 1215 675 1200 q 715 1229 694 1229 q 751 1210 739 1229 q 764 1157 764 1190 q 731 1059 764 1097 q 640 1021 699 1021 z "},"Œ":{"ha":1504,"x_min":69,"x_max":1454,"o":"m 771 0 l 771 944 l 913 944 l 913 0 l 771 0 m 865 0 l 865 122 l 1454 122 l 1454 0 l 865 0 m 835 446 l 835 568 l 1329 568 q 1380 553 1361 568 q 1399 507 1399 538 q 1380 462 1399 478 q 1329 446 1361 446 l 835 446 m 865 822 l 865 944 l 1454 944 l 1454 822 l 865 822 m 771 0 l 771 944 l 913 944 l 913 0 l 771 0 m 836 944 l 836 819 l 608 819 q 389 776 475 819 q 260 653 303 733 q 218 461 218 572 q 316 208 218 290 q 608 125 414 125 l 836 125 l 836 0 l 599 0 q 201 123 332 0 q 69 461 69 246 q 126 714 69 606 q 300 883 183 822 q 596 944 417 944 l 836 944 z "},"P":{"ha":936,"x_min":126,"x_max":888,"o":"m 204 378 l 204 500 l 501 500 q 682 544 625 500 q 739 667 739 588 q 683 783 739 744 q 501 822 626 822 l 204 822 l 204 944 l 508 944 q 794 873 701 944 q 888 669 888 801 q 846 516 888 582 q 720 414 804 450 q 513 378 636 378 l 204 378 m 126 0 l 126 944 l 268 944 l 268 0 l 126 0 z "},"Þ":{"ha":936,"x_min":126,"x_max":888,"o":"m 204 224 l 204 347 l 500 347 q 681 393 624 347 q 739 522 739 439 q 682 643 739 603 q 500 683 625 683 l 204 683 l 204 807 l 508 807 q 794 733 701 807 q 888 524 888 660 q 846 365 888 433 q 720 260 804 297 q 513 224 636 224 l 204 224 m 126 0 l 126 972 l 267 972 l 267 0 l 126 0 z "},"Q":{"ha":1086,"x_min":69,"x_max":1015,"o":"m 511 38 l 650 28 q 706 -77 678 -46 q 763 -115 735 -108 q 817 -121 792 -121 q 882 -137 864 -121 q 900 -179 900 -154 q 874 -230 900 -210 q 794 -250 849 -250 q 685 -224 738 -250 q 588 -134 632 -197 q 511 38 544 -71 m 69 460 q 127 719 69 606 q 292 897 185 832 q 547 961 399 961 q 799 901 694 961 q 960 733 904 840 q 1015 485 1015 626 q 958 226 1015 339 q 794 48 901 113 q 538 -17 688 -17 q 288 43 393 -17 q 126 210 182 103 q 69 460 69 318 m 218 464 q 258 275 218 356 q 370 151 299 194 q 540 107 442 107 q 716 154 643 107 q 828 286 789 201 q 867 481 867 371 q 827 668 867 588 q 715 793 788 749 q 546 838 643 838 q 370 790 443 838 q 258 658 297 743 q 218 464 218 574 z "},"R":{"ha":956,"x_min":126,"x_max":893,"o":"m 731 0 q 709 94 714 42 q 700 201 704 147 q 682 301 696 256 q 633 374 668 346 q 528 401 597 401 l 229 401 l 229 476 l 582 478 q 724 457 672 478 q 801 399 776 436 q 835 314 826 361 q 848 213 844 267 q 860 105 851 160 q 893 0 869 50 l 731 0 m 126 0 l 126 944 l 268 944 l 268 0 l 126 0 m 207 439 l 207 519 l 506 519 q 683 558 628 519 q 739 674 739 596 q 684 786 739 750 q 506 822 629 822 l 207 822 l 207 944 l 511 944 q 794 878 700 944 q 888 683 888 811 q 844 543 888 597 q 717 464 801 489 q 511 439 633 439 l 207 439 z "},"Ŕ":{"ha":956,"x_min":126,"x_max":893,"o":"m 731 0 q 709 94 714 42 q 700 201 704 147 q 682 301 696 256 q 633 374 668 346 q 528 401 597 401 l 229 401 l 229 476 l 582 478 q 724 457 672 478 q 801 399 776 436 q 835 314 826 361 q 848 213 844 267 q 860 105 851 160 q 893 0 869 50 l 731 0 m 126 0 l 126 944 l 268 944 l 268 0 l 126 0 m 207 439 l 207 519 l 506 519 q 683 558 628 519 q 739 674 739 596 q 684 786 739 750 q 506 822 629 822 l 207 822 l 207 944 l 511 944 q 794 878 700 944 q 888 683 888 811 q 844 543 888 597 q 717 464 801 489 q 511 439 633 439 l 207 439 m 517 1013 l 418 1013 l 483 1142 q 521 1194 501 1176 q 568 1211 540 1211 q 615 1196 599 1211 q 628 1158 631 1181 q 603 1111 626 1135 l 517 1013 z "},"Ř":{"ha":956,"x_min":126,"x_max":893,"o":"m 731 0 q 709 94 714 42 q 700 201 704 147 q 682 301 696 256 q 633 374 668 346 q 528 401 597 401 l 229 401 l 229 476 l 582 478 q 724 457 672 478 q 801 399 776 436 q 835 314 826 361 q 848 213 844 267 q 860 105 851 160 q 893 0 869 50 l 731 0 m 126 0 l 126 944 l 268 944 l 268 0 l 126 0 m 207 439 l 207 519 l 506 519 q 683 558 628 519 q 739 674 739 596 q 684 786 739 750 q 506 822 629 822 l 207 822 l 207 944 l 511 944 q 794 878 700 944 q 888 683 888 811 q 844 543 888 597 q 717 464 801 489 q 511 439 633 439 l 207 439 m 651 1194 l 551 1049 q 514 1008 533 1021 q 467 996 494 996 q 422 1008 440 996 q 382 1050 403 1021 l 283 1194 l 374 1194 l 467 1093 l 561 1194 l 651 1194 z "},"Ŗ":{"ha":956,"x_min":126,"x_max":893,"o":"m 731 0 q 709 94 714 42 q 700 201 704 147 q 682 301 696 256 q 633 374 668 346 q 528 401 597 401 l 229 401 l 229 476 l 582 478 q 724 457 672 478 q 801 399 776 436 q 835 314 826 361 q 848 213 844 267 q 860 105 851 160 q 893 0 869 50 l 731 0 m 126 0 l 126 944 l 268 944 l 268 0 l 126 0 m 207 439 l 207 519 l 506 519 q 683 558 628 519 q 739 674 739 596 q 684 786 739 750 q 506 822 629 822 l 207 822 l 207 944 l 511 944 q 794 878 700 944 q 888 683 888 811 q 844 543 888 597 q 717 464 801 489 q 511 439 633 439 l 207 439 m 433 -278 q 465 -204 457 -240 q 465 -131 472 -168 l 532 -168 q 468 -173 494 -176 q 428 -155 442 -169 q 414 -119 414 -140 q 435 -75 414 -93 q 499 -57 457 -57 q 560 -74 535 -57 q 585 -128 585 -92 q 565 -201 585 -164 q 514 -278 546 -239 l 433 -278 z "},"S":{"ha":832,"x_min":69,"x_max":778,"o":"m 408 -17 q 222 7 308 -17 q 74 71 136 31 l 74 201 q 246 121 161 147 q 413 94 331 94 q 582 138 529 94 q 635 242 635 182 q 604 321 635 290 q 523 370 574 351 q 412 404 472 389 q 291 438 351 419 q 181 487 231 457 q 100 564 131 517 q 69 683 69 611 q 110 828 69 765 q 231 926 151 890 q 426 961 311 961 q 591 936 524 961 q 701 871 658 911 q 733 834 721 853 q 744 790 744 815 q 728 747 744 764 q 686 731 713 731 q 638 748 660 731 q 591 790 617 765 q 525 832 565 814 q 418 850 485 850 q 265 807 318 850 q 213 700 213 764 q 243 622 213 651 q 324 573 274 592 q 434 540 374 554 q 555 506 494 525 q 666 458 615 488 q 747 380 717 428 q 778 257 778 332 q 735 112 778 174 q 611 17 693 50 q 408 -17 529 -17 z "},"Ś":{"ha":832,"x_min":69,"x_max":778,"o":"m 408 -17 q 222 7 308 -17 q 74 71 136 31 l 74 201 q 246 121 161 147 q 413 94 331 94 q 582 138 529 94 q 635 242 635 182 q 604 321 635 290 q 523 370 574 351 q 412 404 472 389 q 291 438 351 419 q 181 487 231 457 q 100 564 131 517 q 69 683 69 611 q 110 828 69 765 q 231 926 151 890 q 426 961 311 961 q 591 936 524 961 q 701 871 658 911 q 733 834 721 853 q 744 790 744 815 q 728 747 744 764 q 686 731 713 731 q 638 748 660 731 q 591 790 617 765 q 525 832 565 814 q 418 850 485 850 q 265 807 318 850 q 213 700 213 764 q 243 622 213 651 q 324 573 274 592 q 434 540 374 554 q 555 506 494 525 q 666 458 615 488 q 747 380 717 428 q 778 257 778 332 q 735 112 778 174 q 611 17 693 50 q 408 -17 529 -17 m 479 1013 l 381 1013 l 446 1142 q 483 1194 464 1176 q 531 1211 503 1211 q 577 1196 561 1211 q 591 1158 593 1181 q 565 1111 589 1135 l 479 1013 z "},"Š":{"ha":832,"x_min":69,"x_max":778,"o":"m 408 -17 q 222 7 308 -17 q 74 71 136 31 l 74 201 q 246 121 161 147 q 413 94 331 94 q 582 138 529 94 q 635 242 635 182 q 604 321 635 290 q 523 370 574 351 q 412 404 472 389 q 291 438 351 419 q 181 487 231 457 q 100 564 131 517 q 69 683 69 611 q 110 828 69 765 q 231 926 151 890 q 426 961 311 961 q 591 936 524 961 q 701 871 658 911 q 733 834 721 853 q 744 790 744 815 q 728 747 744 764 q 686 731 713 731 q 638 748 660 731 q 591 790 617 765 q 525 832 565 814 q 418 850 485 850 q 265 807 318 850 q 213 700 213 764 q 243 622 213 651 q 324 573 274 592 q 434 540 374 554 q 555 506 494 525 q 666 458 615 488 q 747 380 717 428 q 778 257 778 332 q 735 112 778 174 q 611 17 693 50 q 408 -17 529 -17 m 613 1194 l 513 1049 q 475 1008 494 1021 q 428 996 456 996 q 383 1008 401 996 q 343 1050 364 1021 l 244 1194 l 335 1194 l 428 1093 l 522 1194 l 613 1194 z "},"Ş":{"ha":832,"x_min":69,"x_max":778,"o":"m 408 -17 q 222 7 308 -17 q 74 71 136 31 l 74 201 q 246 121 161 147 q 413 94 331 94 q 582 138 529 94 q 635 242 635 182 q 604 321 635 290 q 523 370 574 351 q 412 404 472 389 q 291 438 351 419 q 181 487 231 457 q 100 564 131 517 q 69 683 69 611 q 110 828 69 765 q 231 926 151 890 q 426 961 311 961 q 591 936 524 961 q 701 871 658 911 q 733 834 721 853 q 744 790 744 815 q 728 747 744 764 q 686 731 713 731 q 638 748 660 731 q 591 790 617 765 q 525 832 565 814 q 418 850 485 850 q 265 807 318 850 q 213 700 213 764 q 243 622 213 651 q 324 573 274 592 q 434 540 374 554 q 555 506 494 525 q 666 458 615 488 q 747 380 717 428 q 778 257 778 332 q 735 112 778 174 q 611 17 693 50 q 408 -17 529 -17 m 493 -178 q 474 -147 493 -157 q 419 -136 456 -136 q 407 -136 414 -136 q 393 -136 400 -136 q 349 -124 360 -136 q 342 -81 338 -111 l 357 25 l 436 25 l 418 -106 l 382 -74 q 490 -72 447 -65 q 558 -94 533 -78 q 592 -131 582 -110 q 601 -176 601 -153 q 553 -267 601 -240 q 436 -294 504 -294 q 369 -287 401 -294 q 313 -269 338 -281 l 313 -199 q 366 -215 339 -208 q 421 -221 393 -221 q 474 -211 454 -221 q 493 -178 493 -201 z "},"Ŝ":{"ha":832,"x_min":69,"x_max":778,"o":"m 408 -17 q 222 7 308 -17 q 74 71 136 31 l 74 201 q 246 121 161 147 q 413 94 331 94 q 582 138 529 94 q 635 242 635 182 q 604 321 635 290 q 523 370 574 351 q 412 404 472 389 q 291 438 351 419 q 181 487 231 457 q 100 564 131 517 q 69 683 69 611 q 110 828 69 765 q 231 926 151 890 q 426 961 311 961 q 591 936 524 961 q 701 871 658 911 q 733 834 721 853 q 744 790 744 815 q 728 747 744 764 q 686 731 713 731 q 638 748 660 731 q 591 790 617 765 q 525 832 565 814 q 418 850 485 850 q 265 807 318 850 q 213 700 213 764 q 243 622 213 651 q 324 573 274 592 q 434 540 374 554 q 555 506 494 525 q 666 458 615 488 q 747 380 717 428 q 778 257 778 332 q 735 112 778 174 q 611 17 693 50 q 408 -17 529 -17 m 244 1013 l 343 1158 q 382 1199 363 1186 q 428 1211 401 1211 q 474 1199 456 1211 q 513 1157 493 1186 l 613 1013 l 522 1013 l 428 1115 l 335 1013 l 244 1013 z "},"Ș":{"ha":832,"x_min":69,"x_max":778,"o":"m 408 -17 q 222 7 308 -17 q 74 71 136 31 l 74 201 q 246 121 161 147 q 413 94 331 94 q 582 138 529 94 q 635 242 635 182 q 604 321 635 290 q 523 370 574 351 q 412 404 472 389 q 291 438 351 419 q 181 487 231 457 q 100 564 131 517 q 69 683 69 611 q 110 828 69 765 q 231 926 151 890 q 426 961 311 961 q 591 936 524 961 q 701 871 658 911 q 733 834 721 853 q 744 790 744 815 q 728 747 744 764 q 686 731 713 731 q 638 748 660 731 q 591 790 617 765 q 525 832 565 814 q 418 850 485 850 q 265 807 318 850 q 213 700 213 764 q 243 622 213 651 q 324 573 274 592 q 434 540 374 554 q 555 506 494 525 q 666 458 615 488 q 747 380 717 428 q 778 257 778 332 q 735 112 778 174 q 611 17 693 50 q 408 -17 529 -17 m 350 -278 q 381 -204 374 -240 q 382 -131 389 -168 l 449 -168 q 385 -173 411 -176 q 344 -155 358 -169 q 331 -119 331 -140 q 352 -75 331 -93 q 415 -57 374 -57 q 476 -74 451 -57 q 501 -128 501 -92 q 482 -201 501 -164 q 431 -278 463 -239 l 350 -278 z "},"ẞ":{"ha":1036,"x_min":126,"x_max":988,"o":"m 126 0 l 126 661 q 168 819 126 757 q 294 913 210 882 q 501 944 378 944 l 879 944 l 879 846 l 622 474 l 608 528 q 896 416 804 489 q 988 228 988 343 q 900 46 988 108 q 669 -17 813 -17 q 519 3 588 -17 q 401 49 451 22 l 401 169 q 535 112 465 132 q 667 92 604 92 q 758 106 717 92 q 824 149 800 119 q 847 221 847 178 q 784 332 847 288 q 589 410 721 376 q 530 442 549 421 q 511 489 511 463 q 535 554 511 519 l 747 865 l 776 822 l 506 822 q 331 783 393 822 q 268 650 268 744 l 268 0 l 126 0 z "},"T":{"ha":885,"x_min":25,"x_max":860,"o":"m 371 0 l 371 944 l 513 944 l 513 0 l 371 0 m 25 819 l 25 944 l 860 944 l 860 819 l 25 819 z "},"Ť":{"ha":885,"x_min":25,"x_max":860,"o":"m 371 0 l 371 944 l 513 944 l 513 0 l 371 0 m 25 819 l 25 944 l 860 944 l 860 819 l 25 819 m 626 1194 l 526 1049 q 489 1008 508 1021 q 442 996 469 996 q 397 1008 415 996 q 357 1050 378 1021 l 258 1194 l 349 1194 l 442 1093 l 536 1194 l 626 1194 z "},"Ţ":{"ha":885,"x_min":25,"x_max":860,"o":"m 371 0 l 371 944 l 513 944 l 513 0 l 371 0 m 25 819 l 25 944 l 860 944 l 860 819 l 25 819 m 521 -178 q 502 -147 521 -157 q 447 -136 483 -136 q 435 -136 442 -136 q 421 -136 428 -136 q 376 -124 388 -136 q 369 -81 365 -111 l 385 25 l 464 25 l 446 -106 l 410 -74 q 518 -72 475 -65 q 585 -94 561 -78 q 619 -131 610 -110 q 629 -176 629 -153 q 581 -267 629 -240 q 464 -294 532 -294 q 397 -287 429 -294 q 340 -269 365 -281 l 340 -199 q 394 -215 367 -208 q 449 -221 421 -221 q 501 -211 482 -221 q 521 -178 521 -201 z "},"Ț":{"ha":885,"x_min":25,"x_max":860,"o":"m 371 0 l 371 944 l 513 944 l 513 0 l 371 0 m 25 819 l 25 944 l 860 944 l 860 819 l 25 819 m 376 -278 q 408 -204 400 -240 q 408 -131 415 -168 l 475 -168 q 411 -173 438 -176 q 371 -155 385 -169 q 357 -119 357 -140 q 378 -75 357 -93 q 442 -57 400 -57 q 503 -74 478 -57 q 528 -128 528 -92 q 508 -201 528 -164 q 457 -278 489 -239 l 376 -278 z "},"U":{"ha":1022,"x_min":113,"x_max":910,"o":"m 113 372 l 113 944 l 254 944 l 254 376 q 319 180 254 250 q 511 110 383 110 q 658 144 601 110 q 741 238 714 178 q 768 376 768 299 l 768 944 l 910 944 l 910 372 q 810 86 910 189 q 511 -17 710 -17 q 296 27 385 -17 q 160 158 207 71 q 113 372 113 244 z "},"Ú":{"ha":1022,"x_min":113,"x_max":910,"o":"m 113 372 l 113 944 l 254 944 l 254 376 q 319 180 254 250 q 511 110 383 110 q 658 144 601 110 q 741 238 714 178 q 768 376 768 299 l 768 944 l 910 944 l 910 372 q 810 86 910 189 q 511 -17 710 -17 q 296 27 385 -17 q 160 158 207 71 q 113 372 113 244 m 561 1013 l 463 1013 l 528 1142 q 565 1194 546 1176 q 613 1211 585 1211 q 659 1196 643 1211 q 673 1158 675 1181 q 647 1111 671 1135 l 561 1013 z "},"Ŭ":{"ha":1022,"x_min":113,"x_max":910,"o":"m 113 372 l 113 944 l 254 944 l 254 376 q 319 180 254 250 q 511 110 383 110 q 658 144 601 110 q 741 238 714 178 q 768 376 768 299 l 768 944 l 910 944 l 910 372 q 810 86 910 189 q 511 -17 710 -17 q 296 27 385 -17 q 160 158 207 71 q 113 372 113 244 m 421 1194 q 441 1111 419 1139 q 511 1083 463 1083 q 581 1111 560 1083 q 600 1194 603 1139 l 683 1194 q 647 1049 694 1101 q 511 996 600 996 q 374 1049 421 996 q 338 1194 328 1101 l 421 1194 z "},"Û":{"ha":1022,"x_min":113,"x_max":910,"o":"m 113 372 l 113 944 l 254 944 l 254 376 q 319 180 254 250 q 511 110 383 110 q 658 144 601 110 q 741 238 714 178 q 768 376 768 299 l 768 944 l 910 944 l 910 372 q 810 86 910 189 q 511 -17 710 -17 q 296 27 385 -17 q 160 158 207 71 q 113 372 113 244 m 328 1013 l 426 1158 q 465 1199 446 1186 q 511 1211 485 1211 q 558 1199 539 1211 q 596 1157 576 1186 l 696 1013 l 606 1013 l 511 1115 l 418 1013 l 328 1013 z "},"Ü":{"ha":1022,"x_min":113,"x_max":910,"o":"m 113 372 l 113 944 l 254 944 l 254 376 q 319 180 254 250 q 511 110 383 110 q 658 144 601 110 q 741 238 714 178 q 768 376 768 299 l 768 944 l 910 944 l 910 372 q 810 86 910 189 q 511 -17 710 -17 q 296 27 385 -17 q 160 158 207 71 q 113 372 113 244 m 386 1063 q 330 1083 349 1063 q 311 1131 311 1103 q 330 1178 311 1158 q 386 1199 349 1199 q 441 1178 422 1199 q 460 1131 460 1158 q 441 1083 460 1103 q 386 1063 422 1063 m 635 1063 q 578 1083 597 1063 q 560 1131 560 1103 q 578 1178 560 1158 q 635 1199 597 1199 q 690 1178 671 1199 q 708 1131 708 1158 q 690 1083 708 1103 q 635 1063 671 1063 z "},"Ù":{"ha":1022,"x_min":113,"x_max":910,"o":"m 113 372 l 113 944 l 254 944 l 254 376 q 319 180 254 250 q 511 110 383 110 q 658 144 601 110 q 741 238 714 178 q 768 376 768 299 l 768 944 l 910 944 l 910 372 q 810 86 910 189 q 511 -17 710 -17 q 296 27 385 -17 q 160 158 207 71 q 113 372 113 244 m 463 1013 l 375 1111 q 350 1158 351 1135 q 364 1196 349 1181 q 410 1211 379 1211 q 458 1194 439 1211 q 496 1142 478 1176 l 561 1013 l 463 1013 z "},"Ű":{"ha":1022,"x_min":113,"x_max":910,"o":"m 113 372 l 113 944 l 254 944 l 254 376 q 319 180 254 250 q 511 110 383 110 q 658 144 601 110 q 741 238 714 178 q 768 376 768 299 l 768 944 l 910 944 l 910 372 q 810 86 910 189 q 511 -17 710 -17 q 296 27 385 -17 q 160 158 207 71 q 113 372 113 244 m 564 1013 l 631 1144 q 667 1197 649 1182 q 711 1211 686 1211 q 759 1185 747 1211 q 740 1119 771 1160 l 658 1013 l 564 1013 m 360 1013 l 428 1144 q 465 1197 446 1182 q 508 1211 483 1211 q 556 1185 544 1211 q 538 1119 568 1160 l 456 1013 l 360 1013 z "},"Ū":{"ha":1022,"x_min":113,"x_max":910,"o":"m 113 372 l 113 944 l 254 944 l 254 376 q 319 180 254 250 q 511 110 383 110 q 658 144 601 110 q 741 238 714 178 q 768 376 768 299 l 768 944 l 910 944 l 910 372 q 810 86 910 189 q 511 -17 710 -17 q 296 27 385 -17 q 160 158 207 71 q 113 372 113 244 m 328 1169 l 693 1169 l 693 1079 l 328 1079 l 328 1169 z "},"Ų":{"ha":1022,"x_min":113,"x_max":910,"o":"m 113 372 l 113 944 l 254 944 l 254 376 q 319 180 254 250 q 511 110 383 110 q 658 144 601 110 q 741 238 714 178 q 768 376 768 299 l 768 944 l 910 944 l 910 372 q 810 86 910 189 q 511 -17 710 -17 q 296 27 385 -17 q 160 158 207 71 q 113 372 113 244 m 717 24 q 624 -62 653 -21 q 594 -142 594 -104 q 615 -192 594 -175 q 671 -210 636 -210 q 717 -203 694 -210 q 763 -186 740 -197 l 763 -267 q 708 -287 739 -279 q 643 -294 678 -294 q 528 -261 571 -294 q 486 -168 486 -228 q 526 -64 486 -110 q 632 22 565 -18 l 717 24 z "},"Ů":{"ha":1022,"x_min":113,"x_max":910,"o":"m 113 372 l 113 944 l 254 944 l 254 376 q 319 180 254 250 q 511 110 383 110 q 658 144 601 110 q 741 238 714 178 q 768 376 768 299 l 768 944 l 910 944 l 910 372 q 810 86 910 189 q 511 -17 710 -17 q 296 27 385 -17 q 160 158 207 71 q 113 372 113 244 m 511 901 q 372 946 421 901 q 324 1057 324 990 q 372 1167 324 1124 q 511 1211 421 1211 q 650 1167 601 1211 q 699 1057 699 1124 q 650 946 699 990 q 511 901 601 901 m 511 979 q 579 999 553 979 q 606 1057 606 1019 q 579 1113 606 1093 q 511 1133 553 1133 q 443 1113 469 1133 q 417 1057 417 1093 q 443 999 417 1019 q 511 979 469 979 z "},"Ũ":{"ha":1022,"x_min":113,"x_max":910,"o":"m 113 372 l 113 944 l 254 944 l 254 376 q 319 180 254 250 q 511 110 383 110 q 658 144 601 110 q 741 238 714 178 q 768 376 768 299 l 768 944 l 910 944 l 910 372 q 810 86 910 189 q 511 -17 710 -17 q 296 27 385 -17 q 160 158 207 71 q 113 372 113 244 m 607 1021 q 544 1036 571 1021 q 498 1072 518 1051 q 458 1109 478 1093 q 417 1125 439 1125 q 384 1103 394 1125 q 375 1029 374 1081 l 293 1029 q 319 1166 285 1117 q 413 1215 353 1215 q 474 1199 449 1215 q 521 1163 500 1183 q 560 1126 542 1142 q 603 1110 579 1110 q 632 1126 622 1110 q 642 1175 642 1143 q 651 1215 642 1200 q 682 1229 661 1229 q 718 1210 706 1229 q 731 1157 731 1190 q 698 1059 731 1097 q 607 1021 665 1021 z "},"V":{"ha":931,"x_min":22,"x_max":907,"o":"m 410 0 l 758 944 l 907 944 l 540 0 l 410 0 m 389 0 l 22 944 l 174 944 l 524 0 l 389 0 z "},"W":{"ha":1260,"x_min":39,"x_max":1221,"o":"m 281 0 l 285 64 l 533 674 q 574 729 549 711 q 629 747 599 747 q 685 729 661 747 q 725 674 710 711 l 974 64 l 979 0 l 869 0 l 629 571 l 390 0 l 281 0 m 247 0 l 39 944 l 190 944 l 372 0 l 247 0 m 886 0 l 1068 944 l 1221 944 l 1013 0 l 886 0 z "},"Ẃ":{"ha":1260,"x_min":39,"x_max":1221,"o":"m 281 0 l 285 64 l 533 674 q 574 729 549 711 q 629 747 599 747 q 685 729 661 747 q 725 674 710 711 l 974 64 l 979 0 l 869 0 l 629 571 l 390 0 l 281 0 m 247 0 l 39 944 l 190 944 l 372 0 l 247 0 m 886 0 l 1068 944 l 1221 944 l 1013 0 l 886 0 m 679 1013 l 581 1013 l 646 1142 q 683 1194 664 1176 q 731 1211 703 1211 q 777 1196 761 1211 q 791 1158 793 1181 q 765 1111 789 1135 l 679 1013 z "},"Ŵ":{"ha":1260,"x_min":39,"x_max":1221,"o":"m 281 0 l 285 64 l 533 674 q 574 729 549 711 q 629 747 599 747 q 685 729 661 747 q 725 674 710 711 l 974 64 l 979 0 l 869 0 l 629 571 l 390 0 l 281 0 m 247 0 l 39 944 l 190 944 l 372 0 l 247 0 m 886 0 l 1068 944 l 1221 944 l 1013 0 l 886 0 m 446 1013 l 544 1158 q 583 1199 564 1186 q 629 1211 603 1211 q 676 1199 657 1211 q 714 1157 694 1186 l 814 1013 l 724 1013 l 629 1115 l 536 1013 l 446 1013 z "},"Ẅ":{"ha":1260,"x_min":39,"x_max":1221,"o":"m 281 0 l 285 64 l 533 674 q 574 729 549 711 q 629 747 599 747 q 685 729 661 747 q 725 674 710 711 l 974 64 l 979 0 l 869 0 l 629 571 l 390 0 l 281 0 m 247 0 l 39 944 l 190 944 l 372 0 l 247 0 m 886 0 l 1068 944 l 1221 944 l 1013 0 l 886 0 m 506 1063 q 449 1083 468 1063 q 431 1131 431 1103 q 449 1178 431 1158 q 506 1199 468 1199 q 560 1178 542 1199 q 579 1131 579 1158 q 560 1083 579 1103 q 506 1063 542 1063 m 754 1063 q 698 1083 717 1063 q 679 1131 679 1103 q 698 1178 679 1158 q 754 1199 717 1199 q 809 1178 790 1199 q 828 1131 828 1158 q 809 1083 828 1103 q 754 1063 790 1063 z "},"Ẁ":{"ha":1260,"x_min":39,"x_max":1221,"o":"m 281 0 l 285 64 l 533 674 q 574 729 549 711 q 629 747 599 747 q 685 729 661 747 q 725 674 710 711 l 974 64 l 979 0 l 869 0 l 629 571 l 390 0 l 281 0 m 247 0 l 39 944 l 190 944 l 372 0 l 247 0 m 886 0 l 1068 944 l 1221 944 l 1013 0 l 886 0 m 581 1013 l 493 1111 q 468 1158 469 1135 q 482 1196 467 1181 q 528 1211 497 1211 q 576 1194 557 1211 q 614 1142 596 1176 l 679 1013 l 581 1013 z "},"X":{"ha":883,"x_min":15,"x_max":868,"o":"m 15 0 l 382 532 l 382 431 l 25 944 l 190 944 l 489 506 l 396 506 l 693 944 l 858 944 l 503 431 l 503 532 l 868 0 l 704 0 l 394 454 l 488 454 l 179 0 l 15 0 z "},"Y":{"ha":900,"x_min":8,"x_max":892,"o":"m 508 407 l 392 464 l 728 944 l 892 944 l 508 407 m 381 0 l 381 485 l 519 485 l 519 0 l 381 0 m 390 407 l 8 944 l 172 944 l 508 464 l 390 407 z "},"Ý":{"ha":900,"x_min":8,"x_max":892,"o":"m 508 407 l 392 464 l 728 944 l 892 944 l 508 407 m 381 0 l 381 485 l 519 485 l 519 0 l 381 0 m 390 407 l 8 944 l 172 944 l 508 464 l 390 407 m 500 1013 l 401 1013 l 467 1142 q 504 1194 485 1176 q 551 1211 524 1211 q 598 1196 582 1211 q 612 1158 614 1181 q 586 1111 610 1135 l 500 1013 z "},"Ŷ":{"ha":900,"x_min":8,"x_max":892,"o":"m 508 407 l 392 464 l 728 944 l 892 944 l 508 407 m 381 0 l 381 485 l 519 485 l 519 0 l 381 0 m 390 407 l 8 944 l 172 944 l 508 464 l 390 407 m 267 1013 l 365 1158 q 404 1199 385 1186 q 450 1211 424 1211 q 497 1199 478 1211 q 535 1157 515 1186 l 635 1013 l 544 1013 l 450 1115 l 357 1013 l 267 1013 z "},"Ÿ":{"ha":900,"x_min":8,"x_max":892,"o":"m 508 407 l 392 464 l 728 944 l 892 944 l 508 407 m 381 0 l 381 485 l 519 485 l 519 0 l 381 0 m 390 407 l 8 944 l 172 944 l 508 464 l 390 407 m 325 1063 q 269 1083 288 1063 q 250 1131 250 1103 q 269 1178 250 1158 q 325 1199 288 1199 q 380 1178 361 1199 q 399 1131 399 1158 q 380 1083 399 1103 q 325 1063 361 1063 m 574 1063 q 517 1083 536 1063 q 499 1131 499 1103 q 517 1178 499 1158 q 574 1199 536 1199 q 628 1178 610 1199 q 647 1131 647 1158 q 628 1083 647 1103 q 574 1063 610 1063 z "},"Ỳ":{"ha":900,"x_min":8,"x_max":892,"o":"m 508 407 l 392 464 l 728 944 l 892 944 l 508 407 m 381 0 l 381 485 l 519 485 l 519 0 l 381 0 m 390 407 l 8 944 l 172 944 l 508 464 l 390 407 m 401 1013 l 314 1111 q 289 1158 290 1135 q 303 1196 288 1181 q 349 1211 318 1211 q 397 1194 378 1211 q 435 1142 417 1176 l 500 1013 l 401 1013 z "},"Ỹ":{"ha":900,"x_min":8,"x_max":892,"o":"m 508 407 l 392 464 l 728 944 l 892 944 l 508 407 m 381 0 l 381 485 l 519 485 l 519 0 l 381 0 m 390 407 l 8 944 l 172 944 l 508 464 l 390 407 m 546 1021 q 483 1036 510 1021 q 437 1072 457 1051 q 397 1109 417 1093 q 356 1125 378 1125 q 323 1103 333 1125 q 314 1029 313 1081 l 232 1029 q 258 1166 224 1117 q 351 1215 292 1215 q 413 1199 388 1215 q 460 1163 439 1183 q 499 1126 481 1142 q 542 1110 518 1110 q 571 1126 561 1110 q 581 1175 581 1143 q 590 1215 581 1200 q 621 1229 600 1229 q 657 1210 644 1229 q 669 1157 669 1190 q 637 1059 669 1097 q 546 1021 604 1021 z "},"Z":{"ha":863,"x_min":49,"x_max":799,"o":"m 144 0 q 95 9 117 0 q 61 35 74 18 q 49 78 49 53 q 57 118 49 97 q 88 167 65 139 l 644 876 l 785 843 l 192 86 l 171 125 l 799 125 l 799 0 l 144 0 m 57 819 l 57 944 l 785 944 l 785 843 l 689 819 l 57 819 z "},"Ź":{"ha":863,"x_min":49,"x_max":799,"o":"m 144 0 q 95 9 117 0 q 61 35 74 18 q 49 78 49 53 q 57 118 49 97 q 88 167 65 139 l 644 876 l 785 843 l 192 86 l 171 125 l 799 125 l 799 0 l 144 0 m 57 819 l 57 944 l 785 944 l 785 843 l 689 819 l 57 819 m 472 1013 l 374 1013 l 439 1142 q 476 1194 457 1176 q 524 1211 496 1211 q 570 1196 554 1211 q 584 1158 586 1181 q 558 1111 582 1135 l 472 1013 z "},"Ž":{"ha":863,"x_min":49,"x_max":799,"o":"m 144 0 q 95 9 117 0 q 61 35 74 18 q 49 78 49 53 q 57 118 49 97 q 88 167 65 139 l 644 876 l 785 843 l 192 86 l 171 125 l 799 125 l 799 0 l 144 0 m 57 819 l 57 944 l 785 944 l 785 843 l 689 819 l 57 819 m 607 1194 l 507 1049 q 469 1008 489 1021 q 422 996 450 996 q 377 1008 396 996 q 338 1050 358 1021 l 239 1194 l 329 1194 l 422 1093 l 517 1194 l 607 1194 z "},"Ż":{"ha":863,"x_min":49,"x_max":799,"o":"m 144 0 q 95 9 117 0 q 61 35 74 18 q 49 78 49 53 q 57 118 49 97 q 88 167 65 139 l 644 876 l 785 843 l 192 86 l 171 125 l 799 125 l 799 0 l 144 0 m 57 819 l 57 944 l 785 944 l 785 843 l 689 819 l 57 819 m 424 1054 q 359 1075 381 1054 q 338 1126 338 1096 q 359 1177 338 1156 q 424 1199 381 1199 q 487 1177 465 1199 q 508 1126 508 1156 q 487 1075 508 1096 q 424 1054 465 1054 z "},"a":{"ha":743,"x_min":67,"x_max":672,"o":"m 672 0 l 540 0 q 524 61 531 21 q 518 147 518 101 l 508 179 l 508 485 q 469 576 508 551 q 368 600 431 600 q 277 586 311 600 q 222 553 243 572 q 184 521 201 535 q 144 507 167 507 q 105 520 119 507 q 90 558 90 533 q 99 596 90 576 q 131 635 108 615 q 368 711 210 711 q 512 689 451 711 q 606 614 572 667 q 640 475 640 561 l 640 204 q 649 86 640 139 q 672 0 658 33 m 285 -17 q 126 36 186 -17 q 67 181 67 89 q 119 312 67 264 q 276 381 172 360 l 403 404 q 488 433 468 418 q 508 481 508 449 l 508 361 q 478 342 499 351 q 418 322 458 332 l 322 303 q 238 267 271 293 q 206 190 206 242 q 238 112 206 140 q 325 83 271 83 q 415 106 372 83 q 483 172 457 128 q 508 274 508 215 l 533 158 q 435 25 503 67 q 285 -17 367 -17 z "},"á":{"ha":743,"x_min":67,"x_max":672,"o":"m 672 0 l 540 0 q 524 61 531 21 q 518 147 518 101 l 508 179 l 508 485 q 469 576 508 551 q 368 600 431 600 q 277 586 311 600 q 222 553 243 572 q 184 521 201 535 q 144 507 167 507 q 105 520 119 507 q 90 558 90 533 q 99 596 90 576 q 131 635 108 615 q 368 711 210 711 q 512 689 451 711 q 606 614 572 667 q 640 475 640 561 l 640 204 q 649 86 640 139 q 672 0 658 33 m 285 -17 q 126 36 186 -17 q 67 181 67 89 q 119 312 67 264 q 276 381 172 360 l 403 404 q 488 433 468 418 q 508 481 508 449 l 508 361 q 478 342 499 351 q 418 322 458 332 l 322 303 q 238 267 271 293 q 206 190 206 242 q 238 112 206 140 q 325 83 271 83 q 415 106 372 83 q 483 172 457 128 q 508 274 508 215 l 533 158 q 435 25 503 67 q 285 -17 367 -17 m 419 772 l 321 772 l 393 940 q 433 999 411 982 q 482 1017 454 1017 q 526 1000 511 1017 q 540 958 542 983 q 514 904 538 932 l 419 772 z "},"ă":{"ha":743,"x_min":67,"x_max":672,"o":"m 672 0 l 540 0 q 524 61 531 21 q 518 147 518 101 l 508 179 l 508 485 q 469 576 508 551 q 368 600 431 600 q 277 586 311 600 q 222 553 243 572 q 184 521 201 535 q 144 507 167 507 q 105 520 119 507 q 90 558 90 533 q 99 596 90 576 q 131 635 108 615 q 368 711 210 711 q 512 689 451 711 q 606 614 572 667 q 640 475 640 561 l 640 204 q 649 86 640 139 q 672 0 658 33 m 285 -17 q 126 36 186 -17 q 67 181 67 89 q 119 312 67 264 q 276 381 172 360 l 403 404 q 488 433 468 418 q 508 481 508 449 l 508 361 q 478 342 499 351 q 418 322 458 332 l 322 303 q 238 267 271 293 q 206 190 206 242 q 238 112 206 140 q 325 83 271 83 q 415 106 372 83 q 483 172 457 128 q 508 274 508 215 l 533 158 q 435 25 503 67 q 285 -17 367 -17 m 269 1000 q 287 899 263 938 q 375 861 311 861 q 463 899 438 861 q 479 1000 488 938 l 565 1000 q 532 827 583 886 q 375 768 481 768 q 217 827 268 768 q 183 1000 165 886 l 269 1000 z "},"â":{"ha":743,"x_min":67,"x_max":672,"o":"m 672 0 l 540 0 q 524 61 531 21 q 518 147 518 101 l 508 179 l 508 485 q 469 576 508 551 q 368 600 431 600 q 277 586 311 600 q 222 553 243 572 q 184 521 201 535 q 144 507 167 507 q 105 520 119 507 q 90 558 90 533 q 99 596 90 576 q 131 635 108 615 q 368 711 210 711 q 512 689 451 711 q 606 614 572 667 q 640 475 640 561 l 640 204 q 649 86 640 139 q 672 0 658 33 m 285 -17 q 126 36 186 -17 q 67 181 67 89 q 119 312 67 264 q 276 381 172 360 l 403 404 q 488 433 468 418 q 508 481 508 449 l 508 361 q 478 342 499 351 q 418 322 458 332 l 322 303 q 238 267 271 293 q 206 190 206 242 q 238 112 206 140 q 325 83 271 83 q 415 106 372 83 q 483 172 457 128 q 508 274 508 215 l 533 158 q 435 25 503 67 q 285 -17 367 -17 m 172 772 l 278 949 q 319 999 299 982 q 374 1017 340 1017 q 429 999 408 1017 q 469 947 450 981 l 576 772 l 481 772 l 374 910 l 268 772 l 172 772 z "},"ä":{"ha":743,"x_min":67,"x_max":672,"o":"m 672 0 l 540 0 q 524 61 531 21 q 518 147 518 101 l 508 179 l 508 485 q 469 576 508 551 q 368 600 431 600 q 277 586 311 600 q 222 553 243 572 q 184 521 201 535 q 144 507 167 507 q 105 520 119 507 q 90 558 90 533 q 99 596 90 576 q 131 635 108 615 q 368 711 210 711 q 512 689 451 711 q 606 614 572 667 q 640 475 640 561 l 640 204 q 649 86 640 139 q 672 0 658 33 m 285 -17 q 126 36 186 -17 q 67 181 67 89 q 119 312 67 264 q 276 381 172 360 l 403 404 q 488 433 468 418 q 508 481 508 449 l 508 361 q 478 342 499 351 q 418 322 458 332 l 322 303 q 238 267 271 293 q 206 190 206 242 q 238 112 206 140 q 325 83 271 83 q 415 106 372 83 q 483 172 457 128 q 508 274 508 215 l 533 158 q 435 25 503 67 q 285 -17 367 -17 m 239 825 q 182 846 201 825 q 163 899 163 867 q 182 952 163 931 q 239 974 201 974 q 294 952 275 974 q 313 899 313 931 q 294 846 313 867 q 239 825 275 825 m 510 825 q 453 846 472 825 q 433 899 433 867 q 453 952 433 931 q 510 974 472 974 q 565 952 546 974 q 583 899 583 931 q 565 846 583 867 q 510 825 546 825 z "},"à":{"ha":743,"x_min":67,"x_max":672,"o":"m 672 0 l 540 0 q 524 61 531 21 q 518 147 518 101 l 508 179 l 508 485 q 469 576 508 551 q 368 600 431 600 q 277 586 311 600 q 222 553 243 572 q 184 521 201 535 q 144 507 167 507 q 105 520 119 507 q 90 558 90 533 q 99 596 90 576 q 131 635 108 615 q 368 711 210 711 q 512 689 451 711 q 606 614 572 667 q 640 475 640 561 l 640 204 q 649 86 640 139 q 672 0 658 33 m 285 -17 q 126 36 186 -17 q 67 181 67 89 q 119 312 67 264 q 276 381 172 360 l 403 404 q 488 433 468 418 q 508 481 508 449 l 508 361 q 478 342 499 351 q 418 322 458 332 l 322 303 q 238 267 271 293 q 206 190 206 242 q 238 112 206 140 q 325 83 271 83 q 415 106 372 83 q 483 172 457 128 q 508 274 508 215 l 533 158 q 435 25 503 67 q 285 -17 367 -17 m 329 772 l 235 904 q 210 958 213 932 q 222 1000 207 983 q 267 1017 238 1017 q 316 999 296 1017 q 356 940 336 982 l 428 772 l 329 772 z "},"ā":{"ha":743,"x_min":67,"x_max":672,"o":"m 672 0 l 540 0 q 524 61 531 21 q 518 147 518 101 l 508 179 l 508 485 q 469 576 508 551 q 368 600 431 600 q 277 586 311 600 q 222 553 243 572 q 184 521 201 535 q 144 507 167 507 q 105 520 119 507 q 90 558 90 533 q 99 596 90 576 q 131 635 108 615 q 368 711 210 711 q 512 689 451 711 q 606 614 572 667 q 640 475 640 561 l 640 204 q 649 86 640 139 q 672 0 658 33 m 285 -17 q 126 36 186 -17 q 67 181 67 89 q 119 312 67 264 q 276 381 172 360 l 403 404 q 488 433 468 418 q 508 481 508 449 l 508 361 q 478 342 499 351 q 418 322 458 332 l 322 303 q 238 267 271 293 q 206 190 206 242 q 238 112 206 140 q 325 83 271 83 q 415 106 372 83 q 483 172 457 128 q 508 274 508 215 l 533 158 q 435 25 503 67 q 285 -17 367 -17 m 185 950 l 565 950 l 565 849 l 185 849 l 185 950 z "},"ą":{"ha":743,"x_min":67,"x_max":708,"o":"m 672 0 l 540 0 q 524 61 531 21 q 518 147 518 101 l 508 179 l 508 485 q 469 576 508 551 q 368 600 431 600 q 277 586 311 600 q 222 553 243 572 q 184 521 201 535 q 144 507 167 507 q 105 520 119 507 q 90 558 90 533 q 99 596 90 576 q 131 635 108 615 q 368 711 210 711 q 512 689 451 711 q 606 614 572 667 q 640 475 640 561 l 640 204 q 649 86 640 139 q 672 0 658 33 m 285 -17 q 126 36 186 -17 q 67 181 67 89 q 119 312 67 264 q 276 381 172 360 l 403 404 q 488 433 468 418 q 508 481 508 449 l 508 361 q 478 342 499 351 q 418 322 458 332 l 322 303 q 238 267 271 293 q 206 190 206 242 q 238 112 206 140 q 325 83 271 83 q 415 106 372 83 q 483 172 457 128 q 508 274 508 215 l 533 158 q 435 25 503 67 q 285 -17 367 -17 m 663 24 q 569 -62 599 -21 q 540 -142 540 -104 q 561 -192 540 -175 q 617 -210 582 -210 q 663 -203 640 -210 q 708 -186 686 -197 l 708 -267 q 654 -287 685 -279 q 589 -294 624 -294 q 474 -261 517 -294 q 432 -168 432 -228 q 472 -64 432 -110 q 578 22 511 -18 l 663 24 z "},"å":{"ha":743,"x_min":67,"x_max":672,"o":"m 672 0 l 540 0 q 524 61 531 21 q 518 147 518 101 l 508 179 l 508 485 q 469 576 508 551 q 368 600 431 600 q 277 586 311 600 q 222 553 243 572 q 184 521 201 535 q 144 507 167 507 q 105 520 119 507 q 90 558 90 533 q 99 596 90 576 q 131 635 108 615 q 368 711 210 711 q 512 689 451 711 q 606 614 572 667 q 640 475 640 561 l 640 204 q 649 86 640 139 q 672 0 658 33 m 285 -17 q 126 36 186 -17 q 67 181 67 89 q 119 312 67 264 q 276 381 172 360 l 403 404 q 488 433 468 418 q 508 481 508 449 l 508 361 q 478 342 499 351 q 418 322 458 332 l 322 303 q 238 267 271 293 q 206 190 206 242 q 238 112 206 140 q 325 83 271 83 q 415 106 372 83 q 483 172 457 128 q 508 274 508 215 l 533 158 q 435 25 503 67 q 285 -17 367 -17 m 374 758 q 246 795 289 758 q 203 888 203 832 q 246 980 203 943 q 374 1017 289 1017 q 501 980 458 1017 q 544 888 544 943 q 501 795 544 832 q 374 758 458 758 m 374 821 q 434 840 413 821 q 456 888 456 860 q 434 935 456 917 q 374 953 413 953 q 313 935 335 953 q 292 888 292 917 q 313 840 292 860 q 374 821 335 821 z "},"ã":{"ha":743,"x_min":67,"x_max":672,"o":"m 672 0 l 540 0 q 524 61 531 21 q 518 147 518 101 l 508 179 l 508 485 q 469 576 508 551 q 368 600 431 600 q 277 586 311 600 q 222 553 243 572 q 184 521 201 535 q 144 507 167 507 q 105 520 119 507 q 90 558 90 533 q 99 596 90 576 q 131 635 108 615 q 368 711 210 711 q 512 689 451 711 q 606 614 572 667 q 640 475 640 561 l 640 204 q 649 86 640 139 q 672 0 658 33 m 285 -17 q 126 36 186 -17 q 67 181 67 89 q 119 312 67 264 q 276 381 172 360 l 403 404 q 488 433 468 418 q 508 481 508 449 l 508 361 q 478 342 499 351 q 418 322 458 332 l 322 303 q 238 267 271 293 q 206 190 206 242 q 238 112 206 140 q 325 83 271 83 q 415 106 372 83 q 483 172 457 128 q 508 274 508 215 l 533 158 q 435 25 503 67 q 285 -17 367 -17 m 485 779 q 415 797 444 779 q 361 840 385 815 q 316 882 338 864 q 268 900 294 900 q 228 873 242 900 q 218 788 215 846 l 132 788 q 158 941 122 886 q 263 996 194 996 q 334 978 304 996 q 387 935 364 960 q 431 892 410 910 q 478 874 453 874 q 513 894 501 874 q 525 953 525 915 q 535 999 525 982 q 568 1015 546 1015 q 608 993 596 1015 q 619 936 619 971 q 603 853 619 889 q 556 799 586 818 q 485 779 526 779 z "},"æ":{"ha":1192,"x_min":67,"x_max":1136,"o":"m 286 -17 q 126 35 186 -17 q 67 181 67 88 q 92 278 67 239 q 165 343 117 318 q 285 382 214 368 l 407 404 q 473 424 450 414 q 504 449 496 433 q 513 492 513 465 l 513 361 q 483 343 503 351 q 422 325 463 335 l 324 306 q 240 268 272 294 q 208 190 208 242 q 241 112 208 140 q 328 83 274 83 q 417 106 375 83 q 486 172 460 128 q 513 274 513 215 l 558 163 q 494 60 538 100 q 397 2 451 21 q 286 -17 343 -17 m 522 147 l 513 179 l 513 485 q 473 576 513 551 q 371 600 433 600 q 279 586 314 600 q 223 553 244 572 q 184 521 201 535 q 143 507 167 507 q 104 520 119 507 q 89 558 89 533 q 98 596 89 576 q 129 635 107 615 q 224 689 164 667 q 369 711 283 711 q 558 658 490 711 q 626 475 626 606 l 626 204 l 522 147 m 867 -17 q 606 76 699 -17 q 513 333 513 168 q 558 532 513 447 q 681 664 603 617 q 861 711 758 711 q 1009 681 947 711 q 1103 599 1071 650 q 1136 486 1136 547 q 1107 388 1136 428 q 1025 326 1078 349 q 903 298 972 304 q 757 300 835 292 q 597 329 679 308 l 597 417 q 747 391 675 397 q 877 392 819 385 q 969 425 935 400 q 1003 494 1003 450 q 966 574 1003 540 q 860 608 929 608 q 751 577 799 608 q 675 486 703 546 q 647 342 647 426 q 674 204 647 260 q 752 119 700 149 q 882 90 804 90 q 1000 106 940 90 q 1118 151 1060 121 l 1118 50 q 1011 3 1074 24 q 867 -17 949 -17 z "},"b":{"ha":849,"x_min":114,"x_max":785,"o":"m 439 -17 q 201 72 289 -17 q 114 314 114 161 l 244 308 q 299 157 244 215 q 439 99 353 99 q 590 167 533 99 q 646 349 646 235 q 619 477 646 422 q 546 563 593 532 q 435 593 499 593 q 297 539 350 593 q 244 397 244 485 l 213 525 q 315 663 247 614 q 474 711 382 711 q 633 667 563 711 q 744 543 704 624 q 785 353 785 463 q 744 161 785 244 q 626 31 703 78 q 439 -17 549 -17 m 244 253 l 114 314 l 114 1000 l 244 1000 l 244 253 z "},"c":{"ha":704,"x_min":63,"x_max":664,"o":"m 664 557 q 647 514 664 529 q 606 499 631 499 q 563 515 579 499 q 528 550 546 531 q 483 585 511 569 q 408 600 456 600 q 258 532 313 600 q 204 349 204 464 q 231 217 204 272 q 308 131 257 161 q 436 101 360 101 q 538 115 486 101 q 647 160 590 129 l 647 49 q 552 3 607 24 q 418 -17 497 -17 q 158 79 253 -17 q 63 340 63 175 q 106 535 63 451 q 227 665 149 618 q 411 711 306 711 q 542 688 486 711 q 629 632 597 665 q 664 557 664 597 z "},"ć":{"ha":704,"x_min":63,"x_max":664,"o":"m 664 557 q 647 514 664 529 q 606 499 631 499 q 563 515 579 499 q 528 550 546 531 q 483 585 511 569 q 408 600 456 600 q 258 532 313 600 q 204 349 204 464 q 231 217 204 272 q 308 131 257 161 q 436 101 360 101 q 538 115 486 101 q 647 160 590 129 l 647 49 q 552 3 607 24 q 418 -17 497 -17 q 158 79 253 -17 q 63 340 63 175 q 106 535 63 451 q 227 665 149 618 q 411 711 306 711 q 542 688 486 711 q 629 632 597 665 q 664 557 664 597 m 442 772 l 343 772 l 415 940 q 455 999 433 982 q 504 1017 476 1017 q 549 1000 533 1017 q 562 958 564 983 q 536 904 560 932 l 442 772 z "},"č":{"ha":704,"x_min":63,"x_max":664,"o":"m 664 557 q 647 514 664 529 q 606 499 631 499 q 563 515 579 499 q 528 550 546 531 q 483 585 511 569 q 408 600 456 600 q 258 532 313 600 q 204 349 204 464 q 231 217 204 272 q 308 131 257 161 q 436 101 360 101 q 538 115 486 101 q 647 160 590 129 l 647 49 q 552 3 607 24 q 418 -17 497 -17 q 158 79 253 -17 q 63 340 63 175 q 106 535 63 451 q 227 665 149 618 q 411 711 306 711 q 542 688 486 711 q 629 632 597 665 q 664 557 664 597 m 599 1000 l 492 824 q 451 773 472 790 q 396 756 431 756 q 342 774 363 756 q 300 825 321 792 l 194 1000 l 290 1000 l 396 863 l 503 1000 l 599 1000 z "},"ç":{"ha":704,"x_min":63,"x_max":664,"o":"m 664 557 q 647 514 664 529 q 606 499 631 499 q 563 515 579 499 q 528 550 546 531 q 483 585 511 569 q 408 600 456 600 q 258 532 313 600 q 204 349 204 464 q 231 217 204 272 q 308 131 257 161 q 436 101 360 101 q 538 115 486 101 q 647 160 590 129 l 647 49 q 552 3 607 24 q 418 -17 497 -17 q 158 79 253 -17 q 63 340 63 175 q 106 535 63 451 q 227 665 149 618 q 411 711 306 711 q 542 688 486 711 q 629 632 597 665 q 664 557 664 597 m 451 -178 q 433 -147 451 -157 q 378 -136 414 -136 q 365 -136 372 -136 q 351 -136 358 -136 q 307 -124 318 -136 q 300 -81 296 -111 l 315 25 l 394 25 l 376 -106 l 340 -74 q 449 -72 406 -65 q 516 -94 492 -78 q 550 -131 540 -110 q 560 -176 560 -153 q 511 -267 560 -240 q 394 -294 463 -294 q 328 -287 360 -294 q 271 -269 296 -281 l 271 -199 q 324 -215 297 -208 q 379 -221 351 -221 q 432 -211 413 -221 q 451 -178 451 -201 z "},"ĉ":{"ha":704,"x_min":63,"x_max":664,"o":"m 664 557 q 647 514 664 529 q 606 499 631 499 q 563 515 579 499 q 528 550 546 531 q 483 585 511 569 q 408 600 456 600 q 258 532 313 600 q 204 349 204 464 q 231 217 204 272 q 308 131 257 161 q 436 101 360 101 q 538 115 486 101 q 647 160 590 129 l 647 49 q 552 3 607 24 q 418 -17 497 -17 q 158 79 253 -17 q 63 340 63 175 q 106 535 63 451 q 227 665 149 618 q 411 711 306 711 q 542 688 486 711 q 629 632 597 665 q 664 557 664 597 m 194 772 l 300 949 q 342 999 321 982 q 396 1017 363 1017 q 451 999 431 1017 q 492 947 472 981 l 599 772 l 503 772 l 396 910 l 290 772 l 194 772 z "},"ċ":{"ha":704,"x_min":63,"x_max":664,"o":"m 664 557 q 647 514 664 529 q 606 499 631 499 q 563 515 579 499 q 528 550 546 531 q 483 585 511 569 q 408 600 456 600 q 258 532 313 600 q 204 349 204 464 q 231 217 204 272 q 308 131 257 161 q 436 101 360 101 q 538 115 486 101 q 647 160 590 129 l 647 49 q 552 3 607 24 q 418 -17 497 -17 q 158 79 253 -17 q 63 340 63 175 q 106 535 63 451 q 227 665 149 618 q 411 711 306 711 q 542 688 486 711 q 629 632 597 665 q 664 557 664 597 m 396 815 q 333 838 354 815 q 311 894 311 861 q 333 951 311 928 q 396 974 354 974 q 458 951 438 974 q 479 894 479 928 q 458 838 479 861 q 396 815 438 815 z "},"d":{"ha":849,"x_min":63,"x_max":735,"o":"m 735 1000 l 735 0 l 603 0 l 603 1000 l 735 1000 m 636 169 q 535 33 601 82 q 374 -17 468 -17 q 215 28 286 -17 q 103 153 144 72 q 63 344 63 235 q 103 538 63 456 q 215 665 143 619 q 381 711 288 711 q 535 667 472 711 q 621 544 597 624 l 603 401 q 578 501 603 457 q 511 571 554 546 q 413 596 468 596 q 303 564 350 596 q 228 476 256 532 q 201 346 201 421 q 228 217 201 272 q 303 132 256 163 q 414 101 350 101 q 551 156 499 101 q 603 297 603 210 l 636 169 z "},"ď":{"ha":849,"x_min":63,"x_max":967,"o":"m 735 1000 l 735 0 l 603 0 l 603 1000 l 735 1000 m 636 169 q 535 33 601 82 q 374 -17 468 -17 q 215 28 286 -17 q 103 153 144 72 q 63 344 63 235 q 103 538 63 456 q 215 665 143 619 q 381 711 288 711 q 535 667 472 711 q 621 544 597 624 l 603 401 q 578 501 603 457 q 511 571 554 546 q 413 596 468 596 q 303 564 350 596 q 228 476 256 532 q 201 346 201 421 q 228 217 201 272 q 303 132 256 163 q 414 101 350 101 q 551 156 499 101 q 603 297 603 210 l 636 169 m 821 772 l 836 928 q 863 999 842 981 q 910 1017 883 1017 q 953 1001 939 1017 q 967 960 967 986 q 954 901 968 933 l 908 772 l 821 772 z "},"đ":{"ha":849,"x_min":63,"x_max":844,"o":"m 735 1000 l 735 0 l 603 0 l 603 1000 l 735 1000 m 636 169 q 535 33 601 82 q 374 -17 468 -17 q 215 28 286 -17 q 103 153 144 72 q 63 344 63 235 q 103 538 63 456 q 215 665 143 619 q 381 711 288 711 q 535 667 472 711 q 621 544 597 624 l 603 401 q 578 501 603 457 q 511 571 554 546 q 413 596 468 596 q 303 564 350 596 q 228 476 256 532 q 201 346 201 421 q 228 217 201 272 q 303 132 256 163 q 414 101 350 101 q 551 156 499 101 q 603 297 603 210 l 636 169 m 358 883 l 844 883 l 844 790 l 358 790 l 358 883 z "},"ð":{"ha":822,"x_min":63,"x_max":760,"o":"m 63 315 q 103 490 63 417 q 217 604 144 564 q 383 644 290 644 q 525 614 461 644 q 624 522 589 583 l 760 364 q 666 83 760 182 q 408 -17 572 -17 q 229 23 307 -17 q 107 137 151 63 q 63 315 63 211 m 200 310 q 258 150 200 207 q 407 93 317 93 q 561 152 500 93 q 622 317 622 211 q 564 477 622 421 q 415 533 506 533 q 261 475 322 533 q 200 310 200 417 m 354 1000 q 569 843 479 943 q 710 619 660 743 q 760 364 760 496 l 633 388 q 583 609 633 501 q 439 808 533 717 q 213 967 344 900 l 354 1000 m 243 813 l 676 950 l 676 857 l 243 719 l 243 813 z "},"e":{"ha":742,"x_min":63,"x_max":686,"o":"m 417 -17 q 156 76 249 -17 q 63 333 63 168 q 107 532 63 447 q 230 664 151 617 q 411 711 308 711 q 559 681 497 711 q 653 599 621 650 q 686 486 686 547 q 657 388 686 428 q 575 326 628 349 q 453 298 522 304 q 307 300 385 292 q 147 329 229 308 l 147 417 q 297 391 225 397 q 427 392 369 385 q 519 425 485 400 q 553 494 553 450 q 516 574 553 540 q 410 608 479 608 q 301 577 349 608 q 225 486 253 546 q 197 342 197 426 q 224 204 197 260 q 301 119 250 149 q 432 90 353 90 q 550 106 490 90 q 668 151 610 121 l 668 50 q 561 3 624 24 q 417 -17 499 -17 z "},"é":{"ha":742,"x_min":63,"x_max":686,"o":"m 417 -17 q 156 76 249 -17 q 63 333 63 168 q 107 532 63 447 q 230 664 151 617 q 411 711 308 711 q 559 681 497 711 q 653 599 621 650 q 686 486 686 547 q 657 388 686 428 q 575 326 628 349 q 453 298 522 304 q 307 300 385 292 q 147 329 229 308 l 147 417 q 297 391 225 397 q 427 392 369 385 q 519 425 485 400 q 553 494 553 450 q 516 574 553 540 q 410 608 479 608 q 301 577 349 608 q 225 486 253 546 q 197 342 197 426 q 224 204 197 260 q 301 119 250 149 q 432 90 353 90 q 550 106 490 90 q 668 151 610 121 l 668 50 q 561 3 624 24 q 417 -17 499 -17 m 451 772 l 353 772 l 425 940 q 465 999 443 982 q 514 1017 486 1017 q 558 1000 543 1017 q 572 958 574 983 q 546 904 569 932 l 451 772 z "},"ě":{"ha":742,"x_min":63,"x_max":686,"o":"m 417 -17 q 156 76 249 -17 q 63 333 63 168 q 107 532 63 447 q 230 664 151 617 q 411 711 308 711 q 559 681 497 711 q 653 599 621 650 q 686 486 686 547 q 657 388 686 428 q 575 326 628 349 q 453 298 522 304 q 307 300 385 292 q 147 329 229 308 l 147 417 q 297 391 225 397 q 427 392 369 385 q 519 425 485 400 q 553 494 553 450 q 516 574 553 540 q 410 608 479 608 q 301 577 349 608 q 225 486 253 546 q 197 342 197 426 q 224 204 197 260 q 301 119 250 149 q 432 90 353 90 q 550 106 490 90 q 668 151 610 121 l 668 50 q 561 3 624 24 q 417 -17 499 -17 m 608 1000 l 501 824 q 461 773 482 790 q 406 756 440 756 q 351 774 372 756 q 310 825 331 792 l 204 1000 l 300 1000 l 406 863 l 513 1000 l 608 1000 z "},"ê":{"ha":742,"x_min":63,"x_max":686,"o":"m 417 -17 q 156 76 249 -17 q 63 333 63 168 q 107 532 63 447 q 230 664 151 617 q 411 711 308 711 q 559 681 497 711 q 653 599 621 650 q 686 486 686 547 q 657 388 686 428 q 575 326 628 349 q 453 298 522 304 q 307 300 385 292 q 147 329 229 308 l 147 417 q 297 391 225 397 q 427 392 369 385 q 519 425 485 400 q 553 494 553 450 q 516 574 553 540 q 410 608 479 608 q 301 577 349 608 q 225 486 253 546 q 197 342 197 426 q 224 204 197 260 q 301 119 250 149 q 432 90 353 90 q 550 106 490 90 q 668 151 610 121 l 668 50 q 561 3 624 24 q 417 -17 499 -17 m 204 772 l 310 949 q 351 999 331 982 q 406 1017 372 1017 q 461 999 440 1017 q 501 947 482 981 l 608 772 l 513 772 l 406 910 l 300 772 l 204 772 z "},"ë":{"ha":742,"x_min":63,"x_max":686,"o":"m 417 -17 q 156 76 249 -17 q 63 333 63 168 q 107 532 63 447 q 230 664 151 617 q 411 711 308 711 q 559 681 497 711 q 653 599 621 650 q 686 486 686 547 q 657 388 686 428 q 575 326 628 349 q 453 298 522 304 q 307 300 385 292 q 147 329 229 308 l 147 417 q 297 391 225 397 q 427 392 369 385 q 519 425 485 400 q 553 494 553 450 q 516 574 553 540 q 410 608 479 608 q 301 577 349 608 q 225 486 253 546 q 197 342 197 426 q 224 204 197 260 q 301 119 250 149 q 432 90 353 90 q 550 106 490 90 q 668 151 610 121 l 668 50 q 561 3 624 24 q 417 -17 499 -17 m 271 825 q 214 846 233 825 q 194 899 194 867 q 214 952 194 931 q 271 974 233 974 q 326 952 307 974 q 344 899 344 931 q 326 846 344 867 q 271 825 307 825 m 542 825 q 485 846 504 825 q 465 899 465 867 q 485 952 465 931 q 542 974 504 974 q 597 952 578 974 q 615 899 615 931 q 597 846 615 867 q 542 825 578 825 z "},"ė":{"ha":742,"x_min":63,"x_max":686,"o":"m 417 -17 q 156 76 249 -17 q 63 333 63 168 q 107 532 63 447 q 230 664 151 617 q 411 711 308 711 q 559 681 497 711 q 653 599 621 650 q 686 486 686 547 q 657 388 686 428 q 575 326 628 349 q 453 298 522 304 q 307 300 385 292 q 147 329 229 308 l 147 417 q 297 391 225 397 q 427 392 369 385 q 519 425 485 400 q 553 494 553 450 q 516 574 553 540 q 410 608 479 608 q 301 577 349 608 q 225 486 253 546 q 197 342 197 426 q 224 204 197 260 q 301 119 250 149 q 432 90 353 90 q 550 106 490 90 q 668 151 610 121 l 668 50 q 561 3 624 24 q 417 -17 499 -17 m 407 815 q 344 838 365 815 q 322 894 322 861 q 344 951 322 928 q 407 974 365 974 q 469 951 449 974 q 490 894 490 928 q 469 838 490 861 q 407 815 449 815 z "},"è":{"ha":742,"x_min":63,"x_max":686,"o":"m 417 -17 q 156 76 249 -17 q 63 333 63 168 q 107 532 63 447 q 230 664 151 617 q 411 711 308 711 q 559 681 497 711 q 653 599 621 650 q 686 486 686 547 q 657 388 686 428 q 575 326 628 349 q 453 298 522 304 q 307 300 385 292 q 147 329 229 308 l 147 417 q 297 391 225 397 q 427 392 369 385 q 519 425 485 400 q 553 494 553 450 q 516 574 553 540 q 410 608 479 608 q 301 577 349 608 q 225 486 253 546 q 197 342 197 426 q 224 204 197 260 q 301 119 250 149 q 432 90 353 90 q 550 106 490 90 q 668 151 610 121 l 668 50 q 561 3 624 24 q 417 -17 499 -17 m 361 772 l 267 904 q 242 958 244 932 q 254 1000 239 983 q 299 1017 269 1017 q 348 999 328 1017 q 388 940 368 982 l 460 772 l 361 772 z "},"ē":{"ha":742,"x_min":63,"x_max":686,"o":"m 417 -17 q 156 76 249 -17 q 63 333 63 168 q 107 532 63 447 q 230 664 151 617 q 411 711 308 711 q 559 681 497 711 q 653 599 621 650 q 686 486 686 547 q 657 388 686 428 q 575 326 628 349 q 453 298 522 304 q 307 300 385 292 q 147 329 229 308 l 147 417 q 297 391 225 397 q 427 392 369 385 q 519 425 485 400 q 553 494 553 450 q 516 574 553 540 q 410 608 479 608 q 301 577 349 608 q 225 486 253 546 q 197 342 197 426 q 224 204 197 260 q 301 119 250 149 q 432 90 353 90 q 550 106 490 90 q 668 151 610 121 l 668 50 q 561 3 624 24 q 417 -17 499 -17 m 217 950 l 597 950 l 597 849 l 217 849 l 217 950 z "},"ę":{"ha":742,"x_min":63,"x_max":686,"o":"m 417 -17 q 156 76 249 -17 q 63 333 63 168 q 107 532 63 447 q 230 664 151 617 q 411 711 308 711 q 559 681 497 711 q 653 599 621 650 q 686 486 686 547 q 657 388 686 428 q 575 326 628 349 q 453 298 522 304 q 307 300 385 292 q 147 329 229 308 l 147 417 q 297 391 225 397 q 427 392 369 385 q 519 425 485 400 q 553 494 553 450 q 516 574 553 540 q 410 608 479 608 q 301 577 349 608 q 225 486 253 546 q 197 342 197 426 q 224 204 197 260 q 301 119 250 149 q 432 90 353 90 q 550 106 490 90 q 668 151 610 121 l 668 50 q 561 3 624 24 q 417 -17 499 -17 m 615 24 q 522 -62 551 -21 q 493 -142 493 -104 q 514 -192 493 -175 q 569 -210 535 -210 q 616 -203 593 -210 q 661 -186 639 -197 l 661 -267 q 607 -287 638 -279 q 542 -294 576 -294 q 427 -261 469 -294 q 385 -168 385 -228 q 424 -64 385 -110 q 531 22 464 -18 l 615 24 z "},"ẽ":{"ha":742,"x_min":63,"x_max":686,"o":"m 417 -17 q 156 76 249 -17 q 63 333 63 168 q 107 532 63 447 q 230 664 151 617 q 411 711 308 711 q 559 681 497 711 q 653 599 621 650 q 686 486 686 547 q 657 388 686 428 q 575 326 628 349 q 453 298 522 304 q 307 300 385 292 q 147 329 229 308 l 147 417 q 297 391 225 397 q 427 392 369 385 q 519 425 485 400 q 553 494 553 450 q 516 574 553 540 q 410 608 479 608 q 301 577 349 608 q 225 486 253 546 q 197 342 197 426 q 224 204 197 260 q 301 119 250 149 q 432 90 353 90 q 550 106 490 90 q 668 151 610 121 l 668 50 q 561 3 624 24 q 417 -17 499 -17 m 517 779 q 447 797 476 779 q 393 840 417 815 q 348 882 369 864 q 300 900 326 900 q 260 873 274 900 q 250 788 247 846 l 164 788 q 190 941 154 886 q 294 996 226 996 q 366 978 336 996 q 419 935 396 960 q 463 892 442 910 q 510 874 485 874 q 545 894 533 874 q 557 953 557 915 q 567 999 557 982 q 600 1015 578 1015 q 640 993 628 1015 q 651 936 651 971 q 635 853 651 889 q 588 799 618 818 q 517 779 558 779 z "},"f":{"ha":517,"x_min":33,"x_max":515,"o":"m 149 0 l 149 783 q 179 914 149 863 q 264 991 210 965 q 385 1017 318 1017 q 481 996 447 1017 q 515 939 515 975 q 502 901 515 915 q 468 888 489 888 q 430 895 450 888 q 383 903 410 903 q 311 875 343 903 q 279 781 279 847 l 279 0 l 149 0 m 99 578 q 52 592 71 578 q 33 636 33 607 q 52 680 33 665 q 99 694 71 694 l 500 694 l 500 578 l 99 578 z "},"g":{"ha":800,"x_min":71,"x_max":772,"o":"m 390 -294 q 235 -280 300 -294 q 133 -240 169 -265 q 101 -212 113 -228 q 90 -176 90 -196 q 103 -142 90 -156 q 143 -128 117 -128 q 184 -137 164 -128 q 231 -160 204 -147 q 298 -183 257 -174 q 404 -193 339 -193 q 556 -166 497 -193 q 615 -78 615 -139 q 585 -17 615 -40 q 472 7 556 7 l 272 7 q 153 26 196 7 q 90 76 110 44 q 71 146 71 108 q 115 247 71 208 q 238 296 158 286 l 376 258 q 262 247 301 258 q 208 217 222 235 q 193 178 193 199 q 217 138 193 150 q 299 125 242 125 l 496 125 q 678 81 613 125 q 744 -65 744 36 q 658 -236 744 -178 q 390 -294 571 -294 m 376 258 q 165 316 244 258 q 86 479 86 374 q 124 604 86 553 q 231 683 163 656 q 392 711 300 711 l 568 650 q 630 608 606 633 q 666 549 654 582 q 678 479 678 517 q 642 360 678 410 q 538 285 606 311 q 376 258 469 258 m 381 347 q 503 383 457 347 q 550 488 550 419 q 505 588 550 554 q 386 622 460 622 q 265 586 313 622 q 218 482 218 550 q 264 382 218 417 q 381 347 310 347 m 772 581 q 666 586 714 581 q 553 603 618 592 l 392 711 q 583 703 490 711 q 772 694 676 694 l 772 581 z "},"ğ":{"ha":800,"x_min":71,"x_max":772,"o":"m 390 -294 q 235 -280 300 -294 q 133 -240 169 -265 q 101 -212 113 -228 q 90 -176 90 -196 q 103 -142 90 -156 q 143 -128 117 -128 q 184 -137 164 -128 q 231 -160 204 -147 q 298 -183 257 -174 q 404 -193 339 -193 q 556 -166 497 -193 q 615 -78 615 -139 q 585 -17 615 -40 q 472 7 556 7 l 272 7 q 153 26 196 7 q 90 76 110 44 q 71 146 71 108 q 115 247 71 208 q 238 296 158 286 l 376 258 q 262 247 301 258 q 208 217 222 235 q 193 178 193 199 q 217 138 193 150 q 299 125 242 125 l 496 125 q 678 81 613 125 q 744 -65 744 36 q 658 -236 744 -178 q 390 -294 571 -294 m 376 258 q 165 316 244 258 q 86 479 86 374 q 124 604 86 553 q 231 683 163 656 q 392 711 300 711 l 568 650 q 630 608 606 633 q 666 549 654 582 q 678 479 678 517 q 642 360 678 410 q 538 285 606 311 q 376 258 469 258 m 381 347 q 503 383 457 347 q 550 488 550 419 q 505 588 550 554 q 386 622 460 622 q 265 586 313 622 q 218 482 218 550 q 264 382 218 417 q 381 347 310 347 m 772 581 q 666 586 714 581 q 553 603 618 592 l 392 711 q 583 703 490 711 q 772 694 676 694 l 772 581 m 293 1000 q 310 899 286 938 q 399 861 335 861 q 486 899 461 861 q 503 1000 511 938 l 589 1000 q 556 827 607 886 q 399 768 504 768 q 240 827 292 768 q 207 1000 189 886 l 293 1000 z "},"ĝ":{"ha":800,"x_min":71,"x_max":772,"o":"m 390 -294 q 235 -280 300 -294 q 133 -240 169 -265 q 101 -212 113 -228 q 90 -176 90 -196 q 103 -142 90 -156 q 143 -128 117 -128 q 184 -137 164 -128 q 231 -160 204 -147 q 298 -183 257 -174 q 404 -193 339 -193 q 556 -166 497 -193 q 615 -78 615 -139 q 585 -17 615 -40 q 472 7 556 7 l 272 7 q 153 26 196 7 q 90 76 110 44 q 71 146 71 108 q 115 247 71 208 q 238 296 158 286 l 376 258 q 262 247 301 258 q 208 217 222 235 q 193 178 193 199 q 217 138 193 150 q 299 125 242 125 l 496 125 q 678 81 613 125 q 744 -65 744 36 q 658 -236 744 -178 q 390 -294 571 -294 m 376 258 q 165 316 244 258 q 86 479 86 374 q 124 604 86 553 q 231 683 163 656 q 392 711 300 711 l 568 650 q 630 608 606 633 q 666 549 654 582 q 678 479 678 517 q 642 360 678 410 q 538 285 606 311 q 376 258 469 258 m 381 347 q 503 383 457 347 q 550 488 550 419 q 505 588 550 554 q 386 622 460 622 q 265 586 313 622 q 218 482 218 550 q 264 382 218 417 q 381 347 310 347 m 772 581 q 666 586 714 581 q 553 603 618 592 l 392 711 q 583 703 490 711 q 772 694 676 694 l 772 581 m 197 772 l 303 949 q 344 999 324 982 q 399 1017 365 1017 q 454 999 433 1017 q 494 947 475 981 l 601 772 l 506 772 l 399 910 l 293 772 l 197 772 z "},"ģ":{"ha":800,"x_min":71,"x_max":772,"o":"m 390 -294 q 235 -280 300 -294 q 133 -240 169 -265 q 101 -212 113 -228 q 90 -176 90 -196 q 103 -142 90 -156 q 143 -128 117 -128 q 184 -137 164 -128 q 231 -160 204 -147 q 298 -183 257 -174 q 404 -193 339 -193 q 556 -166 497 -193 q 615 -78 615 -139 q 585 -17 615 -40 q 472 7 556 7 l 272 7 q 153 26 196 7 q 90 76 110 44 q 71 146 71 108 q 115 247 71 208 q 238 296 158 286 l 376 258 q 262 247 301 258 q 208 217 222 235 q 193 178 193 199 q 217 138 193 150 q 299 125 242 125 l 496 125 q 678 81 613 125 q 744 -65 744 36 q 658 -236 744 -178 q 390 -294 571 -294 m 376 258 q 165 316 244 258 q 86 479 86 374 q 124 604 86 553 q 231 683 163 656 q 392 711 300 711 l 568 650 q 630 608 606 633 q 666 549 654 582 q 678 479 678 517 q 642 360 678 410 q 538 285 606 311 q 376 258 469 258 m 381 347 q 503 383 457 347 q 550 488 550 419 q 505 588 550 554 q 386 622 460 622 q 265 586 313 622 q 218 482 218 550 q 264 382 218 417 q 381 347 310 347 m 772 581 q 666 586 714 581 q 553 603 618 592 l 392 711 q 583 703 490 711 q 772 694 676 694 l 772 581 m 465 972 q 435 899 442 935 q 433 825 428 863 l 367 863 q 431 868 404 872 q 472 850 458 864 q 485 814 485 836 q 463 769 485 788 q 400 751 442 751 q 339 769 364 751 q 314 822 314 786 q 333 897 314 860 q 385 972 353 933 l 465 972 z "},"ġ":{"ha":800,"x_min":71,"x_max":772,"o":"m 390 -294 q 235 -280 300 -294 q 133 -240 169 -265 q 101 -212 113 -228 q 90 -176 90 -196 q 103 -142 90 -156 q 143 -128 117 -128 q 184 -137 164 -128 q 231 -160 204 -147 q 298 -183 257 -174 q 404 -193 339 -193 q 556 -166 497 -193 q 615 -78 615 -139 q 585 -17 615 -40 q 472 7 556 7 l 272 7 q 153 26 196 7 q 90 76 110 44 q 71 146 71 108 q 115 247 71 208 q 238 296 158 286 l 376 258 q 262 247 301 258 q 208 217 222 235 q 193 178 193 199 q 217 138 193 150 q 299 125 242 125 l 496 125 q 678 81 613 125 q 744 -65 744 36 q 658 -236 744 -178 q 390 -294 571 -294 m 376 258 q 165 316 244 258 q 86 479 86 374 q 124 604 86 553 q 231 683 163 656 q 392 711 300 711 l 568 650 q 630 608 606 633 q 666 549 654 582 q 678 479 678 517 q 642 360 678 410 q 538 285 606 311 q 376 258 469 258 m 381 347 q 503 383 457 347 q 550 488 550 419 q 505 588 550 554 q 386 622 460 622 q 265 586 313 622 q 218 482 218 550 q 264 382 218 417 q 381 347 310 347 m 772 581 q 666 586 714 581 q 553 603 618 592 l 392 711 q 583 703 490 711 q 772 694 676 694 l 772 581 m 399 815 q 335 838 357 815 q 314 894 314 861 q 335 951 314 928 q 399 974 357 974 q 461 951 440 974 q 482 894 482 928 q 461 838 482 861 q 399 815 440 815 z "},"ḡ":{"ha":800,"x_min":71,"x_max":772,"o":"m 390 -294 q 235 -280 300 -294 q 133 -240 169 -265 q 101 -212 113 -228 q 90 -176 90 -196 q 103 -142 90 -156 q 143 -128 117 -128 q 184 -137 164 -128 q 231 -160 204 -147 q 298 -183 257 -174 q 404 -193 339 -193 q 556 -166 497 -193 q 615 -78 615 -139 q 585 -17 615 -40 q 472 7 556 7 l 272 7 q 153 26 196 7 q 90 76 110 44 q 71 146 71 108 q 115 247 71 208 q 238 296 158 286 l 376 258 q 262 247 301 258 q 208 217 222 235 q 193 178 193 199 q 217 138 193 150 q 299 125 242 125 l 496 125 q 678 81 613 125 q 744 -65 744 36 q 658 -236 744 -178 q 390 -294 571 -294 m 376 258 q 165 316 244 258 q 86 479 86 374 q 124 604 86 553 q 231 683 163 656 q 392 711 300 711 l 568 650 q 630 608 606 633 q 666 549 654 582 q 678 479 678 517 q 642 360 678 410 q 538 285 606 311 q 376 258 469 258 m 381 347 q 503 383 457 347 q 550 488 550 419 q 505 588 550 554 q 386 622 460 622 q 265 586 313 622 q 218 482 218 550 q 264 382 218 417 q 381 347 310 347 m 772 581 q 666 586 714 581 q 553 603 618 592 l 392 711 q 583 703 490 711 q 772 694 676 694 l 772 581 m 208 950 l 589 950 l 589 849 l 208 849 l 208 950 z "},"h":{"ha":818,"x_min":114,"x_max":725,"o":"m 593 0 l 593 404 q 571 510 593 469 q 512 569 549 550 q 431 588 475 588 q 341 567 383 588 q 272 503 299 546 q 244 393 244 461 l 213 525 q 278 631 238 590 q 370 692 319 672 q 472 711 421 711 q 598 681 540 711 q 690 586 656 650 q 725 419 725 522 l 725 0 l 593 0 m 114 0 l 114 1000 l 244 1000 l 244 0 l 114 0 z "},"ħ":{"ha":818,"x_min":4,"x_max":725,"o":"m 593 0 l 593 404 q 571 510 593 469 q 512 569 549 550 q 431 588 475 588 q 341 567 383 588 q 272 503 299 546 q 244 393 244 461 l 213 525 q 278 631 238 590 q 370 692 319 672 q 472 711 421 711 q 598 681 540 711 q 690 586 656 650 q 725 419 725 522 l 725 0 l 593 0 m 114 0 l 114 1000 l 244 1000 l 244 0 l 114 0 m 4 883 l 490 883 l 490 790 l 4 790 l 4 883 z "},"ĥ":{"ha":818,"x_min":-4,"x_max":725,"o":"m 593 0 l 593 404 q 571 510 593 469 q 512 569 549 550 q 431 588 475 588 q 341 567 383 588 q 272 503 299 546 q 244 393 244 461 l 213 525 q 278 631 238 590 q 370 692 319 672 q 472 711 421 711 q 598 681 540 711 q 690 586 656 650 q 725 419 725 522 l 725 0 l 593 0 m 114 0 l 114 1000 l 244 1000 l 244 0 l 114 0 m -4 1068 l 94 1214 q 133 1254 114 1242 q 179 1267 153 1267 q 226 1254 207 1267 q 264 1213 244 1242 l 364 1068 l 274 1068 l 179 1171 l 86 1068 l -4 1068 z "},"i":{"ha":358,"x_min":94,"x_max":264,"o":"m 114 0 l 114 696 q 244 696 179 683 l 244 0 l 114 0 m 179 815 q 116 838 138 815 q 94 894 94 861 q 116 951 94 928 q 179 974 138 974 q 242 951 221 974 q 263 894 263 928 q 242 838 263 861 q 179 815 221 815 z "},"ı":{"ha":358,"x_min":114,"x_max":244,"o":"m 114 0 l 114 696 q 244 696 179 683 l 244 0 l 114 0 z "},"í":{"ha":358,"x_min":114,"x_max":347,"o":"m 114 0 l 114 696 q 244 696 179 683 l 244 0 l 114 0 m 225 772 l 126 772 l 199 940 q 238 999 217 982 q 288 1017 260 1017 q 332 1000 317 1017 q 345 958 347 983 q 319 904 343 932 l 225 772 z "},"î":{"ha":358,"x_min":-22,"x_max":381,"o":"m 114 0 l 114 696 q 244 696 179 683 l 244 0 l 114 0 m -22 772 l 83 949 q 125 999 104 982 q 179 1017 146 1017 q 235 999 214 1017 q 275 947 256 981 l 382 772 l 286 772 l 179 910 l 74 772 l -22 772 z "},"ï":{"ha":358,"x_min":-32,"x_max":389,"o":"m 114 0 l 114 696 q 244 696 179 683 l 244 0 l 114 0 m 43 825 q -14 846 6 825 q -33 899 -33 867 q -14 952 -33 931 q 43 974 6 974 q 98 952 79 974 q 117 899 117 931 q 98 846 117 867 q 43 825 79 825 m 314 825 q 257 846 276 825 q 238 899 238 867 q 257 952 238 931 q 314 974 276 974 q 369 952 350 974 q 388 899 388 931 q 369 846 388 867 q 314 825 350 825 z "},"ì":{"ha":358,"x_min":11,"x_max":244,"o":"m 114 0 l 114 696 q 244 696 179 683 l 244 0 l 114 0 m 133 772 l 39 904 q 14 958 17 932 q 26 1000 11 983 q 71 1017 42 1017 q 120 999 100 1017 q 160 940 140 982 l 232 772 l 133 772 z "},"ī":{"ha":358,"x_min":-11,"x_max":369,"o":"m 114 0 l 114 696 q 244 696 179 683 l 244 0 l 114 0 m -11 950 l 369 950 l 369 849 l -11 849 l -11 950 z "},"į":{"ha":358,"x_min":15,"x_max":292,"o":"m 114 0 l 114 696 q 244 696 179 683 l 244 0 l 114 0 m 179 815 q 116 838 138 815 q 94 894 94 861 q 116 951 94 928 q 179 974 138 974 q 242 951 221 974 q 263 894 263 928 q 242 838 263 861 q 179 815 221 815 m 246 24 q 153 -62 182 -21 q 124 -142 124 -104 q 144 -192 124 -175 q 200 -210 165 -210 q 247 -203 224 -210 q 292 -186 269 -197 l 292 -267 q 238 -287 268 -279 q 172 -294 207 -294 q 58 -261 100 -294 q 15 -168 15 -228 q 55 -64 15 -110 q 161 22 94 -18 l 246 24 z "},"ĩ":{"ha":358,"x_min":-40,"x_max":392,"o":"m 114 0 l 114 696 q 244 696 179 683 l 244 0 l 114 0 m 278 779 q 213 797 240 779 q 165 840 186 815 q 125 882 144 864 q 85 900 106 900 q 53 873 61 900 q 47 788 44 846 l -31 788 q -10 944 -40 892 q 76 996 19 996 q 142 978 115 996 q 191 935 169 960 q 232 892 213 910 q 272 874 251 874 q 298 893 293 874 q 303 943 303 913 q 312 997 303 979 q 342 1015 321 1015 q 379 992 367 1015 q 392 928 392 969 q 378 849 392 882 q 340 797 365 815 q 278 779 315 779 z "},"ĳ":{"ha":715,"x_min":94,"x_max":619,"o":"m 114 0 l 114 696 q 244 696 179 683 l 244 0 l 114 0 m 179 815 q 116 838 138 815 q 94 894 94 861 q 116 951 94 928 q 179 974 138 974 q 242 951 221 974 q 263 894 263 928 q 242 838 263 861 q 179 815 221 815 m 396 -294 q 303 -274 339 -294 q 267 -217 267 -254 q 278 -183 267 -197 q 314 -168 290 -168 q 348 -176 332 -168 q 388 -183 364 -183 q 447 -158 422 -183 q 471 -75 471 -133 l 471 696 q 601 696 536 683 l 601 -78 q 575 -198 601 -150 q 503 -270 549 -246 q 396 -294 457 -294 m 536 815 q 473 838 494 815 q 451 894 451 861 q 473 951 451 928 q 536 974 494 974 q 599 951 578 974 q 619 894 619 928 q 599 838 619 861 q 536 815 578 815 z "},"j":{"ha":358,"x_min":-90,"x_max":264,"o":"m 39 -294 q -54 -274 -18 -294 q -90 -217 -90 -254 q -78 -183 -90 -197 q -43 -168 -67 -168 q -9 -176 -25 -168 q 31 -183 7 -183 q 90 -158 65 -183 q 114 -75 114 -133 l 114 696 q 244 696 179 683 l 244 -78 q 218 -198 244 -150 q 146 -270 192 -246 q 39 -294 100 -294 m 179 815 q 116 838 138 815 q 94 894 94 861 q 116 951 94 928 q 179 974 138 974 q 242 951 221 974 q 263 894 263 928 q 242 838 263 861 q 179 815 221 815 z "},"ȷ":{"ha":358,"x_min":-90,"x_max":244,"o":"m 39 -294 q -54 -274 -18 -294 q -90 -217 -90 -254 q -78 -183 -90 -197 q -43 -168 -67 -168 q -9 -176 -25 -168 q 31 -183 7 -183 q 90 -158 65 -183 q 114 -75 114 -133 l 114 696 q 244 696 179 683 l 244 -78 q 218 -198 244 -150 q 146 -270 192 -246 q 39 -294 100 -294 z "},"ĵ":{"ha":358,"x_min":-90,"x_max":381,"o":"m 39 -294 q -54 -274 -18 -294 q -90 -217 -90 -254 q -78 -183 -90 -197 q -43 -168 -67 -168 q -9 -176 -25 -168 q 31 -183 7 -183 q 90 -158 65 -183 q 114 -75 114 -133 l 114 696 q 244 696 179 683 l 244 -78 q 218 -198 244 -150 q 146 -270 192 -246 q 39 -294 100 -294 m -22 772 l 83 949 q 125 999 104 982 q 179 1017 146 1017 q 235 999 214 1017 q 275 947 256 981 l 382 772 l 286 772 l 179 910 l 74 772 l -22 772 z "},"k":{"ha":715,"x_min":114,"x_max":701,"o":"m 114 0 l 114 1000 l 244 1000 l 244 0 l 114 0 m 201 368 l 529 669 q 570 701 551 690 q 608 711 589 711 q 650 695 635 711 q 665 654 665 679 q 656 619 665 635 q 626 586 646 603 l 325 325 l 318 429 q 464 249 407 317 q 560 147 521 181 q 632 107 600 114 q 701 108 664 100 l 701 1 q 666 -9 685 -6 q 626 -12 647 -12 q 533 9 578 -12 q 441 76 489 31 q 335 195 393 122 q 201 368 278 268 z "},"ķ":{"ha":715,"x_min":114,"x_max":701,"o":"m 114 0 l 114 1000 l 244 1000 l 244 0 l 114 0 m 201 368 l 529 669 q 570 701 551 690 q 608 711 589 711 q 650 695 635 711 q 665 654 665 679 q 656 619 665 635 q 626 586 646 603 l 325 325 l 318 429 q 464 249 407 317 q 560 147 521 181 q 632 107 600 114 q 701 108 664 100 l 701 1 q 666 -9 685 -6 q 626 -12 647 -12 q 533 9 578 -12 q 441 76 489 31 q 335 195 393 122 q 201 368 278 268 m 344 -278 q 376 -204 368 -240 q 376 -131 383 -168 l 443 -168 q 379 -173 406 -176 q 339 -155 353 -169 q 325 -119 325 -140 q 347 -75 325 -93 q 410 -57 368 -57 q 471 -74 446 -57 q 496 -128 496 -92 q 476 -201 496 -164 q 425 -278 457 -239 l 344 -278 z "},"l":{"ha":406,"x_min":114,"x_max":372,"o":"m 244 1000 l 244 193 q 260 121 244 140 q 313 101 276 101 q 342 104 328 101 q 372 113 357 107 l 372 6 q 272 -17 325 -17 q 150 35 186 -17 q 114 172 114 88 l 114 1000 l 244 1000 z "},"ĺ":{"ha":406,"x_min":114,"x_max":372,"o":"m 244 1000 l 244 193 q 260 121 244 140 q 313 101 276 101 q 342 104 328 101 q 372 113 357 107 l 372 6 q 272 -17 325 -17 q 150 35 186 -17 q 114 172 114 88 l 114 1000 l 244 1000 m 235 1068 l 136 1068 l 201 1197 q 239 1249 219 1232 q 286 1267 258 1267 q 333 1251 317 1267 q 347 1213 349 1236 q 321 1167 344 1190 l 235 1068 z "},"ľ":{"ha":406,"x_min":114,"x_max":478,"o":"m 244 1000 l 244 193 q 260 121 244 140 q 313 101 276 101 q 342 104 328 101 q 372 113 357 107 l 372 6 q 272 -17 325 -17 q 150 35 186 -17 q 114 172 114 88 l 114 1000 l 244 1000 m 331 772 l 346 928 q 372 999 351 981 q 419 1017 393 1017 q 463 1001 449 1017 q 477 960 476 986 q 464 901 478 933 l 418 772 l 331 772 z "},"ļ":{"ha":406,"x_min":114,"x_max":372,"o":"m 244 1000 l 244 193 q 260 121 244 140 q 313 101 276 101 q 342 104 328 101 q 372 113 357 107 l 372 6 q 272 -17 325 -17 q 150 35 186 -17 q 114 172 114 88 l 114 1000 l 244 1000 m 186 -278 q 217 -204 210 -240 q 218 -131 225 -168 l 285 -168 q 221 -173 247 -176 q 181 -155 194 -169 q 167 -119 167 -140 q 188 -75 167 -93 q 251 -57 210 -57 q 313 -74 288 -57 q 338 -128 338 -92 q 318 -201 338 -164 q 267 -278 299 -239 l 186 -278 z "},"ł":{"ha":406,"x_min":-3,"x_max":403,"o":"m 244 1000 l 244 193 q 260 121 244 140 q 313 101 276 101 q 342 104 328 101 q 372 113 357 107 l 372 6 q 272 -17 325 -17 q 150 35 186 -17 q 114 172 114 88 l 114 1000 l 244 1000 m -1 472 l 404 611 l 404 513 l -1 374 l -1 472 z "},"m":{"ha":1265,"x_min":114,"x_max":1172,"o":"m 1040 0 l 1040 406 q 997 546 1040 504 q 890 588 954 588 q 803 567 844 588 q 735 503 761 546 q 708 393 708 461 l 657 525 q 728 631 683 590 q 827 692 774 672 q 932 711 881 711 q 1053 681 999 711 q 1140 586 1107 650 q 1172 424 1172 522 l 1172 0 l 1040 0 m 114 0 l 114 694 l 244 694 l 244 0 l 114 0 m 578 0 l 578 406 q 534 546 578 504 q 428 588 490 588 q 340 567 382 588 q 271 503 297 546 q 244 393 244 461 l 213 525 q 276 631 236 590 q 367 692 317 672 q 469 711 417 711 q 590 681 536 711 q 676 589 644 650 q 708 435 708 528 l 708 0 l 578 0 z "},"n":{"ha":818,"x_min":114,"x_max":725,"o":"m 593 0 l 593 404 q 571 510 593 469 q 512 569 549 550 q 431 588 475 588 q 341 567 383 588 q 272 503 299 546 q 244 393 244 461 l 213 525 q 277 631 236 590 q 369 692 318 672 q 472 711 421 711 q 598 681 540 711 q 690 586 656 650 q 725 419 725 522 l 725 0 l 593 0 m 114 0 l 114 694 l 244 694 l 244 0 l 114 0 z "},"ń":{"ha":818,"x_min":114,"x_max":725,"o":"m 593 0 l 593 404 q 571 510 593 469 q 512 569 549 550 q 431 588 475 588 q 341 567 383 588 q 272 503 299 546 q 244 393 244 461 l 213 525 q 277 631 236 590 q 369 692 318 672 q 472 711 421 711 q 598 681 540 711 q 690 586 656 650 q 725 419 725 522 l 725 0 l 593 0 m 114 0 l 114 694 l 244 694 l 244 0 l 114 0 m 475 772 l 376 772 l 449 940 q 488 999 467 982 q 538 1017 510 1017 q 582 1000 567 1017 q 595 958 597 983 q 569 904 593 932 l 475 772 z "},"ň":{"ha":818,"x_min":114,"x_max":725,"o":"m 593 0 l 593 404 q 571 510 593 469 q 512 569 549 550 q 431 588 475 588 q 341 567 383 588 q 272 503 299 546 q 244 393 244 461 l 213 525 q 277 631 236 590 q 369 692 318 672 q 472 711 421 711 q 598 681 540 711 q 690 586 656 650 q 725 419 725 522 l 725 0 l 593 0 m 114 0 l 114 694 l 244 694 l 244 0 l 114 0 m 632 1000 l 525 824 q 485 773 506 790 q 429 756 464 756 q 375 774 396 756 q 333 825 354 792 l 228 1000 l 324 1000 l 429 863 l 536 1000 l 632 1000 z "},"ņ":{"ha":818,"x_min":114,"x_max":725,"o":"m 593 0 l 593 404 q 571 510 593 469 q 512 569 549 550 q 431 588 475 588 q 341 567 383 588 q 272 503 299 546 q 244 393 244 461 l 213 525 q 277 631 236 590 q 369 692 318 672 q 472 711 421 711 q 598 681 540 711 q 690 586 656 650 q 725 419 725 522 l 725 0 l 593 0 m 114 0 l 114 694 l 244 694 l 244 0 l 114 0 m 360 -278 q 391 -204 383 -240 q 392 -131 399 -168 l 458 -168 q 394 -173 421 -176 q 354 -155 368 -169 q 340 -119 340 -140 q 362 -75 340 -93 q 425 -57 383 -57 q 486 -74 461 -57 q 511 -128 511 -92 q 492 -201 511 -164 q 440 -278 472 -239 l 360 -278 z "},"ñ":{"ha":818,"x_min":114,"x_max":725,"o":"m 593 0 l 593 404 q 571 510 593 469 q 512 569 549 550 q 431 588 475 588 q 341 567 383 588 q 272 503 299 546 q 244 393 244 461 l 213 525 q 277 631 236 590 q 369 692 318 672 q 472 711 421 711 q 598 681 540 711 q 690 586 656 650 q 725 419 725 522 l 725 0 l 593 0 m 114 0 l 114 694 l 244 694 l 244 0 l 114 0 m 540 779 q 470 797 500 779 q 417 840 440 815 q 372 882 393 864 q 324 900 350 900 q 284 873 297 900 q 274 788 271 846 l 188 788 q 214 941 178 886 q 318 996 250 996 q 390 978 360 996 q 442 935 419 960 q 487 892 465 910 q 533 874 508 874 q 569 894 557 874 q 581 953 581 915 q 591 999 581 982 q 624 1015 601 1015 q 663 993 651 1015 q 675 936 675 971 q 658 853 675 889 q 612 799 642 818 q 540 779 582 779 z "},"ŋ":{"ha":818,"x_min":114,"x_max":725,"o":"m 518 -294 q 426 -274 463 -294 q 390 -217 390 -254 q 401 -183 390 -197 q 436 -168 413 -168 q 472 -176 456 -168 q 511 -183 488 -183 q 569 -158 544 -183 q 593 -75 593 -133 l 593 11 l 725 11 l 725 -78 q 699 -198 725 -150 q 626 -270 672 -246 q 518 -294 579 -294 m 593 0 l 593 404 q 571 510 593 469 q 512 569 549 550 q 431 588 475 588 q 341 567 383 588 q 272 503 299 546 q 244 393 244 461 l 213 525 q 277 631 236 590 q 369 692 318 672 q 472 711 421 711 q 598 681 540 711 q 690 586 656 650 q 725 419 725 522 l 725 0 l 593 0 m 114 0 l 114 694 l 244 694 l 244 0 l 114 0 z "},"o":{"ha":818,"x_min":63,"x_max":756,"o":"m 63 340 q 106 535 63 453 q 228 665 150 618 q 413 711 307 711 q 591 667 514 711 q 712 544 668 624 q 756 354 756 464 q 712 160 756 243 q 590 30 668 76 q 406 -17 513 -17 q 227 27 304 -17 q 106 151 150 71 q 63 340 63 231 m 200 343 q 226 211 200 267 q 300 126 253 156 q 406 96 347 96 q 515 127 467 96 q 590 215 563 158 q 618 351 618 272 q 592 483 618 428 q 519 569 565 539 q 413 599 472 599 q 303 567 351 599 q 228 479 256 536 q 200 343 200 422 z "},"ó":{"ha":818,"x_min":63,"x_max":756,"o":"m 63 340 q 106 535 63 453 q 228 665 150 618 q 413 711 307 711 q 591 667 514 711 q 712 544 668 624 q 756 354 756 464 q 712 160 756 243 q 590 30 668 76 q 406 -17 513 -17 q 227 27 304 -17 q 106 151 150 71 q 63 340 63 231 m 200 343 q 226 211 200 267 q 300 126 253 156 q 406 96 347 96 q 515 127 467 96 q 590 215 563 158 q 618 351 618 272 q 592 483 618 428 q 519 569 565 539 q 413 599 472 599 q 303 567 351 599 q 228 479 256 536 q 200 343 200 422 m 457 772 l 358 772 l 431 940 q 470 999 449 982 q 519 1017 492 1017 q 564 1000 549 1017 q 577 958 579 983 q 551 904 575 932 l 457 772 z "},"ô":{"ha":818,"x_min":63,"x_max":756,"o":"m 63 340 q 106 535 63 453 q 228 665 150 618 q 413 711 307 711 q 591 667 514 711 q 712 544 668 624 q 756 354 756 464 q 712 160 756 243 q 590 30 668 76 q 406 -17 513 -17 q 227 27 304 -17 q 106 151 150 71 q 63 340 63 231 m 200 343 q 226 211 200 267 q 300 126 253 156 q 406 96 347 96 q 515 127 467 96 q 590 215 563 158 q 618 351 618 272 q 592 483 618 428 q 519 569 565 539 q 413 599 472 599 q 303 567 351 599 q 228 479 256 536 q 200 343 200 422 m 210 772 l 315 949 q 357 999 336 982 q 411 1017 378 1017 q 467 999 446 1017 q 507 947 488 981 l 614 772 l 518 772 l 411 910 l 306 772 l 210 772 z "},"ö":{"ha":818,"x_min":63,"x_max":756,"o":"m 63 340 q 106 535 63 453 q 228 665 150 618 q 413 711 307 711 q 591 667 514 711 q 712 544 668 624 q 756 354 756 464 q 712 160 756 243 q 590 30 668 76 q 406 -17 513 -17 q 227 27 304 -17 q 106 151 150 71 q 63 340 63 231 m 200 343 q 226 211 200 267 q 300 126 253 156 q 406 96 347 96 q 515 127 467 96 q 590 215 563 158 q 618 351 618 272 q 592 483 618 428 q 519 569 565 539 q 413 599 472 599 q 303 567 351 599 q 228 479 256 536 q 200 343 200 422 m 275 825 q 218 846 238 825 q 199 899 199 867 q 218 952 199 931 q 275 974 238 974 q 330 952 311 974 q 349 899 349 931 q 330 846 349 867 q 275 825 311 825 m 546 825 q 489 846 508 825 q 469 899 469 867 q 489 952 469 931 q 546 974 508 974 q 601 952 582 974 q 619 899 619 931 q 601 846 619 867 q 546 825 582 825 z "},"ò":{"ha":818,"x_min":63,"x_max":756,"o":"m 63 340 q 106 535 63 453 q 228 665 150 618 q 413 711 307 711 q 591 667 514 711 q 712 544 668 624 q 756 354 756 464 q 712 160 756 243 q 590 30 668 76 q 406 -17 513 -17 q 227 27 304 -17 q 106 151 150 71 q 63 340 63 231 m 200 343 q 226 211 200 267 q 300 126 253 156 q 406 96 347 96 q 515 127 467 96 q 590 215 563 158 q 618 351 618 272 q 592 483 618 428 q 519 569 565 539 q 413 599 472 599 q 303 567 351 599 q 228 479 256 536 q 200 343 200 422 m 365 772 l 271 904 q 246 958 249 932 q 258 1000 243 983 q 303 1017 274 1017 q 352 999 332 1017 q 392 940 372 982 l 464 772 l 365 772 z "},"ő":{"ha":818,"x_min":63,"x_max":756,"o":"m 63 340 q 106 535 63 453 q 228 665 150 618 q 413 711 307 711 q 591 667 514 711 q 712 544 668 624 q 756 354 756 464 q 712 160 756 243 q 590 30 668 76 q 406 -17 513 -17 q 227 27 304 -17 q 106 151 150 71 q 63 340 63 231 m 200 343 q 226 211 200 267 q 300 126 253 156 q 406 96 347 96 q 515 127 467 96 q 590 215 563 158 q 618 351 618 272 q 592 483 618 428 q 519 569 565 539 q 413 599 472 599 q 303 567 351 599 q 228 479 256 536 q 200 343 200 422 m 464 763 l 538 940 q 575 999 554 981 q 621 1017 596 1017 q 658 1003 646 1017 q 671 967 671 989 q 653 921 671 946 l 558 763 l 464 763 m 260 763 l 335 940 q 372 999 351 981 q 418 1017 393 1017 q 456 1003 443 1017 q 467 967 468 989 q 450 921 467 946 l 356 763 l 260 763 z "},"ō":{"ha":818,"x_min":63,"x_max":756,"o":"m 63 340 q 106 535 63 453 q 228 665 150 618 q 413 711 307 711 q 591 667 514 711 q 712 544 668 624 q 756 354 756 464 q 712 160 756 243 q 590 30 668 76 q 406 -17 513 -17 q 227 27 304 -17 q 106 151 150 71 q 63 340 63 231 m 200 343 q 226 211 200 267 q 300 126 253 156 q 406 96 347 96 q 515 127 467 96 q 590 215 563 158 q 618 351 618 272 q 592 483 618 428 q 519 569 565 539 q 413 599 472 599 q 303 567 351 599 q 228 479 256 536 q 200 343 200 422 m 221 950 l 601 950 l 601 849 l 221 849 l 221 950 z "},"ø":{"ha":821,"x_min":63,"x_max":758,"o":"m 67 0 l 154 107 l 172 122 l 551 581 l 551 590 l 639 694 l 758 694 l 672 590 l 660 581 l 281 122 l 275 107 l 186 0 l 67 0 m 63 340 q 106 535 63 453 q 228 665 150 618 q 413 711 307 711 q 591 667 514 711 q 712 544 668 624 q 756 354 756 464 q 712 160 756 243 q 590 30 668 76 q 406 -17 513 -17 q 227 27 304 -17 q 106 151 150 71 q 63 340 63 231 m 200 343 q 226 211 200 267 q 300 126 253 156 q 406 96 347 96 q 515 127 467 96 q 590 215 563 158 q 618 351 618 272 q 592 483 618 428 q 519 569 565 539 q 413 599 472 599 q 303 567 351 599 q 228 479 256 536 q 200 343 200 422 z "},"õ":{"ha":818,"x_min":63,"x_max":756,"o":"m 63 340 q 106 535 63 453 q 228 665 150 618 q 413 711 307 711 q 591 667 514 711 q 712 544 668 624 q 756 354 756 464 q 712 160 756 243 q 590 30 668 76 q 406 -17 513 -17 q 227 27 304 -17 q 106 151 150 71 q 63 340 63 231 m 200 343 q 226 211 200 267 q 300 126 253 156 q 406 96 347 96 q 515 127 467 96 q 590 215 563 158 q 618 351 618 272 q 592 483 618 428 q 519 569 565 539 q 413 599 472 599 q 303 567 351 599 q 228 479 256 536 q 200 343 200 422 m 521 779 q 451 797 481 779 q 397 840 421 815 q 352 882 374 864 q 304 900 331 900 q 265 873 278 900 q 254 788 251 846 l 168 788 q 194 941 158 886 q 299 996 231 996 q 370 978 340 996 q 423 935 400 960 q 467 892 446 910 q 514 874 489 874 q 549 894 538 874 q 561 953 561 915 q 572 999 561 982 q 604 1015 582 1015 q 644 993 632 1015 q 656 936 656 971 q 639 853 656 889 q 592 799 622 818 q 521 779 563 779 z "},"œ":{"ha":1297,"x_min":63,"x_max":1242,"o":"m 63 340 q 106 535 63 453 q 228 665 150 618 q 413 711 307 711 q 591 667 514 711 q 712 544 668 624 q 756 354 756 464 q 712 160 756 243 q 590 30 668 76 q 406 -17 513 -17 q 227 27 304 -17 q 106 151 150 71 q 63 340 63 231 m 200 343 q 226 211 200 267 q 300 126 253 156 q 406 96 347 96 q 515 127 467 96 q 590 215 563 158 q 618 351 618 272 q 592 483 618 428 q 519 569 565 539 q 413 599 472 599 q 303 567 351 599 q 228 479 256 536 q 200 343 200 422 m 972 -17 q 711 76 804 -17 q 618 333 618 168 q 663 532 618 447 q 785 664 707 617 q 967 711 864 711 q 1115 681 1053 711 q 1209 599 1176 650 q 1242 486 1242 547 q 1213 388 1242 428 q 1131 326 1183 349 q 1009 298 1078 304 q 863 300 940 292 q 703 329 785 308 l 703 417 q 853 391 781 397 q 983 392 925 385 q 1074 425 1040 400 q 1108 494 1108 450 q 1072 574 1108 540 q 965 608 1035 608 q 856 577 904 608 q 781 486 808 546 q 753 342 753 426 q 779 204 753 260 q 857 119 806 149 q 988 90 908 90 q 1106 106 1046 90 q 1224 151 1165 121 l 1224 50 q 1117 3 1179 24 q 972 -17 1054 -17 z "},"p":{"ha":849,"x_min":114,"x_max":785,"o":"m 114 -278 l 114 694 l 244 694 l 244 -278 l 114 -278 m 213 525 q 315 663 247 614 q 474 711 382 711 q 633 667 563 711 q 744 542 704 622 q 785 350 785 461 q 745 158 785 240 q 634 29 706 75 q 467 -17 563 -17 q 313 28 375 -17 q 226 150 250 72 l 244 293 q 269 193 244 238 q 338 124 294 149 q 436 99 382 99 q 546 131 499 99 q 619 219 593 163 q 646 349 646 275 q 619 477 646 422 q 546 563 593 532 q 435 593 499 593 q 297 539 350 593 q 244 397 244 485 l 213 525 z "},"þ":{"ha":849,"x_min":114,"x_max":785,"o":"m 114 -278 l 114 1000 l 244 1000 l 244 -278 l 114 -278 m 213 525 q 315 663 247 614 q 474 711 382 711 q 633 667 563 711 q 744 542 704 622 q 785 350 785 461 q 745 158 785 240 q 634 29 706 75 q 467 -17 563 -17 q 313 28 375 -17 q 226 150 250 72 l 244 293 q 269 193 244 238 q 338 124 294 149 q 436 99 382 99 q 546 131 499 99 q 619 219 593 163 q 646 349 646 275 q 619 477 646 422 q 546 563 593 532 q 435 593 499 593 q 297 539 350 593 q 244 397 244 485 l 213 525 z "},"q":{"ha":849,"x_min":63,"x_max":735,"o":"m 735 694 l 735 -278 l 603 -278 l 603 694 l 735 694 m 636 169 q 535 33 601 82 q 374 -17 468 -17 q 215 28 286 -17 q 103 153 144 72 q 63 344 63 235 q 103 538 63 456 q 215 665 143 619 q 381 711 288 711 q 535 667 472 711 q 621 544 597 624 l 603 401 q 578 501 603 457 q 511 571 554 546 q 413 596 468 596 q 303 564 350 596 q 228 476 256 532 q 201 346 201 421 q 228 217 201 272 q 303 132 256 163 q 414 101 350 101 q 551 156 499 101 q 603 297 603 210 l 636 169 z "},"r":{"ha":525,"x_min":114,"x_max":515,"o":"m 114 0 l 114 694 l 244 694 l 244 0 l 114 0 m 244 374 l 215 525 q 301 666 249 621 q 414 711 354 711 q 466 701 443 711 q 502 673 489 692 q 515 626 515 654 q 497 576 515 593 q 451 560 479 560 q 413 566 431 560 q 375 572 394 572 q 281 517 317 572 q 244 374 244 461 z "},"ŕ":{"ha":525,"x_min":114,"x_max":515,"o":"m 114 0 l 114 694 l 244 694 l 244 0 l 114 0 m 244 374 l 215 525 q 301 666 249 621 q 414 711 354 711 q 466 701 443 711 q 502 673 489 692 q 515 626 515 654 q 497 576 515 593 q 451 560 479 560 q 413 566 431 560 q 375 572 394 572 q 281 517 317 572 q 244 374 244 461 m 347 772 l 249 772 l 321 940 q 360 999 339 982 q 410 1017 382 1017 q 454 1000 439 1017 q 467 958 469 983 q 442 904 465 932 l 347 772 z "},"ř":{"ha":525,"x_min":100,"x_max":515,"o":"m 114 0 l 114 694 l 244 694 l 244 0 l 114 0 m 244 374 l 215 525 q 301 666 249 621 q 414 711 354 711 q 466 701 443 711 q 502 673 489 692 q 515 626 515 654 q 497 576 515 593 q 451 560 479 560 q 413 566 431 560 q 375 572 394 572 q 281 517 317 572 q 244 374 244 461 m 504 1000 l 397 824 q 357 773 378 790 q 301 756 336 756 q 247 774 268 756 q 206 825 226 792 l 100 1000 l 196 1000 l 301 863 l 408 1000 l 504 1000 z "},"ŗ":{"ha":525,"x_min":103,"x_max":515,"o":"m 114 0 l 114 694 l 244 694 l 244 0 l 114 0 m 244 374 l 215 525 q 301 666 249 621 q 414 711 354 711 q 466 701 443 711 q 502 673 489 692 q 515 626 515 654 q 497 576 515 593 q 451 560 479 560 q 413 566 431 560 q 375 572 394 572 q 281 517 317 572 q 244 374 244 461 m 122 -278 q 153 -204 146 -240 q 154 -131 161 -168 l 221 -168 q 157 -173 183 -176 q 117 -155 131 -169 q 103 -119 103 -140 q 124 -75 103 -93 q 188 -57 146 -57 q 249 -74 224 -57 q 274 -128 274 -92 q 254 -201 274 -164 q 203 -278 235 -239 l 122 -278 z "},"s":{"ha":664,"x_min":72,"x_max":606,"o":"m 325 -17 q 179 3 243 -17 q 72 51 115 24 l 72 171 q 202 101 136 125 q 329 78 268 78 q 438 107 404 78 q 471 176 471 136 q 442 238 471 215 q 369 276 414 261 q 274 306 324 292 q 179 341 224 319 q 106 400 135 363 q 76 499 76 438 q 107 606 76 558 q 198 683 138 654 q 347 711 258 711 q 473 693 419 711 q 557 644 526 675 q 588 576 588 614 q 574 538 588 551 q 539 525 561 525 q 501 539 517 525 q 467 571 485 553 q 419 603 449 589 q 343 617 390 617 q 243 586 275 617 q 211 517 211 556 q 240 456 211 479 q 313 419 268 433 q 408 390 358 404 q 503 353 458 376 q 577 292 549 331 q 606 190 606 254 q 575 85 606 133 q 483 10 544 38 q 325 -17 421 -17 z "},"ś":{"ha":664,"x_min":72,"x_max":606,"o":"m 325 -17 q 179 3 243 -17 q 72 51 115 24 l 72 171 q 202 101 136 125 q 329 78 268 78 q 438 107 404 78 q 471 176 471 136 q 442 238 471 215 q 369 276 414 261 q 274 306 324 292 q 179 341 224 319 q 106 400 135 363 q 76 499 76 438 q 107 606 76 558 q 198 683 138 654 q 347 711 258 711 q 473 693 419 711 q 557 644 526 675 q 588 576 588 614 q 574 538 588 551 q 539 525 561 525 q 501 539 517 525 q 467 571 485 553 q 419 603 449 589 q 343 617 390 617 q 243 586 275 617 q 211 517 211 556 q 240 456 211 479 q 313 419 268 433 q 408 390 358 404 q 503 353 458 376 q 577 292 549 331 q 606 190 606 254 q 575 85 606 133 q 483 10 544 38 q 325 -17 421 -17 m 393 772 l 294 772 l 367 940 q 406 999 385 982 q 456 1017 428 1017 q 500 1000 485 1017 q 513 958 515 983 q 488 904 511 932 l 393 772 z "},"š":{"ha":664,"x_min":72,"x_max":606,"o":"m 325 -17 q 179 3 243 -17 q 72 51 115 24 l 72 171 q 202 101 136 125 q 329 78 268 78 q 438 107 404 78 q 471 176 471 136 q 442 238 471 215 q 369 276 414 261 q 274 306 324 292 q 179 341 224 319 q 106 400 135 363 q 76 499 76 438 q 107 606 76 558 q 198 683 138 654 q 347 711 258 711 q 473 693 419 711 q 557 644 526 675 q 588 576 588 614 q 574 538 588 551 q 539 525 561 525 q 501 539 517 525 q 467 571 485 553 q 419 603 449 589 q 343 617 390 617 q 243 586 275 617 q 211 517 211 556 q 240 456 211 479 q 313 419 268 433 q 408 390 358 404 q 503 353 458 376 q 577 292 549 331 q 606 190 606 254 q 575 85 606 133 q 483 10 544 38 q 325 -17 421 -17 m 550 1000 l 443 824 q 403 773 424 790 q 347 756 382 756 q 293 774 314 756 q 251 825 272 792 l 146 1000 l 242 1000 l 347 863 l 454 1000 l 550 1000 z "},"ş":{"ha":664,"x_min":72,"x_max":606,"o":"m 325 -17 q 179 3 243 -17 q 72 51 115 24 l 72 171 q 202 101 136 125 q 329 78 268 78 q 438 107 404 78 q 471 176 471 136 q 442 238 471 215 q 369 276 414 261 q 274 306 324 292 q 179 341 224 319 q 106 400 135 363 q 76 499 76 438 q 107 606 76 558 q 198 683 138 654 q 347 711 258 711 q 473 693 419 711 q 557 644 526 675 q 588 576 588 614 q 574 538 588 551 q 539 525 561 525 q 501 539 517 525 q 467 571 485 553 q 419 603 449 589 q 343 617 390 617 q 243 586 275 617 q 211 517 211 556 q 240 456 211 479 q 313 419 268 433 q 408 390 358 404 q 503 353 458 376 q 577 292 549 331 q 606 190 606 254 q 575 85 606 133 q 483 10 544 38 q 325 -17 421 -17 m 411 -178 q 392 -147 411 -157 q 338 -136 374 -136 q 325 -136 332 -136 q 311 -136 318 -136 q 267 -124 278 -136 q 260 -81 256 -111 l 275 25 l 354 25 l 336 -106 l 300 -74 q 408 -72 365 -65 q 476 -94 451 -78 q 510 -131 500 -110 q 519 -176 519 -153 q 471 -267 519 -240 q 354 -294 422 -294 q 288 -287 319 -294 q 231 -269 256 -281 l 231 -199 q 284 -215 257 -208 q 339 -221 311 -221 q 392 -211 372 -221 q 411 -178 411 -201 z "},"ŝ":{"ha":664,"x_min":72,"x_max":606,"o":"m 325 -17 q 179 3 243 -17 q 72 51 115 24 l 72 171 q 202 101 136 125 q 329 78 268 78 q 438 107 404 78 q 471 176 471 136 q 442 238 471 215 q 369 276 414 261 q 274 306 324 292 q 179 341 224 319 q 106 400 135 363 q 76 499 76 438 q 107 606 76 558 q 198 683 138 654 q 347 711 258 711 q 473 693 419 711 q 557 644 526 675 q 588 576 588 614 q 574 538 588 551 q 539 525 561 525 q 501 539 517 525 q 467 571 485 553 q 419 603 449 589 q 343 617 390 617 q 243 586 275 617 q 211 517 211 556 q 240 456 211 479 q 313 419 268 433 q 408 390 358 404 q 503 353 458 376 q 577 292 549 331 q 606 190 606 254 q 575 85 606 133 q 483 10 544 38 q 325 -17 421 -17 m 146 772 l 251 949 q 293 999 272 982 q 347 1017 314 1017 q 403 999 382 1017 q 443 947 424 981 l 550 772 l 454 772 l 347 910 l 242 772 l 146 772 z "},"ș":{"ha":664,"x_min":72,"x_max":606,"o":"m 325 -17 q 179 3 243 -17 q 72 51 115 24 l 72 171 q 202 101 136 125 q 329 78 268 78 q 438 107 404 78 q 471 176 471 136 q 442 238 471 215 q 369 276 414 261 q 274 306 324 292 q 179 341 224 319 q 106 400 135 363 q 76 499 76 438 q 107 606 76 558 q 198 683 138 654 q 347 711 258 711 q 473 693 419 711 q 557 644 526 675 q 588 576 588 614 q 574 538 588 551 q 539 525 561 525 q 501 539 517 525 q 467 571 485 553 q 419 603 449 589 q 343 617 390 617 q 243 586 275 617 q 211 517 211 556 q 240 456 211 479 q 313 419 268 433 q 408 390 358 404 q 503 353 458 376 q 577 292 549 331 q 606 190 606 254 q 575 85 606 133 q 483 10 544 38 q 325 -17 421 -17 m 268 -278 q 299 -204 292 -240 q 300 -131 307 -168 l 367 -168 q 303 -173 329 -176 q 263 -155 276 -169 q 249 -119 249 -140 q 270 -75 249 -93 q 333 -57 292 -57 q 394 -74 369 -57 q 419 -128 419 -92 q 400 -201 419 -164 q 349 -278 381 -239 l 268 -278 z "},"ß":{"ha":915,"x_min":114,"x_max":857,"o":"m 114 0 l 114 717 q 193 936 114 856 q 431 1017 272 1017 q 593 988 528 1017 q 691 913 658 960 q 724 806 724 865 q 699 713 724 749 q 638 653 675 676 q 565 612 601 631 q 503 571 528 593 q 478 514 478 549 q 506 459 478 479 q 576 425 533 439 q 667 397 619 411 q 758 359 715 382 q 829 297 801 336 q 857 194 857 258 q 793 44 857 106 q 592 -17 729 -17 q 456 3 515 -17 q 358 50 397 24 l 358 171 q 475 101 418 124 q 589 78 532 78 q 696 107 663 78 q 729 176 729 136 q 702 240 729 217 q 632 278 675 263 q 541 307 589 293 q 450 342 493 321 q 380 398 407 363 q 353 492 353 433 q 376 581 353 546 q 435 640 400 615 q 506 685 471 664 q 566 731 542 706 q 590 796 590 757 q 544 877 590 849 q 426 906 497 906 q 288 856 331 906 q 244 718 244 807 l 244 0 l 114 0 z "},"t":{"ha":517,"x_min":33,"x_max":500,"o":"m 472 11 q 409 -9 442 -1 q 339 -17 376 -17 q 199 36 249 -17 q 149 197 149 89 l 149 578 l 94 578 q 50 592 67 578 q 33 632 33 607 q 47 672 33 654 q 89 704 61 689 l 279 817 l 279 694 l 500 694 l 500 578 l 279 578 l 279 215 q 303 126 279 153 q 374 100 326 100 q 422 106 399 100 q 472 122 446 113 l 472 11 z "},"ť":{"ha":517,"x_min":33,"x_max":513,"o":"m 472 11 q 409 -9 442 -1 q 339 -17 376 -17 q 199 36 249 -17 q 149 197 149 89 l 149 578 l 94 578 q 50 592 67 578 q 33 632 33 607 q 47 672 33 654 q 89 704 61 689 l 279 817 l 279 694 l 500 694 l 500 578 l 279 578 l 279 215 q 303 126 279 153 q 374 100 326 100 q 422 106 399 100 q 472 122 446 113 l 472 11 m 365 772 l 381 928 q 407 999 386 981 q 454 1017 428 1017 q 497 1001 483 1017 q 512 960 511 986 q 499 901 513 933 l 453 772 l 365 772 z "},"ţ":{"ha":517,"x_min":33,"x_max":501,"o":"m 472 11 q 409 -9 442 -1 q 339 -17 376 -17 q 199 36 249 -17 q 149 197 149 89 l 149 578 l 94 578 q 50 592 67 578 q 33 632 33 607 q 47 672 33 654 q 89 704 61 689 l 279 817 l 279 694 l 500 694 l 500 578 l 279 578 l 279 215 q 303 126 279 153 q 374 100 326 100 q 422 106 399 100 q 472 122 446 113 l 472 11 m 393 -178 q 374 -147 393 -157 q 319 -136 356 -136 q 307 -136 314 -136 q 293 -136 300 -136 q 249 -124 260 -136 q 242 -81 238 -111 l 257 25 l 336 25 l 318 -106 l 282 -74 q 390 -72 347 -65 q 458 -94 433 -78 q 492 -131 482 -110 q 501 -176 501 -153 q 453 -267 501 -240 q 336 -294 404 -294 q 269 -287 301 -294 q 213 -269 238 -281 l 213 -199 q 266 -215 239 -208 q 321 -221 293 -221 q 374 -211 354 -221 q 393 -178 393 -201 z "},"ț":{"ha":517,"x_min":33,"x_max":500,"o":"m 472 11 q 409 -9 442 -1 q 339 -17 376 -17 q 199 36 249 -17 q 149 197 149 89 l 149 578 l 94 578 q 50 592 67 578 q 33 632 33 607 q 47 672 33 654 q 89 704 61 689 l 279 817 l 279 694 l 500 694 l 500 578 l 279 578 l 279 215 q 303 126 279 153 q 374 100 326 100 q 422 106 399 100 q 472 122 446 113 l 472 11 m 250 -278 q 281 -204 274 -240 q 282 -131 289 -168 l 349 -168 q 285 -173 311 -176 q 244 -155 258 -169 q 231 -119 231 -140 q 252 -75 231 -93 q 315 -57 274 -57 q 376 -74 351 -57 q 401 -128 401 -92 q 382 -201 401 -164 q 331 -278 363 -239 l 250 -278 z "},"u":{"ha":793,"x_min":94,"x_max":699,"o":"m 396 -17 q 175 59 256 -17 q 94 288 94 135 l 94 694 l 225 694 l 225 289 q 271 149 225 196 q 396 101 317 101 q 523 149 478 101 q 568 289 568 196 l 568 694 l 699 694 l 699 288 q 618 59 699 135 q 396 -17 538 -17 z "},"ú":{"ha":793,"x_min":94,"x_max":699,"o":"m 396 -17 q 175 59 256 -17 q 94 288 94 135 l 94 694 l 225 694 l 225 289 q 271 149 225 196 q 396 101 317 101 q 523 149 478 101 q 568 289 568 196 l 568 694 l 699 694 l 699 288 q 618 59 699 135 q 396 -17 538 -17 m 444 772 l 346 772 l 418 940 q 458 999 436 982 q 507 1017 479 1017 q 551 1000 536 1017 q 565 958 567 983 q 539 904 563 932 l 444 772 z "},"ŭ":{"ha":793,"x_min":94,"x_max":699,"o":"m 396 -17 q 175 59 256 -17 q 94 288 94 135 l 94 694 l 225 694 l 225 289 q 271 149 225 196 q 396 101 317 101 q 523 149 478 101 q 568 289 568 196 l 568 694 l 699 694 l 699 288 q 618 59 699 135 q 396 -17 538 -17 m 293 1000 q 310 899 286 938 q 399 861 335 861 q 486 899 461 861 q 503 1000 511 938 l 589 1000 q 556 827 607 886 q 399 768 504 768 q 240 827 292 768 q 207 1000 189 886 l 293 1000 z "},"û":{"ha":793,"x_min":94,"x_max":699,"o":"m 396 -17 q 175 59 256 -17 q 94 288 94 135 l 94 694 l 225 694 l 225 289 q 271 149 225 196 q 396 101 317 101 q 523 149 478 101 q 568 289 568 196 l 568 694 l 699 694 l 699 288 q 618 59 699 135 q 396 -17 538 -17 m 197 772 l 303 949 q 344 999 324 982 q 399 1017 365 1017 q 454 999 433 1017 q 494 947 475 981 l 601 772 l 506 772 l 399 910 l 293 772 l 197 772 z "},"ü":{"ha":793,"x_min":94,"x_max":699,"o":"m 396 -17 q 175 59 256 -17 q 94 288 94 135 l 94 694 l 225 694 l 225 289 q 271 149 225 196 q 396 101 317 101 q 523 149 478 101 q 568 289 568 196 l 568 694 l 699 694 l 699 288 q 618 59 699 135 q 396 -17 538 -17 m 263 825 q 206 846 225 825 q 186 899 186 867 q 206 952 186 931 q 263 974 225 974 q 317 952 299 974 q 336 899 336 931 q 317 846 336 867 q 263 825 299 825 m 533 825 q 476 846 496 825 q 457 899 457 867 q 476 952 457 931 q 533 974 496 974 q 588 952 569 974 q 607 899 607 931 q 588 846 607 867 q 533 825 569 825 z "},"ù":{"ha":793,"x_min":94,"x_max":699,"o":"m 396 -17 q 175 59 256 -17 q 94 288 94 135 l 94 694 l 225 694 l 225 289 q 271 149 225 196 q 396 101 317 101 q 523 149 478 101 q 568 289 568 196 l 568 694 l 699 694 l 699 288 q 618 59 699 135 q 396 -17 538 -17 m 353 772 l 258 904 q 233 958 236 932 q 246 1000 231 983 q 290 1017 261 1017 q 340 999 319 1017 q 379 940 360 982 l 451 772 l 353 772 z "},"ű":{"ha":793,"x_min":94,"x_max":699,"o":"m 396 -17 q 175 59 256 -17 q 94 288 94 135 l 94 694 l 225 694 l 225 289 q 271 149 225 196 q 396 101 317 101 q 523 149 478 101 q 568 289 568 196 l 568 694 l 699 694 l 699 288 q 618 59 699 135 q 396 -17 538 -17 m 451 763 l 525 940 q 563 999 542 981 q 608 1017 583 1017 q 646 1003 633 1017 q 658 967 658 989 q 640 921 658 946 l 546 763 l 451 763 m 247 763 l 322 940 q 360 999 339 981 q 406 1017 381 1017 q 443 1003 431 1017 q 455 967 456 989 q 438 921 454 946 l 343 763 l 247 763 z "},"ū":{"ha":793,"x_min":94,"x_max":699,"o":"m 396 -17 q 175 59 256 -17 q 94 288 94 135 l 94 694 l 225 694 l 225 289 q 271 149 225 196 q 396 101 317 101 q 523 149 478 101 q 568 289 568 196 l 568 694 l 699 694 l 699 288 q 618 59 699 135 q 396 -17 538 -17 m 208 950 l 589 950 l 589 849 l 208 849 l 208 950 z "},"ų":{"ha":793,"x_min":94,"x_max":699,"o":"m 396 -17 q 175 59 256 -17 q 94 288 94 135 l 94 694 l 225 694 l 225 289 q 271 149 225 196 q 396 101 317 101 q 523 149 478 101 q 568 289 568 196 l 568 694 l 699 694 l 699 288 q 618 59 699 135 q 396 -17 538 -17 m 567 24 q 474 -62 503 -21 q 444 -142 444 -104 q 465 -192 444 -175 q 521 -210 486 -210 q 567 -203 544 -210 q 613 -186 590 -197 l 613 -267 q 558 -287 589 -279 q 493 -294 528 -294 q 378 -261 421 -294 q 336 -168 336 -228 q 376 -64 336 -110 q 482 22 415 -18 l 567 24 z "},"ů":{"ha":793,"x_min":94,"x_max":699,"o":"m 396 -17 q 175 59 256 -17 q 94 288 94 135 l 94 694 l 225 694 l 225 289 q 271 149 225 196 q 396 101 317 101 q 523 149 478 101 q 568 289 568 196 l 568 694 l 699 694 l 699 288 q 618 59 699 135 q 396 -17 538 -17 m 399 758 q 271 795 314 758 q 228 888 228 832 q 271 980 228 943 q 399 1017 314 1017 q 526 980 483 1017 q 569 888 569 943 q 526 795 569 832 q 399 758 483 758 m 399 821 q 459 840 438 821 q 481 888 481 860 q 459 935 481 917 q 399 953 438 953 q 338 935 360 953 q 317 888 317 917 q 338 840 317 860 q 399 821 360 821 z "},"ũ":{"ha":793,"x_min":94,"x_max":699,"o":"m 396 -17 q 175 59 256 -17 q 94 288 94 135 l 94 694 l 225 694 l 225 289 q 271 149 225 196 q 396 101 317 101 q 523 149 478 101 q 568 289 568 196 l 568 694 l 699 694 l 699 288 q 618 59 699 135 q 396 -17 538 -17 m 508 779 q 438 797 468 779 q 385 840 408 815 q 340 882 361 864 q 292 900 318 900 q 252 873 265 900 q 242 788 239 846 l 156 788 q 182 941 146 886 q 286 996 218 996 q 358 978 328 996 q 410 935 388 960 q 455 892 433 910 q 501 874 476 874 q 537 894 525 874 q 549 953 549 915 q 559 999 549 982 q 592 1015 569 1015 q 631 993 619 1015 q 643 936 643 971 q 626 853 643 889 q 580 799 610 818 q 508 779 550 779 z "},"v":{"ha":738,"x_min":14,"x_max":724,"o":"m 299 0 l 14 694 l 160 694 l 418 0 l 299 0 m 439 0 l 325 0 l 579 694 l 724 694 l 439 0 z "},"w":{"ha":1068,"x_min":14,"x_max":1056,"o":"m 242 0 l 449 629 q 482 691 461 671 q 535 711 503 711 q 587 691 567 711 q 621 629 607 671 l 826 0 l 711 0 l 511 601 l 558 601 l 357 0 l 242 0 m 222 0 l 14 694 l 156 694 l 328 0 l 222 0 m 740 0 l 914 694 l 1056 694 l 847 0 l 740 0 z "},"ẃ":{"ha":1068,"x_min":14,"x_max":1056,"o":"m 242 0 l 449 629 q 482 691 461 671 q 535 711 503 711 q 587 691 567 711 q 621 629 607 671 l 826 0 l 711 0 l 511 601 l 558 601 l 357 0 l 242 0 m 222 0 l 14 694 l 156 694 l 328 0 l 222 0 m 740 0 l 914 694 l 1056 694 l 847 0 l 740 0 m 579 772 l 481 772 l 553 940 q 592 999 571 982 q 642 1017 614 1017 q 686 1000 671 1017 q 699 958 701 983 q 674 904 697 932 l 579 772 z "},"ŵ":{"ha":1068,"x_min":14,"x_max":1056,"o":"m 242 0 l 449 629 q 482 691 461 671 q 535 711 503 711 q 587 691 567 711 q 621 629 607 671 l 826 0 l 711 0 l 511 601 l 558 601 l 357 0 l 242 0 m 222 0 l 14 694 l 156 694 l 328 0 l 222 0 m 740 0 l 914 694 l 1056 694 l 847 0 l 740 0 m 332 772 l 438 949 q 479 999 458 982 q 533 1017 500 1017 q 589 999 568 1017 q 629 947 610 981 l 736 772 l 640 772 l 533 910 l 428 772 l 332 772 z "},"ẅ":{"ha":1068,"x_min":14,"x_max":1056,"o":"m 242 0 l 449 629 q 482 691 461 671 q 535 711 503 711 q 587 691 567 711 q 621 629 607 671 l 826 0 l 711 0 l 511 601 l 558 601 l 357 0 l 242 0 m 222 0 l 14 694 l 156 694 l 328 0 l 222 0 m 740 0 l 914 694 l 1056 694 l 847 0 l 740 0 m 399 825 q 342 846 361 825 q 322 899 322 867 q 342 952 322 931 q 399 974 361 974 q 453 952 435 974 q 472 899 472 931 q 453 846 472 867 q 399 825 435 825 m 669 825 q 613 846 632 825 q 593 899 593 867 q 613 952 593 931 q 669 974 632 974 q 724 952 706 974 q 743 899 743 931 q 724 846 743 867 q 669 825 706 825 z "},"ẁ":{"ha":1068,"x_min":14,"x_max":1056,"o":"m 242 0 l 449 629 q 482 691 461 671 q 535 711 503 711 q 587 691 567 711 q 621 629 607 671 l 826 0 l 711 0 l 511 601 l 558 601 l 357 0 l 242 0 m 222 0 l 14 694 l 156 694 l 328 0 l 222 0 m 740 0 l 914 694 l 1056 694 l 847 0 l 740 0 m 489 772 l 394 904 q 369 958 372 932 q 382 1000 367 983 q 426 1017 397 1017 q 476 999 456 1017 q 515 940 496 982 l 588 772 l 489 772 z "},"x":{"ha":706,"x_min":29,"x_max":678,"o":"m 29 694 l 175 694 l 379 397 l 329 397 l 532 694 l 678 694 l 404 293 l 406 396 l 678 0 l 532 0 l 332 290 l 374 290 l 174 0 l 29 0 l 300 396 l 304 293 l 29 694 z "},"y":{"ha":738,"x_min":14,"x_max":724,"o":"m 153 -294 q 94 -286 122 -294 q 47 -261 65 -278 q 29 -218 29 -244 q 44 -181 29 -193 q 81 -168 58 -168 q 115 -174 99 -168 q 150 -181 131 -181 q 193 -166 171 -181 q 242 -112 215 -151 q 299 0 268 -74 l 724 694 l 424 -36 q 303 -235 367 -175 q 153 -294 239 -294 m 299 0 l 14 694 l 160 694 l 418 0 l 299 0 m 439 0 l 325 0 l 579 694 l 724 694 l 439 0 z "},"ý":{"ha":738,"x_min":14,"x_max":724,"o":"m 153 -294 q 94 -286 122 -294 q 47 -261 65 -278 q 29 -218 29 -244 q 44 -181 29 -193 q 81 -168 58 -168 q 115 -174 99 -168 q 150 -181 131 -181 q 193 -166 171 -181 q 242 -112 215 -151 q 299 0 268 -74 l 724 694 l 424 -36 q 303 -235 367 -175 q 153 -294 239 -294 m 299 0 l 14 694 l 160 694 l 418 0 l 299 0 m 439 0 l 325 0 l 579 694 l 724 694 l 439 0 m 414 772 l 315 772 l 388 940 q 427 999 406 982 q 476 1017 449 1017 q 521 1000 506 1017 q 534 958 536 983 q 508 904 532 932 l 414 772 z "},"ŷ":{"ha":738,"x_min":14,"x_max":724,"o":"m 153 -294 q 94 -286 122 -294 q 47 -261 65 -278 q 29 -218 29 -244 q 44 -181 29 -193 q 81 -168 58 -168 q 115 -174 99 -168 q 150 -181 131 -181 q 193 -166 171 -181 q 242 -112 215 -151 q 299 0 268 -74 l 724 694 l 424 -36 q 303 -235 367 -175 q 153 -294 239 -294 m 299 0 l 14 694 l 160 694 l 418 0 l 299 0 m 439 0 l 325 0 l 579 694 l 724 694 l 439 0 m 167 772 l 272 949 q 314 999 293 982 q 368 1017 335 1017 q 424 999 403 1017 q 464 947 444 981 l 571 772 l 475 772 l 368 910 l 263 772 l 167 772 z "},"ÿ":{"ha":738,"x_min":14,"x_max":724,"o":"m 153 -294 q 94 -286 122 -294 q 47 -261 65 -278 q 29 -218 29 -244 q 44 -181 29 -193 q 81 -168 58 -168 q 115 -174 99 -168 q 150 -181 131 -181 q 193 -166 171 -181 q 242 -112 215 -151 q 299 0 268 -74 l 724 694 l 424 -36 q 303 -235 367 -175 q 153 -294 239 -294 m 299 0 l 14 694 l 160 694 l 418 0 l 299 0 m 439 0 l 325 0 l 579 694 l 724 694 l 439 0 m 233 825 q 176 846 196 825 q 157 899 157 867 q 176 952 157 931 q 233 974 196 974 q 288 952 269 974 q 307 899 307 931 q 288 846 307 867 q 233 825 269 825 m 504 825 q 447 846 467 825 q 428 899 428 867 q 447 952 428 931 q 504 974 467 974 q 559 952 540 974 q 578 899 578 931 q 559 846 578 867 q 504 825 540 825 z "},"ỳ":{"ha":738,"x_min":14,"x_max":724,"o":"m 153 -294 q 94 -286 122 -294 q 47 -261 65 -278 q 29 -218 29 -244 q 44 -181 29 -193 q 81 -168 58 -168 q 115 -174 99 -168 q 150 -181 131 -181 q 193 -166 171 -181 q 242 -112 215 -151 q 299 0 268 -74 l 724 694 l 424 -36 q 303 -235 367 -175 q 153 -294 239 -294 m 299 0 l 14 694 l 160 694 l 418 0 l 299 0 m 439 0 l 325 0 l 579 694 l 724 694 l 439 0 m 324 772 l 229 904 q 204 958 207 932 q 217 1000 201 983 q 261 1017 232 1017 q 310 999 290 1017 q 350 940 331 982 l 422 772 l 324 772 z "},"ỹ":{"ha":738,"x_min":14,"x_max":724,"o":"m 153 -294 q 94 -286 122 -294 q 47 -261 65 -278 q 29 -218 29 -244 q 44 -181 29 -193 q 81 -168 58 -168 q 115 -174 99 -168 q 150 -181 131 -181 q 193 -166 171 -181 q 242 -112 215 -151 q 299 0 268 -74 l 724 694 l 424 -36 q 303 -235 367 -175 q 153 -294 239 -294 m 299 0 l 14 694 l 160 694 l 418 0 l 299 0 m 439 0 l 325 0 l 579 694 l 724 694 l 439 0 m 479 779 q 409 797 439 779 q 356 840 379 815 q 310 882 332 864 q 263 900 289 900 q 223 873 236 900 q 213 788 210 846 l 126 788 q 153 941 117 886 q 257 996 189 996 q 328 978 299 996 q 381 935 358 960 q 426 892 404 910 q 472 874 447 874 q 508 894 496 874 q 519 953 519 915 q 530 999 519 982 q 563 1015 540 1015 q 602 993 590 1015 q 614 936 614 971 q 597 853 614 889 q 551 799 581 818 q 479 779 521 779 z "},"z":{"ha":719,"x_min":69,"x_max":656,"o":"m 156 0 q 91 17 113 0 q 69 65 69 33 q 77 101 69 83 q 104 140 85 118 l 490 617 l 643 607 l 206 74 l 185 114 l 656 114 l 656 0 l 156 0 m 82 581 l 82 694 l 643 694 l 643 607 l 581 581 l 82 581 z "},"ź":{"ha":719,"x_min":69,"x_max":656,"o":"m 156 0 q 91 17 113 0 q 69 65 69 33 q 77 101 69 83 q 104 140 85 118 l 490 617 l 643 607 l 206 74 l 185 114 l 656 114 l 656 0 l 156 0 m 82 581 l 82 694 l 643 694 l 643 607 l 581 581 l 82 581 m 417 772 l 318 772 l 390 940 q 430 999 408 982 q 479 1017 451 1017 q 524 1000 508 1017 q 537 958 539 983 q 511 904 535 932 l 417 772 z "},"ž":{"ha":719,"x_min":69,"x_max":656,"o":"m 156 0 q 91 17 113 0 q 69 65 69 33 q 77 101 69 83 q 104 140 85 118 l 490 617 l 643 607 l 206 74 l 185 114 l 656 114 l 656 0 l 156 0 m 82 581 l 82 694 l 643 694 l 643 607 l 581 581 l 82 581 m 574 1000 l 467 824 q 426 773 447 790 q 371 756 406 756 q 317 774 338 756 q 275 825 296 792 l 169 1000 l 265 1000 l 371 863 l 478 1000 l 574 1000 z "},"ż":{"ha":719,"x_min":69,"x_max":656,"o":"m 156 0 q 91 17 113 0 q 69 65 69 33 q 77 101 69 83 q 104 140 85 118 l 490 617 l 643 607 l 206 74 l 185 114 l 656 114 l 656 0 l 156 0 m 82 581 l 82 694 l 643 694 l 643 607 l 581 581 l 82 581 m 372 815 q 309 838 331 815 q 288 894 288 861 q 309 951 288 928 q 372 974 331 974 q 435 951 414 974 q 456 894 456 928 q 435 838 456 861 q 372 815 414 815 z "},"ª":{"ha":743,"x_min":67,"x_max":672,"o":"m 672 250 l 540 250 q 524 311 531 271 q 518 397 518 351 l 508 429 l 508 735 q 469 826 508 801 q 368 850 431 850 q 277 836 311 850 q 222 803 243 822 q 184 771 201 785 q 144 757 167 757 q 105 770 119 757 q 90 808 90 783 q 99 846 90 826 q 131 885 108 865 q 368 961 210 961 q 512 939 451 961 q 606 864 572 917 q 640 725 640 811 l 640 454 q 649 336 640 389 q 672 250 658 283 m 285 233 q 126 286 186 233 q 67 431 67 339 q 119 562 67 514 q 276 631 172 610 l 403 654 q 488 683 468 668 q 508 731 508 699 l 508 611 q 478 592 499 601 q 418 572 458 582 l 322 553 q 238 517 271 543 q 206 440 206 492 q 238 362 206 390 q 325 333 271 333 q 415 356 372 333 q 483 422 457 378 q 508 524 508 465 l 533 408 q 435 275 503 317 q 285 233 367 233 z "},"º":{"ha":818,"x_min":63,"x_max":756,"o":"m 63 590 q 106 785 63 703 q 228 915 150 868 q 413 961 307 961 q 591 917 514 961 q 712 794 668 874 q 756 604 756 714 q 712 410 756 493 q 590 280 668 326 q 406 233 513 233 q 227 277 304 233 q 106 401 150 321 q 63 590 63 481 m 200 593 q 226 461 200 517 q 300 376 253 406 q 406 346 347 346 q 515 377 467 346 q 590 465 563 408 q 618 601 618 522 q 592 733 618 678 q 519 819 565 789 q 413 849 472 849 q 303 817 351 849 q 228 729 256 786 q 200 593 200 672 z "}," ":{"ha":339,"x_min":0,"x_max":0,"o":""}," ":{"ha":339,"x_min":0,"x_max":0,"o":""}," ":{"ha":833,"x_min":0,"x_max":0,"o":""}," ":{"ha":833,"x_min":0,"x_max":0,"o":""},"-":{"ha":569,"x_min":76,"x_max":493,"o":"m 76 408 l 493 408 l 493 289 l 76 289 l 76 408 z "},"–":{"ha":851,"x_min":86,"x_max":765,"o":"m 86 403 l 765 403 l 765 292 l 86 292 l 86 403 z "},"—":{"ha":1278,"x_min":86,"x_max":1192,"o":"m 86 404 l 1192 404 l 1192 292 l 86 292 l 86 404 z "},"_":{"ha":851,"x_min":86,"x_max":765,"o":"m 86 -10 l 765 -10 l 765 -121 l 86 -121 l 86 -10 z "},"(":{"ha":401,"x_min":56,"x_max":392,"o":"m 282 -139 q 156 15 206 -68 q 81 195 106 97 q 56 408 56 293 q 113 719 56 582 q 282 967 169 857 l 392 967 q 282 797 325 885 q 218 613 239 708 q 197 414 197 518 q 217 214 197 308 q 281 32 238 119 q 392 -139 325 -56 l 282 -139 z "},")":{"ha":401,"x_min":11,"x_max":346,"o":"m 121 -139 l 11 -139 q 121 32 78 -56 q 184 214 164 119 q 204 414 204 308 q 183 613 204 518 q 120 797 163 708 q 11 967 78 885 l 121 967 q 290 719 235 857 q 346 408 346 582 q 321 195 346 293 q 247 15 296 97 q 121 -139 197 -68 z "},"{":{"ha":447,"x_min":28,"x_max":419,"o":"m 28 467 q 117 483 86 467 q 160 528 147 500 q 172 592 172 557 q 160 703 172 643 q 147 815 147 763 q 156 875 147 847 q 185 924 164 903 q 246 958 207 946 q 346 971 285 971 q 419 967 379 971 l 419 860 q 390 864 403 863 q 364 865 376 865 q 288 841 307 865 q 268 778 268 817 q 275 713 268 749 q 288 641 282 678 q 294 569 294 604 q 287 511 294 539 q 258 460 279 483 q 200 422 238 438 q 103 400 163 406 l 103 428 q 200 406 163 422 q 258 367 238 389 q 287 317 279 344 q 294 260 294 289 q 288 187 294 225 q 274 114 281 149 q 267 50 267 79 q 287 -13 267 11 q 364 -37 307 -37 q 390 -37 376 -37 q 419 -33 403 -36 l 419 -139 q 346 -143 379 -143 q 244 -131 283 -143 q 185 -98 206 -119 q 156 -48 164 -76 q 147 13 147 -19 q 160 125 147 65 q 172 235 172 185 q 160 299 172 271 q 117 344 147 328 q 28 361 86 361 l 28 467 z "},"}":{"ha":447,"x_min":28,"x_max":419,"o":"m 419 361 q 330 344 361 361 q 287 300 299 328 q 275 235 275 272 q 288 125 275 185 q 300 13 300 65 q 292 -47 300 -19 q 262 -97 283 -75 q 201 -131 240 -118 q 100 -143 163 -143 q 28 -139 68 -143 l 28 -33 q 57 -37 43 -36 q 82 -37 71 -37 q 160 -13 140 -37 q 179 50 179 11 q 173 114 179 79 q 160 186 167 149 q 153 258 153 224 q 160 317 153 289 q 189 367 168 344 q 247 406 210 390 q 343 428 283 422 l 343 399 q 247 422 283 406 q 189 460 210 438 q 160 511 168 483 q 153 568 153 539 q 160 641 153 604 q 174 713 167 678 q 181 778 181 749 q 160 841 181 817 q 83 865 140 865 q 57 864 71 865 q 28 860 43 863 l 28 967 q 101 971 68 971 q 201 958 163 971 q 262 925 240 946 q 292 876 283 904 q 300 815 300 847 q 288 703 300 763 q 275 593 275 644 q 287 528 275 557 q 330 483 299 500 q 419 467 361 467 l 419 361 z "},"[":{"ha":489,"x_min":126,"x_max":449,"o":"m 126 967 l 257 967 l 257 -139 l 126 -139 l 126 967 m 157 967 l 449 967 l 449 865 l 157 865 l 157 967 m 157 -37 l 449 -37 l 449 -139 l 157 -139 l 157 -37 z "},"]":{"ha":489,"x_min":39,"x_max":361,"o":"m 361 -139 l 232 -139 l 232 967 l 361 967 l 361 -139 m 331 -139 l 39 -139 l 39 -37 l 331 -37 l 331 -139 m 331 865 l 39 865 l 39 967 l 331 967 l 331 865 z "},"‚":{"ha":367,"x_min":94,"x_max":272,"o":"m 96 -175 q 138 -69 126 -118 q 146 29 150 -21 l 272 68 q 246 -56 272 11 q 176 -175 219 -124 l 96 -175 m 183 -17 q 117 8 140 -17 q 94 68 94 32 q 117 129 94 106 q 183 153 140 153 q 249 129 226 153 q 272 68 272 106 q 249 8 272 32 q 183 -17 226 -17 z "},"„":{"ha":594,"x_min":94,"x_max":500,"o":"m 325 -175 q 367 -69 356 -118 q 375 29 379 -21 l 501 68 q 475 -56 501 11 q 406 -175 449 -124 l 325 -175 m 413 -17 q 347 8 369 -17 q 324 68 324 32 q 347 129 324 106 q 413 153 369 153 q 478 129 456 153 q 501 68 501 106 q 478 8 501 32 q 413 -17 456 -17 m 96 -175 q 138 -69 126 -118 q 146 29 150 -21 l 272 68 q 246 -56 272 11 q 176 -175 219 -124 l 96 -175 m 183 -17 q 117 8 140 -17 q 94 68 94 32 q 117 129 94 106 q 183 153 140 153 q 249 129 226 153 q 272 68 272 106 q 249 8 272 32 q 183 -17 226 -17 z "},"“":{"ha":594,"x_min":94,"x_max":500,"o":"m 500 978 q 458 873 469 922 q 450 775 446 824 l 324 735 q 350 859 324 792 q 419 978 376 926 l 500 978 m 413 819 q 478 796 456 819 q 501 735 501 772 q 478 675 501 699 q 413 651 456 651 q 347 675 369 651 q 324 735 324 699 q 347 796 324 772 q 413 819 369 819 m 271 978 q 228 873 240 922 q 221 775 217 824 l 94 735 q 121 859 94 792 q 190 978 147 926 l 271 978 m 183 819 q 249 796 226 819 q 272 735 272 772 q 249 675 272 699 q 183 651 226 651 q 117 675 140 651 q 94 735 94 699 q 117 796 94 772 q 183 819 140 819 z "},"”":{"ha":594,"x_min":94,"x_max":500,"o":"m 325 668 q 367 774 356 725 q 375 872 379 822 l 501 911 q 475 787 501 854 q 406 668 449 719 l 325 668 m 413 826 q 347 851 369 826 q 324 911 324 875 q 347 972 324 949 q 413 996 369 996 q 478 972 456 996 q 501 911 501 949 q 478 851 501 875 q 413 826 456 826 m 96 668 q 138 774 126 725 q 146 872 150 822 l 272 911 q 246 787 272 854 q 176 668 219 719 l 96 668 m 183 826 q 117 851 140 826 q 94 911 94 875 q 117 972 94 949 q 183 996 140 996 q 249 972 226 996 q 272 911 272 949 q 249 851 272 875 q 183 826 226 826 z "},"‘":{"ha":367,"x_min":94,"x_max":272,"o":"m 271 978 q 228 873 240 922 q 221 775 217 824 l 94 735 q 121 859 94 792 q 190 978 147 926 l 271 978 m 183 819 q 249 796 226 819 q 272 735 272 772 q 249 675 272 699 q 183 651 226 651 q 117 675 140 651 q 94 735 94 699 q 117 796 94 772 q 183 819 140 819 z "},"’":{"ha":367,"x_min":94,"x_max":272,"o":"m 96 668 q 138 774 126 725 q 146 872 150 822 l 272 911 q 246 787 272 854 q 176 668 219 719 l 96 668 m 183 826 q 117 851 140 826 q 94 911 94 875 q 117 972 94 949 q 183 996 140 996 q 249 972 226 996 q 272 911 272 949 q 249 851 272 875 q 183 826 226 826 z "},"«":{"ha":728,"x_min":64,"x_max":681,"o":"m 308 694 l 404 694 l 196 386 l 404 78 l 308 78 l 108 300 q 64 385 64 349 q 108 472 64 422 l 308 694 m 585 694 l 681 694 l 472 386 l 681 78 l 585 78 l 385 300 q 340 385 340 349 q 385 472 340 422 l 585 694 z "},"»":{"ha":728,"x_min":46,"x_max":664,"o":"m 419 78 l 324 78 l 531 386 l 324 694 l 419 694 l 618 472 q 664 385 664 422 q 618 300 664 349 l 419 78 m 142 78 l 46 78 l 254 386 l 46 694 l 142 694 l 342 472 q 386 385 386 422 q 342 300 386 349 l 142 78 z "},"‹":{"ha":450,"x_min":64,"x_max":404,"o":"m 308 694 l 404 694 l 196 386 l 404 78 l 308 78 l 108 300 q 64 385 64 349 q 108 472 64 422 l 308 694 z "},"›":{"ha":450,"x_min":46,"x_max":386,"o":"m 142 78 l 46 78 l 254 386 l 46 694 l 142 694 l 342 472 q 386 385 386 422 q 342 300 386 349 l 142 78 z "},"\"":{"ha":572,"x_min":90,"x_max":483,"o":"m 360 668 l 321 879 q 324 945 314 919 q 353 983 333 971 q 399 994 374 994 q 442 983 422 994 q 472 945 463 971 q 475 879 482 919 l 436 668 l 360 668 m 136 668 l 97 879 q 100 945 90 919 q 130 983 110 971 q 175 994 150 994 q 219 983 199 994 q 249 945 239 971 q 251 879 258 919 l 213 668 l 136 668 z "},"'":{"ha":349,"x_min":90,"x_max":258,"o":"m 136 668 l 97 879 q 100 945 90 919 q 130 983 110 971 q 175 994 150 994 q 219 983 199 994 q 249 945 239 971 q 251 879 258 919 l 213 668 l 136 668 z "},".":{"ha":367,"x_min":94,"x_max":272,"o":"m 183 -17 q 117 8 140 -17 q 94 68 94 32 q 117 129 94 106 q 183 153 140 153 q 249 129 226 153 q 272 68 272 106 q 249 8 272 32 q 183 -17 226 -17 z "},",":{"ha":367,"x_min":94,"x_max":272,"o":"m 96 -175 q 138 -69 126 -118 q 146 29 150 -21 l 272 68 q 246 -56 272 11 q 176 -175 219 -124 l 96 -175 m 183 -17 q 117 8 140 -17 q 94 68 94 32 q 117 129 94 106 q 183 153 140 153 q 249 129 226 153 q 272 68 272 106 q 249 8 272 32 q 183 -17 226 -17 z "},":":{"ha":367,"x_min":94,"x_max":272,"o":"m 183 542 q 117 566 140 542 q 94 626 94 590 q 117 688 94 664 q 183 711 140 711 q 249 688 226 711 q 272 626 272 664 q 249 566 272 590 q 183 542 226 542 m 183 -17 q 117 8 140 -17 q 94 68 94 32 q 117 129 94 106 q 183 153 140 153 q 249 129 226 153 q 272 68 272 106 q 249 8 272 32 q 183 -17 226 -17 z "},";":{"ha":376,"x_min":94,"x_max":283,"o":"m 194 542 q 128 566 151 542 q 106 626 106 590 q 128 688 106 664 q 194 711 151 711 q 260 688 238 711 q 283 626 283 664 q 260 566 283 590 q 194 542 238 542 m 96 -175 q 138 -69 126 -118 q 146 29 150 -21 l 272 68 q 246 -56 272 11 q 176 -175 219 -124 l 96 -175 m 183 -17 q 117 8 140 -17 q 94 68 94 32 q 117 129 94 106 q 183 153 140 153 q 249 129 226 153 q 272 68 272 106 q 249 8 272 32 q 183 -17 226 -17 z "},"…":{"ha":871,"x_min":94,"x_max":776,"o":"m 688 -17 q 622 8 644 -17 q 599 68 599 32 q 622 129 599 106 q 688 153 644 153 q 753 129 731 153 q 776 68 776 106 q 753 8 776 32 q 688 -17 731 -17 m 436 -17 q 370 8 393 -17 q 347 68 347 32 q 370 129 347 106 q 436 153 393 153 q 502 129 479 153 q 525 68 525 106 q 502 8 525 32 q 436 -17 479 -17 m 183 -17 q 117 8 140 -17 q 94 68 94 32 q 117 129 94 106 q 183 153 140 153 q 249 129 226 153 q 272 68 272 106 q 249 8 272 32 q 183 -17 226 -17 z "},"!":{"ha":367,"x_min":96,"x_max":274,"o":"m 122 246 l 108 881 q 119 926 108 908 q 147 953 129 944 q 183 961 164 961 q 219 953 203 961 q 247 926 236 944 q 257 881 258 908 l 243 246 q 183 253 214 253 q 122 246 153 253 m 185 -17 q 119 8 142 -17 q 96 68 96 32 q 119 129 96 106 q 185 153 142 153 q 251 129 228 153 q 274 68 274 106 q 251 8 274 32 q 185 -17 228 -17 z "},"¡":{"ha":367,"x_min":93,"x_max":271,"o":"m 243 449 l 257 -186 q 247 -232 258 -214 q 219 -258 236 -250 q 183 -267 203 -267 q 147 -258 164 -267 q 119 -232 129 -250 q 108 -186 108 -214 l 122 449 q 183 443 153 443 q 243 449 214 443 m 182 711 q 248 688 225 711 q 271 626 271 664 q 248 566 271 590 q 182 542 225 542 q 116 566 139 542 q 93 626 93 590 q 116 688 93 664 q 182 711 139 711 z "},"?":{"ha":722,"x_min":24,"x_max":692,"o":"m 285 246 q 294 365 278 317 q 340 444 310 413 q 406 501 371 476 q 474 549 442 525 q 526 606 506 574 q 547 683 547 638 q 494 802 547 758 q 351 846 440 846 q 250 827 290 846 q 183 783 210 808 q 133 738 156 757 q 83 718 110 718 q 40 734 57 718 q 24 776 24 750 q 36 819 24 799 q 67 857 49 840 q 176 929 106 897 q 353 961 247 961 q 603 886 514 961 q 692 685 692 811 q 670 576 692 619 q 615 503 649 532 q 544 451 582 474 q 474 401 507 428 q 421 339 442 375 q 403 246 400 303 q 344 253 374 253 q 285 246 314 253 m 346 -17 q 280 8 303 -17 q 257 68 257 32 q 280 129 257 106 q 346 153 303 153 q 412 129 389 153 q 435 68 435 106 q 412 8 435 32 q 346 -17 389 -17 z "},"¿":{"ha":722,"x_min":31,"x_max":699,"o":"m 439 449 q 428 331 444 379 q 382 250 413 282 q 316 194 351 218 q 249 145 281 169 q 197 90 218 121 q 176 11 176 58 q 229 -108 176 -64 q 371 -151 282 -151 q 473 -133 433 -151 q 540 -88 513 -114 q 590 -43 567 -62 q 639 -24 613 -24 q 683 -40 667 -24 q 699 -82 699 -56 q 687 -124 699 -104 q 656 -162 675 -144 q 547 -235 618 -203 q 369 -267 476 -267 q 120 -192 210 -267 q 31 10 31 -117 q 52 119 31 76 q 107 192 74 163 q 178 244 140 221 q 248 293 215 267 q 301 356 281 319 q 319 449 322 393 q 380 443 350 443 q 439 449 410 443 m 376 711 q 442 688 419 711 q 465 626 465 664 q 442 566 465 590 q 376 542 419 542 q 310 566 333 542 q 288 626 288 590 q 310 688 288 664 q 376 711 333 711 z "},"·":{"ha":367,"x_min":94,"x_max":272,"o":"m 183 271 q 117 295 140 271 q 94 356 94 319 q 117 417 94 393 q 183 440 140 440 q 249 417 226 440 q 272 356 272 393 q 249 295 272 319 q 183 271 226 271 z "},"•":{"ha":500,"x_min":67,"x_max":433,"o":"m 250 182 q 114 231 161 182 q 67 354 67 281 q 114 478 67 429 q 250 528 161 528 q 385 478 338 528 q 433 354 433 429 q 385 231 433 281 q 250 182 338 182 z "},"*":{"ha":667,"x_min":22,"x_max":644,"o":"m 313 694 l 274 918 q 274 972 267 950 q 297 1005 281 993 q 335 1017 313 1017 q 373 1005 357 1017 q 397 972 389 993 q 396 918 404 950 l 357 694 l 313 694 m 324 715 l 525 819 q 576 838 553 838 q 615 826 599 838 q 638 793 631 814 q 638 753 644 772 q 613 719 632 733 q 563 704 594 706 l 338 672 l 324 715 m 329 671 l 104 703 q 53 720 72 707 q 28 752 35 733 q 29 790 22 771 q 52 824 36 811 q 91 837 68 838 q 142 821 114 836 l 343 713 l 329 671 m 354 682 l 254 479 q 224 435 243 449 q 185 422 206 421 q 149 433 165 422 q 123 466 129 447 q 124 507 117 485 q 156 551 131 529 l 319 708 l 354 682 m 349 710 l 511 551 q 544 508 536 529 q 545 467 551 486 q 521 436 539 449 q 483 422 503 422 q 444 436 463 422 q 413 479 425 450 l 314 683 l 349 710 z "},"#":{"ha":851,"x_min":24,"x_max":828,"o":"m 158 0 l 297 944 l 401 944 l 263 0 l 158 0 m 450 0 l 589 944 l 693 944 l 554 0 l 450 0 m 63 685 l 828 685 l 828 582 l 63 582 l 63 685 m 24 363 l 790 363 l 790 260 l 24 260 l 24 363 z "},"/":{"ha":619,"x_min":39,"x_max":581,"o":"m 39 -139 l 456 944 l 581 944 l 164 -139 l 39 -139 z "},"\\":{"ha":619,"x_min":39,"x_max":581,"o":"m 581 -139 l 456 -139 l 39 944 l 164 944 l 581 -139 z "},"¢":{"ha":851,"x_min":113,"x_max":714,"o":"m 397 694 l 397 882 l 500 882 l 500 694 l 397 694 m 397 -187 l 397 0 l 500 0 l 500 -187 l 397 -187 m 714 557 q 697 514 714 529 q 656 499 681 499 q 613 515 629 499 q 578 550 596 531 q 533 585 560 569 q 458 600 506 600 q 308 532 363 600 q 254 349 254 464 q 281 217 254 272 q 358 131 307 161 q 485 101 410 101 q 588 115 536 101 q 697 160 640 129 l 697 49 q 602 3 657 24 q 468 -17 547 -17 q 208 79 303 -17 q 113 340 113 175 q 156 535 113 451 q 277 665 199 618 q 461 711 356 711 q 592 688 536 711 q 679 632 647 665 q 714 557 714 597 z "},"$":{"ha":851,"x_min":81,"x_max":789,"o":"m 379 483 l 379 1125 l 478 1125 l 478 483 l 379 483 m 379 -181 l 379 483 l 478 483 l 478 -181 l 379 -181 m 419 -17 q 233 7 318 -17 q 83 71 147 31 l 83 201 q 256 121 171 147 q 424 94 342 94 q 592 138 539 94 q 646 242 646 182 q 615 321 646 290 q 533 370 583 351 q 423 404 483 389 q 302 438 363 419 q 192 487 242 457 q 111 564 142 517 q 81 683 81 611 q 122 828 81 765 q 242 926 163 890 q 436 961 322 961 q 602 936 535 961 q 713 871 669 911 q 744 834 732 853 q 756 790 756 815 q 740 747 756 764 q 697 731 724 731 q 649 748 669 731 q 602 790 628 765 q 536 832 576 814 q 428 850 496 850 q 276 807 328 850 q 224 700 224 764 q 254 622 224 651 q 335 573 285 592 q 445 540 385 554 q 566 506 506 525 q 676 458 626 488 q 758 380 726 428 q 789 257 789 332 q 747 112 789 174 q 622 17 704 50 q 419 -17 539 -17 z "},"€":{"ha":851,"x_min":28,"x_max":824,"o":"m 28 613 l 596 613 l 596 519 l 28 519 l 28 613 m 28 428 l 596 428 l 596 335 l 28 335 l 28 428 m 542 -17 q 319 43 408 -17 q 186 210 231 103 q 142 458 142 317 q 166 658 142 567 q 241 818 190 750 q 367 924 292 886 q 543 961 442 961 q 695 934 629 961 q 794 863 761 907 q 824 789 824 828 q 808 744 824 761 q 765 728 792 728 q 721 745 739 728 q 683 785 703 763 q 629 826 663 808 q 539 843 596 843 q 391 794 449 843 q 306 662 333 746 q 279 469 279 578 q 307 278 279 361 q 397 149 335 196 q 558 101 460 101 q 686 124 628 101 q 801 182 744 146 l 801 61 q 692 6 757 29 q 542 -17 628 -17 z "},"£":{"ha":851,"x_min":31,"x_max":804,"o":"m 72 0 l 72 129 l 144 129 q 226 151 203 129 q 249 214 250 174 q 233 306 249 254 q 197 419 218 358 q 161 544 176 481 q 146 671 146 608 q 235 884 146 807 q 485 961 325 961 q 649 933 588 961 q 742 869 710 904 q 765 834 758 851 q 772 801 772 817 q 756 760 772 776 q 714 744 740 744 q 669 760 689 744 q 626 794 649 775 q 568 829 603 814 q 481 844 533 844 q 339 797 390 844 q 288 661 288 749 q 306 540 288 604 q 346 412 324 476 q 380 288 368 347 q 381 181 392 229 q 321 104 369 133 l 296 129 l 804 129 l 804 0 l 72 0 m 31 429 l 31 521 l 613 521 l 613 429 l 31 429 z "},"¥":{"ha":851,"x_min":22,"x_max":829,"o":"m 96 613 l 406 613 l 406 519 l 96 519 l 96 613 m 96 428 l 779 428 l 779 335 l 96 335 l 96 428 m 454 613 l 779 613 l 779 519 l 454 519 l 454 613 m 485 546 l 383 596 l 656 944 l 829 944 l 485 546 m 356 0 l 356 618 l 496 618 l 496 0 l 356 0 m 367 546 l 22 944 l 196 944 l 468 596 l 367 546 z "},"+":{"ha":851,"x_min":92,"x_max":760,"o":"m 92 404 l 760 404 l 760 290 l 92 290 l 92 404 m 369 22 l 369 672 l 482 672 l 482 22 l 369 22 z "},"−":{"ha":851,"x_min":92,"x_max":760,"o":"m 92 404 l 760 404 l 760 292 l 92 292 l 92 404 z "},"×":{"ha":833,"x_min":128,"x_max":706,"o":"m 628 60 l 418 271 l 210 64 l 132 142 l 339 349 l 128 560 l 206 636 l 417 426 l 624 632 l 701 554 l 494 349 l 706 136 l 628 60 z "},"÷":{"ha":851,"x_min":92,"x_max":760,"o":"m 92 403 l 760 403 l 760 293 l 92 293 l 92 403 m 428 563 q 371 582 392 563 q 350 631 350 601 q 371 679 350 660 q 428 699 392 699 q 488 679 467 699 q 508 631 508 660 q 488 582 508 601 q 428 563 467 563 m 428 -4 q 371 16 392 -4 q 350 64 350 36 q 371 113 350 93 q 428 133 392 133 q 488 113 467 133 q 508 64 508 93 q 488 16 508 36 q 428 -4 467 -4 z "},"=":{"ha":851,"x_min":92,"x_max":760,"o":"m 92 467 l 92 576 l 760 576 l 760 467 l 92 467 m 92 118 l 92 228 l 760 228 l 760 118 l 92 118 z "},"≠":{"ha":851,"x_min":92,"x_max":760,"o":"m 174 0 l 560 694 l 678 694 l 293 0 l 174 0 m 92 467 l 92 576 l 760 576 l 760 467 l 92 467 m 92 118 l 92 228 l 760 228 l 760 118 l 92 118 z "},">":{"ha":851,"x_min":92,"x_max":760,"o":"m 760 303 l 92 531 l 92 646 l 760 399 l 760 303 m 92 49 l 92 164 l 760 392 l 760 296 l 92 49 z "},"<":{"ha":851,"x_min":92,"x_max":760,"o":"m 92 392 l 760 164 l 760 49 l 92 296 l 92 392 m 760 646 l 760 531 l 92 303 l 92 399 l 760 646 z "},"≥":{"ha":851,"x_min":92,"x_max":760,"o":"m 760 407 l 92 607 l 92 718 l 760 497 l 760 407 m 92 168 l 92 281 l 760 479 l 760 389 l 92 168 m 92 104 l 760 104 l 760 0 l 92 0 l 92 104 z "},"≤":{"ha":851,"x_min":92,"x_max":760,"o":"m 92 407 l 92 497 l 760 718 l 760 607 l 92 407 m 760 168 l 92 389 l 92 479 l 760 281 l 760 168 m 760 104 l 760 0 l 92 0 l 92 104 l 760 104 z "},"±":{"ha":851,"x_min":92,"x_max":760,"o":"m 92 490 l 760 490 l 760 386 l 92 386 l 92 490 m 371 182 l 371 694 l 481 694 l 481 182 l 371 182 m 92 104 l 760 104 l 760 0 l 92 0 l 92 104 z "},"≈":{"ha":851,"x_min":108,"x_max":744,"o":"m 569 44 q 490 61 524 44 q 431 103 457 78 q 382 153 404 128 q 338 194 360 178 q 289 211 315 211 q 230 172 250 211 q 214 60 210 132 l 115 60 q 127 200 108 143 q 185 286 146 257 q 282 315 225 315 q 361 299 328 315 q 421 258 394 282 q 469 208 447 233 q 514 165 492 182 q 564 149 536 149 q 622 188 603 149 q 638 300 642 228 l 738 300 q 725 160 744 217 q 666 74 706 103 q 569 44 626 44 m 569 385 q 490 401 524 385 q 431 443 457 418 q 382 493 404 468 q 338 535 360 518 q 289 551 315 551 q 230 512 250 551 q 214 400 210 472 l 115 400 q 127 540 108 483 q 185 626 146 597 q 282 656 225 656 q 361 639 328 656 q 421 598 394 622 q 469 548 447 574 q 514 506 492 522 q 564 489 536 489 q 622 528 603 489 q 638 640 642 568 l 738 640 q 725 500 744 557 q 666 414 706 443 q 569 385 626 385 z "},"~":{"ha":851,"x_min":108,"x_max":744,"o":"m 569 214 q 490 231 524 214 q 431 272 457 247 q 382 322 404 297 q 338 364 360 347 q 289 381 315 381 q 230 341 250 381 q 214 229 210 301 l 115 229 q 127 369 108 313 q 185 456 146 426 q 282 485 225 485 q 361 468 328 485 q 421 427 394 451 q 469 377 447 403 q 514 335 492 351 q 564 318 536 318 q 622 358 603 318 q 638 469 642 397 l 738 469 q 725 329 744 386 q 666 243 706 272 q 569 214 626 214 z "},"^":{"ha":686,"x_min":46,"x_max":640,"o":"m 392 1000 l 160 583 l 46 583 l 286 1000 l 392 1000 m 640 583 l 526 583 l 294 1000 l 400 1000 l 640 583 z "},"%":{"ha":1107,"x_min":38,"x_max":1069,"o":"m 733 944 l 863 944 l 375 0 l 246 0 l 733 944 m 38 699 q 66 832 38 772 q 148 926 94 892 q 276 961 201 961 q 440 892 381 961 q 500 710 500 824 q 473 577 500 636 q 394 484 446 518 q 269 450 343 450 q 100 519 163 450 q 38 699 38 589 m 153 703 q 186 585 153 628 q 272 543 219 543 q 355 586 324 543 q 386 706 386 629 q 354 825 386 782 q 271 868 322 868 q 185 823 218 868 q 153 703 153 778 m 608 232 q 636 365 608 306 q 717 460 664 425 q 846 494 771 494 q 1010 426 950 494 q 1069 243 1069 357 q 1042 110 1069 169 q 964 17 1015 51 q 839 -17 913 -17 q 670 53 732 -17 q 608 232 608 122 m 722 236 q 756 119 722 161 q 842 76 789 76 q 924 119 893 76 q 956 239 956 163 q 924 358 956 315 q 842 401 892 401 q 755 356 788 401 q 722 236 722 311 z "},"‰":{"ha":1619,"x_min":38,"x_max":1582,"o":"m 1119 232 q 1148 365 1119 306 q 1230 460 1176 425 q 1358 494 1283 494 q 1522 426 1463 494 q 1582 243 1582 357 q 1555 110 1582 169 q 1476 17 1528 51 q 1350 -17 1425 -17 q 1182 53 1244 -17 q 1119 232 1119 122 m 1233 236 q 1267 119 1233 161 q 1353 76 1301 76 q 1436 119 1406 76 q 1467 239 1467 163 q 1435 358 1467 315 q 1353 401 1404 401 q 1267 356 1300 401 q 1233 236 1233 311 m 733 944 l 863 944 l 375 0 l 246 0 l 733 944 m 38 699 q 66 832 38 772 q 148 926 94 892 q 276 961 201 961 q 440 892 381 961 q 500 710 500 824 q 473 577 500 636 q 394 484 446 518 q 269 450 343 450 q 100 519 163 450 q 38 699 38 589 m 153 703 q 186 585 153 628 q 272 543 219 543 q 355 586 324 543 q 386 706 386 629 q 354 825 386 782 q 271 868 322 868 q 185 823 218 868 q 153 703 153 778 m 608 232 q 636 365 608 306 q 717 460 664 425 q 846 494 771 494 q 1010 426 950 494 q 1069 243 1069 357 q 1042 110 1069 169 q 964 17 1015 51 q 839 -17 913 -17 q 670 53 732 -17 q 608 232 608 122 m 722 236 q 756 119 722 161 q 842 76 789 76 q 924 119 893 76 q 956 239 956 163 q 924 358 956 315 q 842 401 892 401 q 755 356 788 401 q 722 236 722 311 z "},"@":{"ha":1458,"x_min":83,"x_max":1375,"o":"m 1026 668 l 1026 201 q 1035 135 1026 156 q 1075 115 1044 115 q 1155 144 1114 115 q 1224 238 1196 174 q 1253 407 1253 301 q 1189 664 1253 561 q 1012 819 1125 767 q 751 872 899 872 q 512 830 614 872 q 343 714 410 788 q 243 542 276 640 q 210 333 210 444 q 270 67 210 185 q 453 -117 331 -50 q 763 -183 575 -183 q 967 -160 869 -183 q 1151 -87 1065 -137 l 1151 -197 q 974 -269 1068 -244 q 760 -294 879 -294 q 386 -214 536 -294 q 160 8 236 -133 q 83 333 83 150 q 126 585 83 468 q 252 792 168 703 q 460 933 336 882 q 751 983 585 983 q 1003 945 889 983 q 1201 833 1118 907 q 1329 653 1283 760 q 1375 413 1375 547 q 1349 231 1375 307 q 1279 108 1324 156 q 1178 37 1235 60 q 1058 14 1121 14 q 953 43 994 14 q 908 139 911 72 l 908 668 l 1026 668 m 940 175 q 839 43 907 83 q 696 3 771 3 q 591 22 643 3 q 496 81 539 40 q 427 186 453 122 q 401 340 401 250 q 440 523 401 446 q 545 642 478 600 q 700 685 613 685 q 840 647 778 685 q 926 531 901 610 l 908 394 q 883 495 908 454 q 818 558 858 536 q 731 581 778 581 q 637 556 683 581 q 559 478 590 531 q 528 342 528 426 q 547 230 528 275 q 598 158 567 185 q 665 120 629 132 q 733 108 700 108 q 819 128 779 108 q 883 190 858 149 q 908 296 908 231 l 940 175 z "},"&":{"ha":1125,"x_min":63,"x_max":1047,"o":"m 1047 22 q 993 0 1022 8 q 933 -8 964 -8 q 833 13 885 -8 q 740 76 782 35 l 292 517 q 206 630 235 574 q 178 744 178 686 q 214 867 178 813 q 315 952 250 921 q 468 983 381 983 q 614 954 551 983 q 712 873 676 925 q 747 751 747 821 q 674 590 747 656 q 449 479 601 525 l 393 556 q 526 614 476 585 q 597 676 575 643 q 618 747 618 708 q 578 842 618 806 q 468 878 538 878 q 351 841 394 878 q 308 746 308 804 q 328 674 308 710 q 388 597 347 639 l 824 174 q 894 124 860 139 q 960 108 928 108 q 1005 115 982 108 q 1047 132 1028 121 l 1047 22 m 394 -17 q 151 56 240 -17 q 63 249 63 129 q 139 430 63 356 q 378 551 215 504 l 436 474 q 253 380 307 435 q 199 260 199 325 q 255 141 199 185 q 403 97 311 97 q 559 129 481 97 q 701 215 638 161 l 778 132 q 606 23 704 63 q 394 -17 508 -17 m 794 149 l 717 232 q 801 328 764 274 q 864 442 839 383 q 893 556 889 501 q 915 619 900 597 q 963 640 931 640 q 1009 620 992 640 q 1026 558 1026 600 q 1001 438 1026 507 q 924 293 975 368 q 794 149 872 218 z "},"¶":{"ha":765,"x_min":47,"x_max":639,"o":"m 375 -156 q 294 -147 329 -156 q 233 -126 260 -139 q 184 -92 200 -111 q 168 -51 168 -74 q 183 -13 168 -28 q 225 1 199 1 q 265 -6 246 1 q 309 -22 285 -14 q 367 -31 333 -31 q 467 15 433 -31 q 500 153 500 60 l 500 967 l 639 967 l 639 143 q 619 2 639 60 q 562 -90 599 -56 q 477 -140 525 -125 q 375 -156 429 -156 m 422 367 q 142 443 238 367 q 47 658 47 519 q 90 822 47 753 q 217 928 133 890 q 418 967 300 967 l 610 967 l 610 367 l 422 367 z "},"§":{"ha":849,"x_min":40,"x_max":808,"o":"m 624 101 l 569 156 q 649 239 632 203 q 667 303 667 275 q 635 382 667 353 q 552 426 604 411 q 439 452 500 442 q 316 476 378 463 q 203 513 254 489 q 119 580 151 536 q 88 694 88 624 q 125 831 88 771 q 238 926 163 890 q 429 961 314 961 q 592 935 525 961 q 703 869 660 910 q 733 835 722 854 q 744 790 744 815 q 729 747 744 764 q 688 731 714 731 q 640 748 661 731 q 592 790 618 765 q 526 832 567 814 q 419 850 486 850 q 310 830 353 850 q 247 778 267 810 q 226 711 226 747 q 258 638 226 665 q 341 597 289 611 q 456 572 393 582 q 579 547 518 561 q 692 509 640 533 q 776 441 744 485 q 808 328 808 397 q 796 257 808 290 q 760 197 783 224 q 703 147 738 171 q 624 101 669 124 m 408 -294 q 220 -270 307 -294 q 71 -206 133 -246 l 71 -76 q 245 -156 158 -131 q 410 -181 332 -181 q 535 -161 489 -181 q 602 -110 582 -142 q 622 -46 622 -79 q 591 28 622 1 q 508 69 560 54 q 394 94 456 85 q 270 118 332 104 q 156 156 208 132 q 72 223 104 181 q 40 335 40 265 q 53 408 40 375 q 90 468 65 440 q 148 519 114 496 q 224 565 182 543 l 281 511 q 201 427 219 464 q 182 361 182 390 q 213 282 182 310 q 297 240 244 254 q 410 215 349 225 q 533 192 472 204 q 646 155 594 179 q 729 87 697 131 q 761 -31 761 43 q 722 -168 761 -108 q 605 -261 683 -228 q 408 -294 526 -294 z "},"©":{"ha":1157,"x_min":69,"x_max":1088,"o":"m 596 150 q 420 190 494 150 q 306 301 346 229 q 267 465 267 372 q 308 635 267 561 q 422 752 349 710 q 596 794 494 794 q 709 777 660 794 q 787 731 758 760 q 815 665 815 701 q 801 628 815 640 q 764 615 786 615 q 729 626 743 615 q 699 651 715 638 q 657 677 682 665 q 589 689 632 689 q 444 628 496 689 q 392 471 392 567 q 449 313 392 369 q 608 256 506 256 q 708 268 658 256 q 797 301 757 281 l 797 203 q 709 165 758 181 q 596 150 660 150 m 579 -17 q 313 47 428 -17 q 134 220 199 110 q 69 472 69 331 q 134 725 69 615 q 313 898 199 835 q 579 961 428 961 q 845 898 731 961 q 1024 725 960 835 q 1088 472 1088 615 q 1024 220 1088 331 q 845 47 960 110 q 579 -17 731 -17 m 579 57 q 806 110 710 57 q 954 258 901 164 q 1007 472 1007 351 q 954 688 1007 594 q 806 834 901 781 q 579 888 710 888 q 352 834 449 888 q 203 688 256 781 q 150 472 150 594 q 203 258 150 351 q 352 110 256 164 q 579 57 449 57 z "},"®":{"ha":1157,"x_min":69,"x_max":1088,"o":"m 715 167 q 704 226 706 193 q 701 294 703 260 q 692 355 700 328 q 662 399 685 382 q 593 415 639 415 l 408 415 l 408 476 l 622 476 q 740 456 700 476 q 793 401 779 435 q 810 326 807 367 q 816 244 813 286 q 838 167 819 203 l 715 167 m 338 167 l 338 778 l 447 778 l 447 167 l 338 167 m 389 443 l 389 507 l 576 507 q 688 528 651 507 q 725 597 725 549 q 688 665 725 644 q 576 686 651 686 l 389 686 l 389 778 l 599 778 q 781 734 719 778 q 843 608 843 690 q 810 513 843 549 q 719 460 778 476 q 578 443 660 443 l 389 443 m 579 -17 q 313 47 428 -17 q 134 220 199 110 q 69 472 69 331 q 134 725 69 615 q 313 898 199 835 q 579 961 428 961 q 845 898 731 961 q 1024 725 960 835 q 1088 472 1088 615 q 1024 220 1088 331 q 845 47 960 110 q 579 -17 731 -17 m 579 57 q 806 110 710 57 q 954 258 901 164 q 1007 472 1007 351 q 954 688 1007 594 q 806 834 901 781 q 579 888 710 888 q 352 834 449 888 q 203 688 256 781 q 150 472 150 594 q 203 258 150 351 q 352 110 256 164 q 579 57 449 57 z "},"™":{"ha":1633,"x_min":25,"x_max":1507,"o":"m 278 250 l 278 944 l 401 944 l 401 250 l 278 250 m 25 832 l 25 944 l 654 944 l 654 832 l 25 832 m 1346 901 q 1385 943 1365 929 q 1432 957 1406 957 q 1488 932 1468 957 q 1507 861 1507 907 l 1507 250 l 1393 250 l 1393 828 l 1426 821 l 1132 406 l 838 821 l 871 828 l 871 250 l 757 250 l 757 861 q 777 933 757 908 q 833 957 797 957 q 881 943 861 957 q 921 901 900 929 l 1158 563 l 1107 563 l 1346 901 z "},"°":{"ha":568,"x_min":49,"x_max":519,"o":"m 285 504 q 162 534 215 504 q 78 615 108 564 q 49 733 49 667 q 78 851 49 800 q 162 931 108 901 q 285 961 215 961 q 407 931 354 961 q 490 851 460 901 q 519 733 519 800 q 490 615 519 667 q 407 534 460 564 q 285 504 354 504 m 285 603 q 378 640 342 603 q 415 733 415 676 q 378 827 415 790 q 285 864 342 864 q 190 827 226 864 q 153 733 153 790 q 190 640 153 676 q 285 603 226 603 z "},"′":{"ha":349,"x_min":90,"x_max":258,"o":"m 136 668 l 97 879 q 100 945 90 919 q 130 983 110 971 q 175 994 150 994 q 219 983 199 994 q 249 945 239 971 q 251 879 258 919 l 213 668 l 136 668 z "},"″":{"ha":572,"x_min":90,"x_max":483,"o":"m 360 668 l 321 879 q 324 945 314 919 q 353 983 333 971 q 399 994 374 994 q 442 983 422 994 q 472 945 463 971 q 475 879 482 919 l 436 668 l 360 668 m 136 668 l 97 879 q 100 945 90 919 q 130 983 110 971 q 175 994 150 994 q 219 983 199 994 q 249 945 239 971 q 251 879 258 919 l 213 668 l 136 668 z "},"|":{"ha":367,"x_min":126,"x_max":240,"o":"m 126 -278 l 126 1000 l 240 1000 l 240 -278 l 126 -278 z "},"¦":{"ha":367,"x_min":126,"x_max":240,"o":"m 126 506 l 126 1000 l 240 1000 l 240 506 l 126 506 m 126 -278 l 126 217 l 240 217 l 240 -278 l 126 -278 z "},"†":{"ha":489,"x_min":28,"x_max":461,"o":"m 188 349 l 188 944 l 301 944 l 301 349 l 188 349 m 28 803 l 461 803 l 461 703 l 28 703 l 28 803 z "},"‡":{"ha":489,"x_min":28,"x_max":461,"o":"m 188 349 l 188 944 l 301 944 l 301 349 l 188 349 m 28 803 l 461 803 l 461 708 l 28 708 l 28 803 m 28 574 l 461 574 l 461 479 l 28 479 l 28 574 z "},"№":{"ha":1581,"x_min":126,"x_max":1542,"o":"m 1079 699 q 1108 832 1079 772 q 1190 926 1136 892 q 1318 961 1243 961 q 1482 892 1422 961 q 1542 710 1542 824 q 1515 577 1542 636 q 1436 484 1488 518 q 1310 450 1385 450 q 1142 519 1204 450 q 1079 699 1079 589 m 1193 703 q 1227 585 1193 628 q 1314 543 1261 543 q 1396 586 1365 543 q 1426 706 1426 629 q 1395 825 1426 782 q 1313 868 1364 868 q 1226 823 1260 868 q 1193 703 1193 778 m 126 0 l 126 849 q 151 928 126 901 q 215 954 175 954 q 273 937 247 954 q 324 882 299 919 l 844 139 l 782 132 l 782 944 l 914 944 l 914 0 l 775 0 l 208 807 l 258 815 l 258 0 l 126 0 z "},"̈":{"ha":0,"x_min":51,"x_max":472,"o":"m 128 825 q 71 846 90 825 q 51 899 51 867 q 71 952 51 931 q 128 974 90 974 q 183 952 164 974 q 201 899 201 931 q 183 846 201 867 q 128 825 164 825 m 399 825 q 342 846 361 825 q 322 899 322 867 q 342 952 322 931 q 399 974 361 974 q 453 952 435 974 q 472 899 472 931 q 453 846 472 867 q 399 825 435 825 z "},"̇":{"ha":0,"x_min":100,"x_max":268,"o":"m 185 815 q 122 838 143 815 q 100 894 100 861 q 122 951 100 928 q 185 974 143 974 q 247 951 226 974 q 268 894 268 928 q 247 838 268 861 q 185 815 226 815 z "},"̀":{"ha":0,"x_min":101,"x_max":322,"o":"m 224 772 l 129 904 q 104 958 107 932 q 117 1000 101 983 q 161 1017 132 1017 q 210 999 190 1017 q 250 940 231 982 l 322 772 l 224 772 z "},"́":{"ha":0,"x_min":104,"x_max":325,"o":"m 203 772 l 104 772 l 176 940 q 216 999 194 982 q 265 1017 238 1017 q 310 1000 294 1017 q 323 958 325 983 q 297 904 321 932 l 203 772 z "},"̋":{"ha":0,"x_min":96,"x_max":507,"o":"m 300 763 l 374 940 q 411 999 390 981 q 457 1017 432 1017 q 494 1003 482 1017 q 507 967 507 989 q 489 921 507 946 l 394 763 l 300 763 m 96 763 l 171 940 q 208 999 188 981 q 254 1017 229 1017 q 292 1003 279 1017 q 303 967 304 989 q 286 921 303 946 l 192 763 l 96 763 z "},"̂":{"ha":0,"x_min":49,"x_max":453,"o":"m 49 772 l 154 949 q 196 999 175 982 q 250 1017 217 1017 q 306 999 285 1017 q 346 947 326 981 l 453 772 l 357 772 l 250 910 l 144 772 l 49 772 z "},"̌":{"ha":0,"x_min":49,"x_max":453,"o":"m 453 1000 l 346 824 q 306 773 326 790 q 250 756 285 756 q 196 774 217 756 q 154 825 175 792 l 49 1000 l 144 1000 l 250 863 l 357 1000 l 453 1000 z "},"̆":{"ha":0,"x_min":28,"x_max":446,"o":"m 132 1000 q 149 899 125 938 q 238 861 174 861 q 325 899 300 861 q 342 1000 350 938 l 428 1000 q 394 827 446 886 q 238 768 343 768 q 79 827 131 768 q 46 1000 28 886 l 132 1000 z "},"̊":{"ha":0,"x_min":64,"x_max":406,"o":"m 235 758 q 107 795 150 758 q 64 888 64 832 q 107 980 64 943 q 235 1017 150 1017 q 363 980 319 1017 q 406 888 406 943 q 363 795 406 832 q 235 758 319 758 m 235 821 q 295 840 274 821 q 317 888 317 860 q 295 935 317 917 q 235 953 274 953 q 174 935 196 953 q 153 888 153 917 q 174 840 153 860 q 235 821 196 821 z "},"̃":{"ha":0,"x_min":58,"x_max":556,"o":"m 421 779 q 351 797 381 779 q 297 840 321 815 q 252 882 274 864 q 204 900 231 900 q 165 873 178 900 q 154 788 151 846 l 68 788 q 94 941 58 886 q 199 996 131 996 q 270 978 240 996 q 323 935 300 960 q 367 892 346 910 q 414 874 389 874 q 449 894 438 874 q 461 953 461 915 q 472 999 461 982 q 504 1015 482 1015 q 544 993 532 1015 q 556 936 556 971 q 539 853 556 889 q 492 799 522 818 q 421 779 463 779 z "},"̄":{"ha":0,"x_min":28,"x_max":408,"o":"m 28 950 l 408 950 l 408 849 l 28 849 l 28 950 z "},"̒":{"ha":0,"x_min":94,"x_max":265,"o":"m 246 972 q 215 899 222 935 q 214 825 208 863 l 147 863 q 212 868 185 872 q 252 850 239 864 q 265 814 265 836 q 244 769 265 788 q 181 751 222 751 q 119 769 144 751 q 94 822 94 786 q 114 897 94 860 q 165 972 133 933 l 246 972 z "},"̦":{"ha":0,"x_min":94,"x_max":265,"o":"m 114 -278 q 145 -204 138 -240 q 146 -131 153 -168 l 213 -168 q 149 -173 175 -176 q 108 -155 122 -169 q 94 -119 94 -140 q 116 -75 94 -93 q 179 -57 138 -57 q 240 -74 215 -57 q 265 -128 265 -92 q 246 -201 265 -164 q 194 -278 226 -239 l 114 -278 z "},"̧":{"ha":0,"x_min":29,"x_max":318,"o":"m 210 -178 q 191 -147 210 -157 q 136 -136 172 -136 q 124 -136 131 -136 q 110 -136 117 -136 q 65 -124 76 -136 q 58 -81 54 -111 l 74 25 l 153 25 l 135 -106 l 99 -74 q 207 -72 164 -65 q 274 -94 250 -78 q 308 -131 299 -110 q 318 -176 318 -153 q 269 -267 318 -240 q 153 -294 221 -294 q 86 -287 118 -294 q 29 -269 54 -281 l 29 -199 q 83 -215 56 -208 q 138 -221 110 -221 q 190 -211 171 -221 q 210 -178 210 -201 z "},"̨":{"ha":0,"x_min":96,"x_max":372,"o":"m 326 24 q 233 -62 263 -21 q 204 -142 204 -104 q 225 -192 204 -175 q 281 -210 246 -210 q 327 -203 304 -210 q 372 -186 350 -197 l 372 -267 q 318 -287 349 -279 q 253 -294 288 -294 q 138 -261 181 -294 q 96 -168 96 -228 q 135 -64 96 -110 q 242 22 175 -18 l 326 24 z "},"̵":{"ha":0,"x_min":0,"x_max":486,"o":"m 0 899 l 486 899 l 486 806 l 0 806 l 0 899 z "},"̷":{"ha":0,"x_min":10,"x_max":415,"o":"m 10 440 l 415 579 l 415 481 l 10 342 l 10 440 z "},"¨":{"ha":524,"x_min":51,"x_max":472,"o":"m 128 825 q 71 846 90 825 q 51 899 51 867 q 71 952 51 931 q 128 974 90 974 q 183 952 164 974 q 201 899 201 931 q 183 846 201 867 q 128 825 164 825 m 399 825 q 342 846 361 825 q 322 899 322 867 q 342 952 322 931 q 399 974 361 974 q 453 952 435 974 q 472 899 472 931 q 453 846 472 867 q 399 825 435 825 z "},"˙":{"ha":368,"x_min":100,"x_max":268,"o":"m 185 815 q 122 838 143 815 q 100 894 100 861 q 122 951 100 928 q 185 974 143 974 q 247 951 226 974 q 268 894 268 928 q 247 838 268 861 q 185 815 226 815 z "},"`":{"ha":426,"x_min":101,"x_max":322,"o":"m 224 772 l 129 904 q 104 958 107 932 q 117 1000 101 983 q 161 1017 132 1017 q 210 999 190 1017 q 250 940 231 982 l 322 772 l 224 772 z "},"´":{"ha":426,"x_min":104,"x_max":325,"o":"m 203 772 l 104 772 l 176 940 q 216 999 194 982 q 265 1017 238 1017 q 310 1000 294 1017 q 323 958 325 983 q 297 904 321 932 l 203 772 z "},"˝":{"ha":603,"x_min":96,"x_max":507,"o":"m 300 763 l 374 940 q 411 999 390 981 q 457 1017 432 1017 q 494 1003 482 1017 q 507 967 507 989 q 489 921 507 946 l 394 763 l 300 763 m 96 763 l 171 940 q 208 999 188 981 q 254 1017 229 1017 q 292 1003 279 1017 q 303 967 304 989 q 286 921 303 946 l 192 763 l 96 763 z "},"ˆ":{"ha":501,"x_min":49,"x_max":453,"o":"m 49 772 l 154 949 q 196 999 175 982 q 250 1017 217 1017 q 306 999 285 1017 q 346 947 326 981 l 453 772 l 357 772 l 250 910 l 144 772 l 49 772 z "},"ˇ":{"ha":501,"x_min":49,"x_max":453,"o":"m 453 1000 l 346 824 q 306 773 326 790 q 250 756 285 756 q 196 774 217 756 q 154 825 175 792 l 49 1000 l 144 1000 l 250 863 l 357 1000 l 453 1000 z "},"˘":{"ha":474,"x_min":28,"x_max":446,"o":"m 132 1000 q 149 899 125 938 q 238 861 174 861 q 325 899 300 861 q 342 1000 350 938 l 428 1000 q 394 827 446 886 q 238 768 343 768 q 79 827 131 768 q 46 1000 28 886 l 132 1000 z "},"˚":{"ha":417,"x_min":64,"x_max":406,"o":"m 235 758 q 107 795 150 758 q 64 888 64 832 q 107 980 64 943 q 235 1017 150 1017 q 363 980 319 1017 q 406 888 406 943 q 363 795 406 832 q 235 758 319 758 m 235 821 q 295 840 274 821 q 317 888 317 860 q 295 935 317 917 q 235 953 274 953 q 174 935 196 953 q 153 888 153 917 q 174 840 153 860 q 235 821 196 821 z "},"˜":{"ha":631,"x_min":58,"x_max":556,"o":"m 421 779 q 351 797 381 779 q 297 840 321 815 q 252 882 274 864 q 204 900 231 900 q 165 873 178 900 q 154 788 151 846 l 68 788 q 94 941 58 886 q 199 996 131 996 q 270 978 240 996 q 323 935 300 960 q 367 892 346 910 q 414 874 389 874 q 449 894 438 874 q 461 953 461 915 q 472 999 461 982 q 504 1015 482 1015 q 544 993 532 1015 q 556 936 556 971 q 539 853 556 889 q 492 799 522 818 q 421 779 463 779 z "},"¯":{"ha":435,"x_min":28,"x_max":408,"o":"m 28 950 l 408 950 l 408 849 l 28 849 l 28 950 z "},"¸":{"ha":354,"x_min":29,"x_max":318,"o":"m 210 -178 q 191 -147 210 -157 q 136 -136 172 -136 q 124 -136 131 -136 q 110 -136 117 -136 q 65 -124 76 -136 q 58 -81 54 -111 l 74 25 l 153 25 l 135 -106 l 99 -74 q 207 -72 164 -65 q 274 -94 250 -78 q 308 -131 299 -110 q 318 -176 318 -153 q 269 -267 318 -240 q 153 -294 221 -294 q 86 -287 118 -294 q 29 -269 54 -281 l 29 -199 q 83 -215 56 -208 q 138 -221 110 -221 q 190 -211 171 -221 q 210 -178 210 -201 z "},"˛":{"ha":385,"x_min":96,"x_max":372,"o":"m 326 24 q 233 -62 263 -21 q 204 -142 204 -104 q 225 -192 204 -175 q 281 -210 246 -210 q 327 -203 304 -210 q 372 -186 350 -197 l 372 -267 q 318 -287 349 -279 q 253 -294 288 -294 q 138 -261 181 -294 q 96 -168 96 -228 q 135 -64 96 -110 q 242 22 175 -18 l 326 24 z "}}}
